<?xml version="1.0" standalone="no"?><!DOCTYPE svg PUBLIC "-//W3C//DTD SVG 1.1//EN" "http://www.w3.org/Graphics/SVG/1.1/DTD/svg11.dtd" ><svg xmlns="http://www.w3.org/2000/svg"><metadata></metadata><defs><font id="1.000;SJ  ;SJzhuokai-Regular" horiz-adv-x="1000"><font-face font-family="小楷字体" font-weight="400" font-stretch="normal" units-per-em="1000" panose-1="0 0 5 0 0 0 0 0 0 0" ascent="854" descent="-200" x-height="0" bbox="-67 -203 1006 859" underline-thickness="50" underline-position="-100" unicode-range="U+0020-ff5c" /><missing-glyph horiz-adv-x="1000"  /><glyph glyph-name="A" unicode="A" d="M635 4 q1 -3 1 -7 q0 -7 -11 -7 q-6 0 -18 2 q-27 3 -57 13.5 q-30 10.5 -35 32.5 q-21 109 -75 239 l-126 311 l-127 -311 l-2 -5 q48 1 77 4.5 q29 3.5 83 15.5 q20 0 36.5 -12 q16.5 -12 26.5 -28.5 q10 -16.5 10 -29.5 q0 -19 -20 -16 q-59 10 -106 10 q-48 0 -110 -13 q-10 0 -20 8 q-35 -94 -50 -173 q-5 -22 -35 -32.5 q-30 -10.5 -57 -13.5 q-12 -2 -18 -2 q-15 0 -10 14 l197 487 q34 83 72 198 q23 17 53 15 q29 2 52 -15 q38 -115 72 -198 l197 -487 Z" /><glyph glyph-name="B" unicode="B" d="M455 374 q54 -22 84 -64 q30 -42 30 -111 q0 -104 -87.5 -153.5 q-87.5 -49.5 -234.5 -49.5 l-75 0 q-17 0 -17 32 q0 17 5 31 q5 14 12 14 l75 0 q118 0 181.5 27.5 q63.5 27.5 63.5 98.5 q0 55 -28 82.5 q-28 27.5 -69.5 35 q-41.5 7.5 -102.5 7.5 l-38 0 l-7 0 l-96 0 l0 -333 q0 -12 -8 -12 q-4 0 -12 4 q-8 4 -11 6 q-26 14 -49 34.5 q-23 20.5 -20 42.5 q20 103 20 250 l0 314 q0 19 -7 42 q-7 23 -15 30 q4 1 11 1 q24 0 59 -14 l95 0 q111 0 171 -7.5 q60 -7.5 102 -44.5 q42 -37 42 -120 q0 -94 -74 -143 ZM247 401 q94 0 149.5 23.5 q55.5 23.5 55.5 92.5 q0 59 -31 79.5 q-31 20.5 -88 20.5 q-19 0 -59 -2 q-32 -3 -60 -3 l-51 0 l-3 -36 q-9 -76 -9 -127 l0 -48 l96 0 Z" /><glyph glyph-name="C" unicode="C" d="M33 336 q12 344 283 359 q185 7 262 -122 q12 -20 14.5 -31.5 q2.5 -11.5 2.5 -32.5 q0 -37 -7.5 -53 q-7.5 -16 -24.5 -16 q-6 0 -9 2 q-3 2 -9 10 q-56 178 -229 163 q-203 -16 -203 -263 q0 -276 200 -276 q138 10 196 85 q26 33 33.5 50.5 q7.5 17.5 20.5 71.5 q2 8 3.5 12 q1.5 4 4.5 4 q2 0 3 -1 q1 -1 2 -8 q9 -40 13.5 -56.5 q4.5 -16.5 4.5 -48.5 q0 -32 -4.5 -48 q-4.5 -16 -33.5 -54 q-64 -83 -243 -87 q-272 8 -280 340 Z" /><glyph glyph-name="D" unicode="D" d="M598 336 q-8 -332 -280 -340 l-70 0 l20 80 l50 0 q200 0 200 276 q0 245 -203 263 l-235 0 l0 80 l235 0 q271 -15 283 -359 ZM42 702 q4 1 12 1 q29 0 61 -15.5 q32 -15.5 45 -35.5 q-4 -48 -7 -72 q-1 -12 -5 -53.5 q-4 -41.5 -4 -77.5 l0 -458 q0 -12 -8 -12 q-4 0 -12 4 q-8 4 -11 6 q-26 14 -49 34.5 q-23 20.5 -20 42.5 q20 103 20 250 l0 314 q0 19 -7 42 q-7 23 -15 30 ZM179 -4 q-10 0 -14.5 9.5 q-4.5 9.5 -4.5 23.5 q0 17 5.5 31.5 q5.5 14.5 13.5 14.5 l107 0 l-24 -79 l-83 0 Z" /><glyph glyph-name="E" unicode="E" d="M475 91 q25 2 47 -11.5 q22 -13.5 35 -34 q13 -20.5 13 -36.5 q0 -10 -6 -15.5 q-6 -5.5 -17 -4.5 q-60 18 -156 18 q-75 0 -145 -7.5 q-70 -7.5 -79 -8.5 l-23 -3 q-1 -9 -8 -9 q-6 0 -13.5 4.5 q-7.5 4.5 -9.5 5.5 q-26 14 -49 34.5 q-23 20.5 -20 42.5 q20 103 20 250 l0 314 q0 19 -7 42 q-7 23 -15 30 q4 1 11 1 q20 0 43 -7.5 q23 -7.5 40 -19.5 q84 0 156.5 5 q72.5 5 163.5 16 q25 2 47 -11.5 q22 -13.5 35 -34 q13 -20.5 13 -36.5 q0 -10 -6 -15.5 q-6 -5.5 -17 -4.5 q-54 25 -135 25 q-40 0 -80 -4.5 q-40 -4.5 -95 -13.5 l-57 -8 l-6 0 l-2 -20 q-9 -76 -9 -125 l0 -53 q124 1 287 21 q25 2 47 -11.5 q22 -13.5 35 -34 q13 -20.5 13 -36.5 q0 -10 -6 -15.5 q-6 -5.5 -17 -4.5 q-52 24 -136 24 q-56 0 -112 -8 q-56 -8 -65 -9 l-46 -7 l0 -245 q178 2 331 21 Z" /><glyph glyph-name="F" unicode="F" d="M456 697 q25 2 47 -11.5 q22 -13.5 35 -34 q13 -20.5 13 -36.5 q0 -10 -6 -15.5 q-6 -5.5 -17 -4.5 q-54 25 -135 25 q-40 0 -80 -4.5 q-40 -4.5 -95 -13.5 l-57 -8 l-6 0 l-2 -20 q-9 -76 -9 -125 l0 -53 q124 1 287 21 q25 2 47 -11.5 q22 -13.5 35 -34 q13 -20.5 13 -36.5 q0 -10 -6 -15.5 q-6 -5.5 -17 -4.5 q-52 24 -136 24 q-56 0 -112 -8 q-56 -8 -65 -9 l-46 -7 l0 -324 q0 -12 -8 -12 q-4 0 -12 4 q-8 4 -11 6 q-26 14 -49 34.5 q-23 20.5 -20 42.5 q20 103 20 250 l0 314 q0 19 -7 42 q-7 23 -15 30 q4 1 11 1 q20 0 43 -7.5 q23 -7.5 40 -19.5 q84 0 156.5 5 q72.5 5 163.5 16 Z" /><glyph glyph-name="G" unicode="G" d="M15 339 q0 98 34 179.5 q34 81.5 101.5 129 q67.5 47.5 164.5 47.5 q186 0 245.5 -94.5 q59.5 -94.5 17.5 -27.5 q10 -24 12.5 -36 q2.5 -12 2.5 -33 q0 -36 -6.5 -50 q-6.5 -14 -22.5 -14 q-6 0 -9.5 1.5 q-3.5 1.5 -9.5 10.5 q-56 163 -230 163 q-111 0 -165.5 -80.5 q-54.5 -80.5 -54.5 -195.5 q0 -77 21 -137 q21 -60 75 -93 q54 -33 124 -33 q226 7 238 262 l84 9 q0 -347 -322 -351 q-91 0 -164 45 q-73 45 -104.5 123 q-31.5 78 -31.5 175 ZM628 278 q-173 -10 -258 -18 q-25 -3 -42.5 27 q-17.5 30 -24.5 55 q38 -2 76 -2 q85 0 249 7 l0 -69 Z" /><glyph glyph-name="H" unicode="H" d="M420 712 q4 1 12 1 q29 0 61 -15.5 q32 -15.5 45 -35.5 q-4 -48 -7 -72 q-1 -12 -5 -53.5 q-4 -41.5 -4 -77.5 l0 -459 q0 -12 -8 -12 q-4 0 -12 4 q-8 4 -11 6 q-26 14 -49 34.5 q-23 20.5 -20 42.5 q20 105 20 242 q-7 -9 -20 -8 q-49 14 -91 14 q-22 0 -46 -3.5 q-24 -3.5 -46 -8.5 q-51 -10 -67 -11 q-20 -3 -38 21 l0 -321 q0 -12 -8 -12 q-4 0 -12 4 q-8 4 -11 6 q-26 14 -49 34.5 q-23 20.5 -20 42.5 q20 103 20 250 l0 315 q0 19 -7 42 q-7 23 -15 30 q4 1 12 1 q29 0 61 -15.5 q32 -15.5 45 -35.5 q-4 -48 -7 -72 q-1 -12 -5 -53.5 q-4 -41.5 -4 -77.5 l0 -78 q42 1 68.5 5.5 q26.5 4.5 59.5 11.5 q47 11 87 12 q31 3 57.5 -18 q26.5 -21 35.5 -47 l0 295 q0 19 -7 42 q-7 23 -15 30 Z" /><glyph glyph-name="I" unicode="I" d="M76 712 q4 1 12 1 q29 0 61 -15.5 q32 -15.5 45 -35.5 q-4 -48 -7 -72 q-1 -12 -5 -53.5 q-4 -41.5 -4 -77.5 l0 -459 q0 -12 -8 -12 q-4 0 -12 4 q-8 4 -11 6 q-26 14 -49 34.5 q-23 20.5 -20 42.5 q20 103 20 250 l0 315 q0 19 -7 42 q-7 23 -15 30 Z" /><glyph glyph-name="J" unicode="J" d="M466 697 q25 2 47 -11.5 q22 -13.5 35 -34 q13 -20.5 13 -36.5 q0 -10 -6 -15.5 q-6 -5.5 -17 -4.5 q-51 24 -133 24 q-29 0 -44 -1 q19 -13 28 -26 q-5 -22 -10.5 -67.5 q-5.5 -45.5 -5.5 -89.5 l0 -340 q0 -57 -18 -92 q-18 -35 -41 -35 q-11 0 -22 12 q-12 13 -24 30 q-23 30 -40.5 47.5 q-17.5 17.5 -42.5 27.5 q-13 4 -13 8 q0 3 22 2 q12 -1 33 -1 q33 0 49.5 11 q16.5 11 16.5 41 l0 424 q0 17 -7 41 l-58 -9 l-57 -8 q-25 -3 -42.5 27 q-17.5 30 -24.5 55 l42 0 q84 0 156.5 5 q72.5 5 163.5 16 Z" /><glyph glyph-name="K" unicode="K" d="M537 42 q15 -15 20 -21 q16 -13 16 -18 q0 -3 -6.5 -3.5 q-6.5 -0.5 -16 0 q-9.5 0.5 -19.5 0.5 l-84 0 q-19 0 -28.5 5.5 q-9.5 5.5 -18.5 24.5 q-52 106 -160 338 q-41 -37 -92 -71 l0 -297 q0 -12 -8 -12 q-4 0 -12 4 q-8 4 -11 6 q-26 14 -49 34.5 q-23 20.5 -20 42.5 q20 103 20 250 l0 315 q0 19 -7 42 q-7 23 -15 30 q4 1 12 1 q29 0 61 -15.5 q32 -15.5 45 -35.5 q-4 -48 -7 -72 q-1 -12 -5 -53.5 q-4 -41.5 -4 -77.5 l0 -112 q77 85 153.5 174.5 q76.5 89.5 103.5 132.5 q16 26 25.5 43.5 q9.5 17.5 8.5 30.5 q25 -14 40.5 -33.5 q15.5 -19.5 15.5 -39.5 q0 -19 -18 -39 l-25 -28 q-98 -111 -165 -176 q42 -80 119 -197.5 q77 -117.5 131 -172.5 Z" /><glyph glyph-name="L" unicode="L" d="M32 69 q12 1 17.5 8 q5.5 7 5.5 23 q3 85 5 199.5 q2 114.5 2 202.5 l0 147 q0 19 -7 42 q-7 23 -15 30 q4 1 12 1 q29 0 61 -15.5 q32 -15.5 45 -35.5 q-5 -22 -10.5 -67.5 q-5.5 -45.5 -5.5 -89.5 l0 -424 q0 -5 3.5 -8 q3.5 -3 8.5 -3 q102 0 265 19 q25 3 48 -9.5 q23 -12.5 37.5 -32.5 q14.5 -20 14.5 -36 q0 -20 -22 -20 q-56 14 -146 14 q-69 0 -143 -7 q-74 -7 -120 -16 q-25 -4 -45 26.5 q-20 30.5 -26 51.5 l15 0 Z" /><glyph glyph-name="M" unicode="M" d="M601 712 q4 1 12 1 q29 0 61 -15.5 q32 -15.5 45 -35.5 q-4 -48 -7 -72 q-1 -12 -5 -53.5 q-4 -41.5 -4 -77.5 l0 -459 q0 -12 -8 -12 q-4 0 -12 4 q-8 4 -11 6 q-26 14 -49 34.5 q-23 20.5 -20 42.5 q20 103 20 250 l0 285 q-24 -68 -81.5 -229.5 q-57.5 -161.5 -83.5 -233.5 q-32 -88 -34 -95 q-13 -37 -55 -37 q-19 0 -37.5 7.5 q-18.5 7.5 -23.5 15.5 l-3 8 q-26 86 -94 277 q-54 152 -78 227 q-5 -52 -5 -91 l0 -459 q0 -12 -8 -12 q-4 0 -12 4 q-8 4 -11 6 q-26 14 -49 34.5 q-23 20.5 -20 42.5 q20 103 20 250 l0 315 q0 19 -7 42 q-7 23 -15 30 q4 1 12 1 q29 0 61 -15.5 q32 -15.5 45 -35.5 l0 -5 l0 -1 l227 -527 q20 48 166 420 l64 163 l7 -10 q-2 5 -7 10 Z" /><glyph glyph-name="N" unicode="N" d="M510 712 q4 1 12 1 q29 0 61 -15.5 q32 -15.5 45 -35.5 q-4 -48 -7 -72 q-1 -12 -5 -53.5 q-4 -41.5 -4 -77.5 l0 -459 q0 -12 -8 -12 q-4 0 -12 4 q-8 4 -11 6 q-26 14 -49 34.5 q-23 20.5 -20 42.5 l1 7 q-27 49 -66 109 q-39 60 -102 153 q-43 63 -85 126 q-42 63 -65 105 q-8 -78 -8 -116 l0 -459 q0 -12 -8 -12 q-4 0 -12 4 q-8 4 -11 6 q-26 14 -49 34.5 q-23 20.5 -20 42.5 q20 103 20 250 l0 315 q0 19 -7 42 q-7 23 -15 30 q4 1 12 1 q29 0 61 -15.5 q32 -15.5 45 -35.5 l-1 -11 l327 -434 q3 54 3 108 l0 315 q0 19 -7 42 q-7 23 -15 30 Z" /><glyph glyph-name="O" unicode="O" d="M30 344 q0 -97 36.5 -175 q36.5 -78 104.5 -123.5 q68 -45.5 159 -45.5 q91 0 159 45.5 q68 45.5 104.5 123.5 q36.5 78 36.5 175 q0 98 -34 179.5 q-34 81.5 -101.5 129 q-67.5 47.5 -164.5 47.5 q-97 0 -164.5 -47.5 q-67.5 -47.5 -101.5 -129 q-34 -81.5 -34 -179.5 ZM110 344 q0 115 54.5 195.5 q54.5 80.5 165.5 80.5 q111 0 165.5 -80.5 q54.5 -80.5 54.5 -195.5 q0 -77 -26 -137 q-26 -60 -75 -93.5 q-49 -33.5 -119 -33.5 q-70 0 -119 33.5 q-49 33.5 -75 93.5 q-26 60 -26 137 Z" /><glyph glyph-name="Oslash" unicode="Ø" d="M370 0 q-91 0 -159 45.5 q-68 45.5 -104.5 123.5 q-36.5 78 -36.5 175 q0 98 34 179.5 q34 81.5 101.5 129 q67.5 47.5 164.5 47.5 q97 0 164.5 -47.5 q67.5 -47.5 101.5 -129 q34 -81.5 34 -179.5 q0 -97 -36.5 -175 q-36.5 -78 -104.5 -123.5 q-68 -45.5 -159 -45.5 ZM370 80 q70 0 119 33.5 q49 33.5 75 93.5 q26 60 26 137 q0 115 -54.5 195.5 q-54.5 80.5 -165.5 80.5 q-111 0 -165.5 -80.5 q-54.5 -80.5 -54.5 -195.5 q0 -77 26 -137 q26 -60 75 -93.5 q49 -33.5 119 -33.5 ZM557 700 l80 0 l-499 -697 l-80 0 l499 697 Z" /><glyph glyph-name="P" unicode="P" d="M274 696 q94 0 162 -15 q68 -15 110.5 -59.5 q42.5 -44.5 42.5 -127.5 q0 -84 -40.5 -131 q-40.5 -47 -110.5 -64.5 q-70 -17.5 -171 -17.5 l-75 0 q-17 0 -17 32 q0 17 5 31 q5 14 12 14 l75 0 q87 0 136 7.5 q49 7.5 79 36.5 q30 29 30 92 q0 55 -28 82.5 q-28 27.5 -69.5 35 q-41.5 7.5 -102.5 7.5 l-38 0 l-90 0 q-1 -14 -5 -47 q-8 -82 -8 -123 l0 -458 q0 -12 -8 -12 q-4 0 -12 4 q-8 4 -11 6 q-26 14 -49 34.5 q-23 20.5 -20 42.5 q20 103 20 250 l0 314 q0 19 -7 42 q-7 23 -15 30 q4 1 12 1 q21 0 39 -7 l154 0 Z" /><glyph glyph-name="Q" unicode="Q" d="M330 0 q-91 0 -159 45.5 q-68 45.5 -104.5 123.5 q-36.5 78 -36.5 175 q0 98 34 179.5 q34 81.5 101.5 129 q67.5 47.5 164.5 47.5 q97 0 164.5 -47.5 q67.5 -47.5 101.5 -129 q34 -81.5 34 -179.5 q0 -97 -36.5 -175 q-36.5 -78 -104.5 -123.5 q-68 -45.5 -159 -45.5 ZM330 80 q70 0 119 33.5 q49 33.5 75 93.5 q26 60 26 137 q0 115 -54.5 195.5 q-54.5 80.5 -165.5 80.5 q-111 0 -165.5 -80.5 q-54.5 -80.5 -54.5 -195.5 q0 -77 26 -137 q26 -60 75 -93.5 q49 -33.5 119 -33.5 ZM491 -106 q-44 78 -71.5 137.5 q-27.5 59.5 -27.5 80.5 q0 9 6 9 q9 0 24 -14 l132 -111 q14 -11 19.5 -17.5 q5.5 -6.5 5.5 -14.5 q0 -5 -5 -17 l-10 -19 q-13 -28 -24 -43 q-11 -15 -22 -15 q-13 0 -27 24 Z" /><glyph glyph-name="R" unicode="R" d="M580 37 q9 -9 15.5 -17 q6.5 -8 6.5 -12 q0 -8 -27 -8 l-95 0 q-36 0 -53 40 l-61 141 l-44 101 q-18 -1 -55 -1 l-75 0 q-17 0 -17 32 q0 17 5 31 q5 14 12 14 l75 0 q87 0 136 7.5 q49 7.5 79 36.5 q30 29 30 92 q0 55 -28 82.5 q-28 27.5 -69.5 35 q-41.5 7.5 -102.5 7.5 l-38 0 l-90 0 q-1 -14 -5 -47 q-8 -82 -8 -123 l0 -458 q0 -12 -8 -12 q-4 0 -12 4 q-8 4 -11 6 q-26 14 -49 34.5 q-23 20.5 -20 42.5 q20 103 20 250 l0 314 q0 19 -7 42 q-7 23 -15 30 q4 1 12 1 q21 0 39 -7 l154 0 q94 0 162 -15 q68 -15 110.5 -59.5 q42.5 -44.5 42.5 -127.5 q0 -91 -47.5 -138.5 q-47.5 -47.5 -135.5 -64.5 q37 -68 73.5 -125 q36.5 -57 82.5 -109 l18 -20 Z" /><glyph glyph-name="S" unicode="S" d="M354 0 q-185 -6 -239 78 q-31 43 -36.5 58.5 q-5.5 15.5 -5.5 47.5 q0 22 2.5 33.5 q2.5 11.5 9.5 38.5 q2 8 3 12.5 q1 4.5 3 13.5 q1 7 2 8 q1 1 3 1 q3 0 4.5 -4 q1.5 -4 3.5 -12 q12 -54 26.5 -82 q14.5 -28 42.5 -59 q42 -55 181 -53 l0 -81 ZM77 540 q9 144 203 158 l0 -80 q-115 1 -123 -78 l-80 0 ZM280 698 q142 7 230 -84 q18 -23 21.5 -34.5 q3.5 -11.5 3.5 -30.5 q0 -32 -10 -43 q-10 -11 -30 -11 q-9 0 -13.5 2 q-4.5 2 -11.5 12 q-40 109 -190 109 l0 80 ZM157 540 q-2 -42 25 -69.5 q27 -27.5 65.5 -42.5 q38.5 -15 96.5 -31 l40 -12 q94 -30 138 -72 q44 -42 44 -112 q0 -95 -59 -148 q-59 -53 -153 -53 l0 81 q30 0 60.5 12.5 q30.5 12.5 50.5 36 q20 23.5 20 55.5 q0 36 -16 59 q-16 23 -44.5 36.5 q-28.5 13.5 -76.5 27.5 l-21 6 q-74 20 -126.5 42.5 q-52.5 22.5 -90.5 67.5 q-38 45 -33 116 l80 0 Z" /><glyph glyph-name="T" unicode="T" d="M443 704 q25 2 47 -11.5 q22 -13.5 35 -34 q13 -20.5 13 -36.5 q0 -10 -6 -15.5 q-6 -5.5 -17 -4.5 q-54 19 -156 19 l-32 0 q4 -4 10 -12 q-4 -48 -7 -72 q-1 -12 -5 -53.5 q-4 -41.5 -4 -77.5 l0 -394 q0 -12 -8 -12 q-4 0 -12 4 q-8 4 -11 6 q-26 14 -49 34.5 q-23 20.5 -20 42.5 q20 103 20 250 l0 250 q0 17 -4 30 q-85 -7 -153 -15 q-25 -3 -42.5 27 q-17.5 30 -24.5 55 l48 0 q212 0 378 20 Z" /><glyph glyph-name="U" unicode="U" d="M502 701 q4 1 12 1 q29 0 61 -15.5 q32 -15.5 45 -35.5 q-4 -48 -7 -72 q-1 -12 -5 -53.5 q-4 -41.5 -4 -77.5 l0 -144 q0 -130 -37.5 -197 q-37.5 -67 -93.5 -87 q-56 -20 -131 -20 q-75 0 -131 20 q-56 20 -93.5 87 q-37.5 67 -37.5 197 l0 325 q0 19 -7 42 q-7 23 -15 30 q4 1 12 1 q29 0 61 -15.5 q32 -15.5 45 -35.5 q-4 -48 -7 -72 q-1 -12 -5 -53.5 q-4 -41.5 -4 -77.5 l0 -144 q0 -128 50.5 -176 q50.5 -48 131.5 -48 q81 0 131.5 48 q50.5 48 50.5 176 l0 325 q0 19 -7 42 q-7 23 -15 30 Z" /><glyph glyph-name="V" unicode="V" d="M588 711 q4 1 9 2 q5 1 10 1 q14 0 9 -14 l-183 -492 q-28 -72 -67 -203 q-3 -12 -18 -18 q-15 -6 -34 -5 q-20 -1 -35 5 q-15 6 -18 18 q-40 130 -67 202 l-186 491 q-1 3 -1 7 q0 7 11 7 q6 0 18 -2 q84 -13 91 -49 q18 -106 70 -240 l116 -309 l116 310 q49 125 68 241 q5 22 35 33.5 q30 11.5 56 14.5 Z" /><glyph glyph-name="W" unicode="W" d="M802 719 q2 13 17.5 20 q15.5 7 36.5 7 q17 0 31.5 -5.5 q14.5 -5.5 19.5 -14.5 q-9 -5 -16 -20.5 q-7 -15.5 -15 -42.5 l-110 -364 q-42 -138 -52 -245 q-3 -22 -28.5 -33 q-25.5 -11 -59.5 -20 q-16 -4 -22 -4 q-9 0 -8 8 q-6 63 -22 145 q-16 82 -33 139 l-90 298 l-90 -298 q-13 -42 -37 -141 q-11 -53 -25 -104 q-5 -34 -78 -53 q-20 -5 -23 -5 q-6 0 -7 5 q-6 64 -23 152 q-17 88 -34 145 l-110 364 q-8 27 -15 42.5 q-7 15.5 -16 20.5 q5 9 19.5 14.5 q14.5 5.5 31.5 5.5 q21 0 36.5 -7 q15.5 -7 17.5 -20 q23 -98 54 -207 l93 -325 l98 326 q26 86 54 207 q2 13 18 20 q16 7 36 7 q20 0 36 -7 q16 -7 18 -20 q23 -98 54 -207 l90 -318 l99 328 q26 86 54 207 Z" /><glyph glyph-name="X" unicode="X" d="M598 17 q3 -6 3 -9 q0 -5 -6 -7 q-6 -2 -12.5 -2.5 q-6.5 -0.5 -8.5 -0.5 l-23 -1 q-65 0 -77 28 q-40 97 -121 219 l-38 57 l-45 -63 q-81 -113 -129 -214 q-12 -25 -66 -25 q-20 0 -34 2 q-13 1 -20.5 3 q-7.5 2 -7.5 8 q0 4 4 9 l252 350 l-170 258 q-10 15 -28.5 30.5 q-18.5 15.5 -29.5 17.5 q15 13 40.5 21 q25.5 8 50.5 8 q20 0 35 -6 q18 -34 32 -62 q43 -83 66 -117 l53 -81 l62 86 q26 37 70 115 l35 60 q15 5 30 5 q26 0 53 -9 q27 -9 42 -23 q-11 -2 -30 -17 q-19 -15 -30 -29 l-185 -258 l233 -353 Z" /><glyph glyph-name="Y" unicode="Y" d="M490 696 q15 7 40 7 q24 0 48 -7 q24 -7 39 -19 q-11 -3 -29.5 -19 q-18.5 -16 -27.5 -31 l-205 -332 l0 -295 q0 -12 -8 -12 q-4 0 -12 4 q-8 4 -11 6 q-26 14 -49 34.5 q-23 20.5 -20 42.5 q18 95 20 223 l-218 329 q-10 15 -28.5 30.5 q-18.5 15.5 -29.5 17.5 q15 13 40.5 21 q25.5 8 50.5 8 q20 0 35 -6 q18 -34 32 -62 q43 -83 66 -117 l92 -139 l83 134 q26 41 62 119 q14 32 30 63 Z" /><glyph glyph-name="Z" unicode="Z" d="M462 81 q25 2 47 -11.5 q22 -13.5 35 -34 q13 -20.5 13 -36.5 q0 -10 -6 -15.5 q-6 -5.5 -17 -4.5 q-58 23 -174 23 q-56 0 -109 -4.5 q-53 -4.5 -124 -11.5 l-31 -3 q-25 -3 -42.5 27 q-17.5 30 -24.5 55 l40 0 l-40 0 q10 4 16.5 11 q6.5 7 11.5 14 q5 7 7 9 l380 531 q6 8 6 9 q0 2 -3 2 q-5 0 -9 -1 q-15 -2 -63 -4 q-81 -4 -138 -9 q-57 -5 -118 -21 q-10 -2 -15 -2 q-30 0 -46 27.5 q-16 27.5 -16 54.5 q0 8 1 10 q26 -7 88 -7 q60 0 193 9 q133 9 149 12 q9 1 16 4 q7 3 9 4 l69 -89 q-36 -19 -193 -218.5 q-157 -199.5 -257 -335.5 q-6 -8 2 -11 q220 2 343 17 ZM124 64 l-1 0 l1 0 Z" /><glyph glyph-name="a" unicode="a" d="M505 279 q0 -278 -233 -283 l0 80 q153 0 153 203 q0 204 -153 204 q-117 0 -163 -117 q-5 -6 -7.5 -7.5 q-2.5 -1.5 -8.5 -1.5 q-21 0 -33 17 q-12 17 -12 53 q0 13 1.5 19.5 q1.5 6.5 9.5 18.5 q63 98 213 98 q233 0 233 -284 ZM505 295 l0 -288 q0 -12 -8 -12 q-4 0 -12 4 q-8 4 -11 6 q-26 14 -49 34.5 q-23 20.5 -20 42.5 q17 87 19 197 q-26 -15 -57.5 -21 q-31.5 -6 -88.5 -14 q-56 -7 -86 -14 q-30 -7 -50.5 -25 q-20.5 -18 -20.5 -54 q0 -75 151 -75 l0 -80 q-103 0 -167 38 q-64 38 -64 129 q0 68 50.5 103 q50.5 35 150.5 55 q34 6 50 8 q43 7 66.5 13.5 q23.5 6.5 39.5 22 q16 15.5 16 45.5 l70 0 q3 -59 -21 -96 l42 -19 Z" /><glyph glyph-name="b" unicode="b" d="M310 0 q-63 0 -114 40.5 q-51 40.5 -84 103 q-33 62.5 -33 136.5 q0 76 27 142.5 q27 66.5 82 107 q55 40.5 122 40.5 q66 0 125 -38.5 q59 -38.5 82 -107 q23 -68.5 23 -144.5 q0 -74 -31 -139.5 q-31 -65.5 -84.5 -103 q-53.5 -37.5 -114.5 -37.5 ZM310 80 q48 0 81.5 25 q33.5 25 51 70.5 q17.5 45.5 17.5 104.5 q0 89 -37 149.5 q-37 60.5 -113 60.5 q-76 0 -113.5 -60.5 q-37.5 -60.5 -37.5 -149.5 q0 -59 17.5 -104.5 q17.5 -45.5 51 -70.5 q33.5 -25 82.5 -25 ZM120 -11 q-26 14 -49 34.5 q-23 20.5 -20 42.5 q20 103 20 250 l0 371 q0 19 -7 42 q-7 23 -15 30 q4 1 12 1 q29 0 61 -15.5 q32 -15.5 45 -35.5 q-4 -48 -7 -72 q-1 -12 -5 -53.5 q-4 -41.5 -4 -77.5 l0 -515 q0 -12 -8 -12 q-4 0 -12 4 q-8 4 -11 6 Z" /><glyph glyph-name="c" unicode="c" d="M65 279 q0 275 233 284 q150 6 213 -98 q7 -12 8.5 -18.5 q1.5 -6.5 1.5 -19.5 q0 -37 -12 -53.5 q-12 -16.5 -32 -16.5 q-6 0 -9 1.5 q-3 1.5 -7 7.5 q-46 117 -163 117 q-153 0 -153 -204 q0 -196 153 -203 q112 -5 146 59 q16 30 18.5 41.5 q2.5 11.5 15.5 58.5 q2 6 3.5 7.5 q1.5 1.5 5.5 1.5 q3 0 5 -1 q2 -1 5 -8 q11 -21 18.5 -35 q7.5 -14 7.5 -51 q0 -24 -3.5 -37.5 q-3.5 -13.5 -21.5 -44.5 q-44 -74 -200 -71 q-233 4 -233 283 Z" /><glyph glyph-name="d" unicode="d" d="M275 0 q-61 0 -114.5 37.5 q-53.5 37.5 -84.5 103 q-31 65.5 -31 139.5 q0 76 23 144.5 q23 68.5 82 107 q59 38.5 125 38.5 q67 0 122 -40.5 q55 -40.5 82 -107 q27 -66.5 27 -142.5 q0 -74 -33 -136.5 q-33 -62.5 -84 -103 q-51 -40.5 -114 -40.5 ZM275 80 q49 0 82.5 25 q33.5 25 51 70.5 q17.5 45.5 17.5 104.5 q0 89 -37.5 149.5 q-37.5 60.5 -113.5 60.5 q-76 0 -113 -60.5 q-37 -60.5 -37 -149.5 q0 -59 17.5 -104.5 q17.5 -45.5 51 -70.5 q33.5 -25 81.5 -25 ZM479 -11 q-26 14 -49 34.5 q-23 20.5 -20 42.5 q20 103 20 250 l0 371 q0 19 -7 42 q-7 23 -15 30 q4 1 12 1 q29 0 61 -15.5 q32 -15.5 45 -35.5 q-4 -48 -7 -72 q-1 -12 -5 -53.5 q-4 -41.5 -4 -77.5 l0 -515 q0 -12 -8 -12 q-5 0 -12.5 4 q-7.5 4 -10.5 6 Z" /><glyph glyph-name="e" unicode="e" d="M44 279 q0 284 233 284 q237 0 261 -288 q1 -16 -1 -19.5 q-2 -3.5 -11 -3.5 q-21 0 -44.5 23.5 q-23.5 23.5 -42.5 49.5 q-20 158 -162 158 q-153 0 -153 -204 q0 -203 153 -203 q79 -4 133 44 q25 22 34.5 32 q9.5 10 34.5 48 q2 4 4 5 q2 1 4 1 q4 0 6 -2 q2 -2 3 -11 q1 -8 1.5 -12.5 q0.5 -4.5 0.5 -14.5 q0 -37 -6 -61 q-6 -24 -64 -67 q-53 -39 -151 -42 q-233 5 -233 283 ZM149 247 q-17 -1 -31 16 q-14 17 -22.5 37.5 q-8.5 20.5 -10.5 30.5 q39 -2 114 -2 q138 0 248 12 q27 1 48 -9.5 q21 -10.5 32.5 -27 q11.5 -16.5 11.5 -32.5 q0 -13 -9 -22 q-60 5 -128 5 q-101 0 -253 -8 Z" /><glyph glyph-name="f" unicode="f" d="M240 559 q20 0 37 -11.5 q17 -11.5 27 -28 q10 -16.5 10 -29.5 q0 -19 -20 -16 q-61 9 -105 10 l0 -9 l0 -474 q0 -12 -8 -12 q-4 0 -12 4 q-8 4 -11 6 q-26 14 -49 34.5 q-23 20.5 -20 42.5 q20 103 20 250 l0 149 l0 9 q-36 -3 -65 -11 q-21 -1 -33 23.5 q-12 24.5 -17 45.5 l114 2 l0 45 q0 71 10.5 105 q10.5 34 45 49.5 q34.5 15.5 109.5 15.5 q18 0 30 -13 q12 -13 12 -30 q0 -15 -10 -25.5 q-10 -10.5 -30 -11.5 q-43 -3 -59 -10 q-16 -7 -21 -31.5 q-5 -24.5 -6 -87.5 q24 3 51 9 Z" /><glyph glyph-name="g" unicode="g" d="M269 27 q-63 0 -114 39 q-51 39 -84 98.5 q-33 59.5 -33 129.5 q0 72 27 135.5 q27 63.5 82 102 q55 38.5 122 38.5 q66 0 125 -36.5 q59 -36.5 82 -102 q23 -65.5 23 -137.5 q0 -70 -31 -132.5 q-31 -62.5 -84.5 -98.5 q-53.5 -36 -114.5 -36 ZM269 107 q48 0 81.5 22 q33.5 22 51 65.5 q17.5 43.5 17.5 99.5 q0 85 -37 140.5 q-37 55.5 -113 55.5 q-76 0 -113.5 -55.5 q-37.5 -55.5 -37.5 -140.5 q0 -56 17.5 -99.5 q17.5 -43.5 51 -65.5 q33.5 -22 82.5 -22 ZM132 -22 q19 -42 53 -66 q34 -24 76 -24 q72 0 118 48.5 q46 48.5 46 144.5 l0 429 q0 19 -7 42 q-7 23 -15 30 q4 1 12 1 q29 0 61 -15.5 q32 -15.5 45 -35.5 q-4 -48 -7 -72 q-1 -12 -5 -53.5 q-4 -41.5 -4 -77.5 l0 -248 q0 -133 -57 -203.5 q-57 -70.5 -180 -70.5 q-91 0 -149 42.5 q-58 42.5 -77 128.5 l90 0 Z" /><glyph glyph-name="h" unicode="h" d="M138 476 q35 43 89 69.5 q54 26.5 107 26.5 q71 0 117 -49.5 q46 -49.5 46 -152.5 l0 -358 q0 -12 -8 -12 q-4 0 -12 4 q-8 4 -11 6 q-26 14 -49 34.5 q-23 20.5 -20 42.5 q20 103 20 250 l0 33 q0 28 -19.5 56 q-19.5 28 -51 45.5 q-31.5 17.5 -65.5 17.5 q-46 0 -84.5 -37.5 q-38.5 -37.5 -58.5 -119.5 l0 -320 q0 -12 -8 -12 q-4 0 -12 4 q-8 4 -11 6 q-26 14 -49 34.5 q-23 20.5 -20 42.5 q20 103 20 250 l0 351 q0 19 -7 42 q-7 23 -15 30 q4 1 12 1 q29 0 61 -15.5 q32 -15.5 45 -35.5 q-4 -48 -7 -72 q-1 -12 -5 -53.5 q-4 -41.5 -4 -77.5 l0 -31 Z" /><glyph glyph-name="i" unicode="i" d="M75 663 q-10 18 -16.5 32.5 q-6.5 14.5 -6.5 19.5 q0 6 7 6 q10 0 34 -9 l56 -21 q23 -9 23 -24 q0 -5 -3 -14 q-14 -34 -23.5 -52 q-9.5 -18 -20.5 -18 q-11 0 -19 19 l-31 61 ZM55 548 q4 1 12 1 q29 0 61 -15.5 q32 -15.5 45 -35.5 q-4 -48 -7 -72 q-1 -12 -5 -53.5 q-4 -41.5 -4 -77.5 l0 -283 q0 -12 -8 -12 q-4 0 -12 4 q-8 4 -11 6 q-26 14 -49 34.5 q-23 20.5 -20 42.5 q20 103 20 250 l0 139 q0 19 -7 42 q-7 23 -15 30 Z" /><glyph glyph-name="j" unicode="j" d="M132 687 q23 -9 23 -24 q0 -5 -3 -14 q-14 -34 -23.5 -52 q-9.5 -18 -20.5 -18 q-11 0 -19 19 l-31 61 q-10 18 -16.5 32.5 q-6.5 14.5 -6.5 19.5 q0 6 7 6 q10 0 34 -9 l56 -21 ZM-27 -68 q47 3 62 9 q15 6 19.5 32 q4.5 26 4.5 101 l0 52 l0 362 q0 19 -7 42 q-7 23 -15 30 q4 1 12 1 q29 0 61 -15.5 q32 -15.5 45 -35.5 q-4 -48 -7 -72 q-1 -12 -5 -53.5 q-4 -41.5 -4 -77.5 l0 -181 l1 -117 q0 -67 -10.5 -98.5 q-10.5 -31.5 -45 -45 q-34.5 -13.5 -109.5 -13.5 q-18 0 -30 13 q-12 13 -12 30 q0 15 10 25.5 q10 10.5 30 11.5 Z" /><glyph glyph-name="k" unicode="k" d="M438 42 q15 -15 20 -21 q16 -13 16 -18 q0 -3 -6.5 -3.5 q-6.5 -0.5 -16 0 q-9.5 0.5 -19.5 0.5 l-56 0 q-19 0 -28.5 5.5 q-9.5 5.5 -18.5 24.5 q-71 140 -131 272 q-30 -25 -68 -51 l0 -251 q0 -12 -8 -12 q-4 0 -12 4 q-8 4 -11 6 q-26 14 -49 34.5 q-23 20.5 -20 42.5 q20 103 20 250 l0 359 q0 19 -7 42 q-7 23 -15 30 q4 1 12 1 q29 0 61 -15.5 q32 -15.5 45 -35.5 q-4 -48 -7 -72 q-1 -12 -5 -53.5 q-4 -41.5 -4 -77.5 l0 -196 q161 171 201 234 q16 26 25.5 43.5 q9.5 17.5 8.5 30.5 q25 -14 40.5 -33.5 q15.5 -19.5 15.5 -39.5 q0 -19 -18 -39 l-16 -17 q-85 -94 -151 -152 q116 -205 202 -292 Z" /><glyph glyph-name="l" unicode="l" d="M57 750 q4 1 12 1 q29 0 61 -15.5 q32 -15.5 45 -35.5 q-4 -48 -7 -72 q-1 -12 -5 -53.5 q-4 -41.5 -4 -77.5 l0 -485 q0 -12 -8 -12 q-4 0 -12 4 q-8 4 -11 6 q-26 14 -49 34.5 q-23 20.5 -20 42.5 q20 103 20 250 l0 341 q0 19 -7 42 q-7 23 -15 30 Z" /><glyph glyph-name="m" unicode="m" d="M467 470 q31 45 81 73.5 q50 28.5 100 28.5 q63 0 104.5 -49.5 q41.5 -49.5 41.5 -152.5 l0 -358 q0 -12 -8 -12 q-4 0 -12 4 q-8 4 -11 6 q-26 14 -49 34.5 q-23 20.5 -20 42.5 q20 103 20 250 l0 53 q0 20 -16.5 43 q-16.5 23 -43.5 38.5 q-27 15.5 -55 15.5 q-39 0 -71.5 -33 q-32.5 -33 -50.5 -107 l0 -335 q0 -12 -8 -12 q-4 0 -12 4 q-8 4 -11 6 q-26 14 -49 34.5 q-23 20.5 -20 42.5 q20 103 20 250 l0 53 q0 20 -15.5 42.5 q-15.5 22.5 -40 38 q-24.5 15.5 -51.5 15.5 q-50 0 -87 -65.5 q-37 -65.5 -43 -214.5 l0 -194 q0 -12 -8 -12 q-4 0 -12 4 q-8 4 -11 6 q-26 14 -49 34.5 q-23 20.5 -20 42.5 q20 103 20 250 l0 166 q0 19 -7 42 q-7 23 -15 30 q4 1 12 1 q29 0 61 -15.5 q32 -15.5 45 -35.5 l-3 -34 q25 36 61 56 q36 20 76 20 q40 0 79 -21.5 q39 -21.5 72 -65.5 l6 -10 Z" /><glyph glyph-name="n" unicode="n" d="M140 487 q35 35 83 55 q48 20 97 20 q72 0 119.5 -47.5 q47.5 -47.5 47.5 -144.5 l0 -358 q0 -12 -8 -12 q-4 0 -12 4 q-8 4 -11 6 q-26 14 -49 34.5 q-23 20.5 -20 42.5 q20 103 20 250 l0 33 q0 25 -20 52 q-20 27 -52 44.5 q-32 17.5 -66 17.5 q-46 0 -83.5 -36.5 q-37.5 -36.5 -57.5 -116.5 l0 -2 l0 -317 q0 -12 -8 -12 q-4 0 -12 4 q-8 4 -11 6 q-26 14 -49 34.5 q-23 20.5 -20 42.5 q20 103 20 250 l0 173 q0 19 -7 42 q-7 23 -15 30 q4 1 12 1 q29 0 61 -15.5 q32 -15.5 45 -35.5 l-4 -45 Z" /><glyph glyph-name="o" unicode="o" d="M47 279 q0 284 233 284 l0 -80 q-153 0 -153 -204 q0 -203 153 -203 l0 -80 q-233 5 -233 283 ZM513 279 q0 -278 -233 -283 l0 80 q153 0 153 203 q0 204 -153 204 l0 80 q233 0 233 -284 Z" /><glyph glyph-name="p" unicode="p" d="M309 0 q-63 0 -114 40.5 q-51 40.5 -84 103 q-33 62.5 -33 136.5 q0 76 27 142.5 q27 66.5 82 107 q55 40.5 122 40.5 q66 0 125 -38.5 q59 -38.5 82 -107 q23 -68.5 23 -144.5 q0 -74 -31 -139.5 q-31 -65.5 -84.5 -103 q-53.5 -37.5 -114.5 -37.5 ZM309 80 q48 0 81.5 25 q33.5 25 51 70.5 q17.5 45.5 17.5 104.5 q0 89 -37 149.5 q-37 60.5 -113 60.5 q-76 0 -113.5 -60.5 q-37.5 -60.5 -37.5 -149.5 q0 -59 17.5 -104.5 q17.5 -45.5 51 -70.5 q33.5 -25 82.5 -25 ZM119 -138 q-26 14 -49 34.5 q-23 20.5 -20 42.5 q20 103 20 250 l0 304 q0 19 -7 42 q-7 23 -15 30 q4 1 12 1 q29 0 61 -15.5 q32 -15.5 45 -35.5 q-4 -48 -7 -72 q-1 -12 -5 -53.5 q-4 -41.5 -4 -77.5 l0 -448 q0 -12 -8 -12 q-4 0 -12 4 q-8 4 -11 6 Z" /><glyph glyph-name="q" unicode="q" d="M275 0 q-63 0 -114 40.5 q-51 40.5 -84 103 q-33 62.5 -33 136.5 q0 76 27 142.5 q27 66.5 82 107 q55 40.5 122 40.5 q66 0 125 -38.5 q59 -38.5 82 -107 q23 -68.5 23 -144.5 q0 -74 -31 -139.5 q-31 -65.5 -84.5 -103 q-53.5 -37.5 -114.5 -37.5 ZM275 80 q48 0 81.5 25 q33.5 25 51 70.5 q17.5 45.5 17.5 104.5 q0 89 -37 149.5 q-37 60.5 -113 60.5 q-76 0 -113.5 -60.5 q-37.5 -60.5 -37.5 -149.5 q0 -59 17.5 -104.5 q17.5 -45.5 51 -70.5 q33.5 -25 82.5 -25 ZM489 -138 q-26 14 -49 34.5 q-23 20.5 -20 42.5 q20 103 20 250 l0 304 q0 19 -7 42 q-7 23 -15 30 q4 1 12 1 q29 0 61 -15.5 q32 -15.5 45 -35.5 q-4 -48 -7 -72 q-1 -12 -5 -53.5 q-4 -41.5 -4 -77.5 l0 -448 q0 -12 -8 -12 q-4 0 -12 4 q-8 4 -11 6 Z" /><glyph glyph-name="r" unicode="r" d="M131 365 q41 250 222 167 q17 -14 20 -22 q3 -8 3 -22 q0 -25 -9.5 -35.5 q-9.5 -10.5 -29.5 -10.5 q-6 0 -8.5 1 q-2.5 1 -8.5 4 q-185 80 -164 -246 l-25 164 ZM125 -5 q-26 14 -49 34.5 q-23 20.5 -20 42.5 q20 103 20 250 l0 176 q0 19 -7 42 q-7 23 -15 30 q4 1 12 1 q29 0 61 -15.5 q32 -15.5 45 -35.5 q-4 -48 -7 -72 q-1 -12 -5 -53.5 q-4 -41.5 -4 -77.5 l0 -320 q0 -12 -8 -12 q-4 0 -12 4 q-8 4 -11 6 Z" /><glyph glyph-name="s" unicode="s" d="M280 -22 q-85 -2 -146 30 q-71 37 -81 67 q-10 30 -19 113 q0 2 0 2.5 q0 0.5 0 1.5 q0 5 0.5 6 q0.5 1 2.5 1 q3 0 5.5 -3 q2.5 -3 6.5 -9 q30 -47 56.5 -68 q26.5 -21 60.5 -37 q41 -19 114 -24 l0 -80 ZM56 401 q9 125 203 139 l0 -80 q-115 1 -123 -59 l-80 0 ZM259 540 q130 -9 170 -74 q15 -26 18 -38 q3 -12 3 -31 q0 -32 -8 -42 q-8 -10 -27 -10 q-9 0 -13.5 2.5 q-4.5 2.5 -12.5 13.5 q-16 94 -130 99 l0 80 ZM136 401 q0 -33 18 -52 q18 -19 44.5 -27 q26.5 -8 71.5 -16 l44 -9 q83 -19 118.5 -42.5 q35.5 -23.5 41.5 -47.5 q6 -24 6 -74 q0 -43 -26 -78.5 q-26 -35.5 -71.5 -56 q-45.5 -20.5 -102.5 -20.5 l0 80 q55 0 87.5 15 q32.5 15 32.5 60 q0 23 -8.5 37 q-8.5 14 -34.5 26 q-26 12 -79 24 l-32 7 q-63 13 -100.5 27.5 q-37.5 14.5 -63.5 49 q-26 34.5 -26 97.5 l80 0 Z" /><glyph glyph-name="t" unicode="t" d="M240 80 q20 -1 30 -11.5 q10 -10.5 10 -25.5 q0 -17 -12 -30 q-12 -13 -30 -13 q-72 0 -104 16 q-32 16 -41 52.5 q-9 36.5 -9 117.5 l0 88 l0 211 l-22 -6 q-21 -1 -33 23.5 q-12 24.5 -17 45.5 l72 3 l0 53 q0 19 -7 42 q-7 23 -15 30 q4 1 12 1 q29 0 61 -15.5 q32 -15.5 45 -35.5 q-1 -21 -5 -58 l17 4 q20 0 37 -11.5 q17 -11.5 27 -28 q10 -16.5 10 -29.5 q0 -19 -20 -16 q-40 6 -79 8 q-3 -36 -3 -72 l0 -149 q0 -102 4.5 -138 q4.5 -36 17.5 -44.5 q13 -8.5 54 -11.5 Z" /><glyph glyph-name="u" unicode="u" d="M52 579 q4 1 12 1 q29 0 61 -15.5 q32 -15.5 45 -35.5 q-4 -51 -7 -73 q-8 -86 -9 -130 l-2 -134 q0 -35 16 -65.5 q16 -30.5 43 -48.5 q27 -18 57 -18 q32 0 62 23.5 q30 23.5 51 72.5 l3 28 q4 27 5 45.5 q1 18.5 1 48.5 l1 229 q0 19 -7 42 q-7 23 -15 30 q4 1 12 1 q29 0 61 -15.5 q32 -15.5 45 -35.5 q-4 -48 -7 -72 q-1 -12 -5 -53.5 q-4 -41.5 -4 -77.5 l-1 -314 q0 -12 -8 -12 q-4 0 -12 4 q-8 4 -11 6 q-41 24 -58 45 q-31 -27 -69.5 -42 q-38.5 -15 -77.5 -15 q-69 0 -115.5 48.5 q-46.5 48.5 -45.5 145.5 l1 315 q0 19 -7 42 q-7 23 -15 30 Z" /><glyph glyph-name="v" unicode="v" d="M503 574 q12 2 18 2 q15 0 10 -14 l-134 -354 q-27 -72 -67 -202 q-3 -12 -18 -18 q-15 -6 -35 -5 q-20 -1 -35 5 q-15 6 -18 18 q-40 130 -67 202 l-134 354 q-1 3 -1 7 q0 7 11 7 q6 0 18 -2 q36 -8 61.5 -17.5 q25.5 -9.5 29.5 -31.5 q17 -97 70 -240 l65 -174 l65 174 q53 143 70 240 q4 22 29.5 31.5 q25.5 9.5 61.5 17.5 Z" /><glyph glyph-name="w" unicode="w" d="M652 535 q2 13 17.5 20 q15.5 7 36.5 7 q17 0 31.5 -5.5 q14.5 -5.5 19.5 -14.5 q-9 -5 -16 -20.5 q-7 -15.5 -15 -42.5 l-55 -180 q-42 -138 -52 -245 q-3 -22 -28.5 -33 q-25.5 -11 -59.5 -20 q-16 -4 -22 -4 q-8 0 -8 6 q-10 37 -28 113 q-24 106 -40 158 l-44 144 l-52 -139 q-16 -45 -46 -143 l-30 -97 q-5 -20 -25.5 -29.5 q-20.5 -9.5 -37 -13.5 q-16.5 -4 -19.5 -5 q-16 -4 -22 -4 q-7 0 -8 4 q-6 65 -22.5 153 q-16.5 88 -34.5 144 l-60 190 q-8 27 -15 42.5 q-7 15.5 -16 20.5 q5 9 19.5 14.5 q14.5 5.5 31.5 5.5 q21 0 36.5 -7 q15.5 -7 17.5 -20 q23 -98 54 -207 l49 -170 l64 173 q28 73 66 203 q3 11 16.5 17 q13.5 6 31.5 6 q20 0 36.5 -6 q16.5 -6 21.5 -17 q2 -4 2 -6 q31 -135 53 -207 l48 -158 l50 166 q26 86 54 207 Z" /><glyph glyph-name="x" unicode="x" d="M500 17 q3 -6 3 -9 q0 -5 -6 -7 q-6 -2 -12.5 -2.5 q-6.5 -0.5 -8.5 -0.5 l-23 -1 q-65 0 -77 28 q-38 92 -112 206 q-75 -105 -124 -207 q-12 -25 -66 -25 q-12 0 -20.5 1 q-8.5 1 -13.5 1 q-2 0 -10 0.5 q-8 0.5 -13 3 q-5 2.5 -5 6.5 q0 5 4 10 l201 280 l-124 188 q-10 15 -28.5 30.5 q-18.5 15.5 -29.5 17.5 q15 13 40.5 21 q25.5 8 50.5 8 q20 0 35 -6 q18 -34 32 -62 q43 -83 66 -117 l8 -11 l12 17 q26 37 70 115 l35 60 q15 5 30 5 q26 0 53 -9 q27 -9 42 -23 q-11 -2 -30 -17 q-19 -15 -30 -29 l-136 -190 l187 -282 Z" /><glyph glyph-name="y" unicode="y" d="M413 548 q22 14 59 14 q19 0 38 -4.5 q19 -4.5 31 -12.5 q-11 -5 -27 -22.5 q-16 -17.5 -23 -34.5 l-160 -357 q-62 -136 -85 -237 q-6 -21 -37 -30.5 q-31 -9.5 -58 -10.5 l-16 -1 q-18 0 -11 15 l96 215 q-9 24 -23 53 l-160 357 q-7 17 -23 34.5 q-16 17.5 -27 22.5 q12 8 31 12.5 q19 4.5 38 4.5 q37 0 59 -14 q9 -24 25 -72 q4 -11 17 -49.5 q13 -38.5 28 -70.5 l80 -178 l78 174 q15 32 28 70.5 q13 38.5 17 49.5 q16 48 25 72 Z" /><glyph glyph-name="z" unicode="z" d="M23 65 q10 4 16.5 11 q6.5 7 11.5 14 q5 7 7 9 l285 393 q3 3 3 6 q0 4 -9 4 q-19 0 -45.5 -4 q-26.5 -4 -48.5 -7.5 q-22 -3.5 -32 -5.5 l-96 -17 q-4 -1 -12 -1 q-31 0 -48 27 q-17 27 -17 53 q0 8 1 11 q26 -7 86 -7 q79 0 247 21 q9 1 16 4 q7 3 9 4 l69 -89 q-27 -14 -104 -97 q-77 -83 -152.5 -178 q-75.5 -95 -98.5 -141 q-4 -9 2 -11 q76 1 133.5 4.5 q57.5 3.5 127.5 12.5 q25 2 47 -11.5 q22 -13.5 35 -34 q13 -20.5 13 -36.5 q0 -10 -6 -15.5 q-6 -5.5 -17 -4.5 q-58 23 -146 23 q-60 0 -162 -13 q-27 -4 -48 -6 q-25 -3 -42.5 27 q-17.5 30 -24.5 55 Z" /><glyph glyph-name="Phi" unicode="&#x3a6;" d="M457 570 q-183 -27 -191 -215 q8 -187 191 -214 l0 429 ZM457 0 l0 66 q-257 28 -265 289 q8 262 265 290 l0 70 l78 0 l0 -70 q265 -28 273 -293 q-8 -266 -273 -289 l0 -63 l-78 0 ZM535 137 q187 23 195 215 q-4 191 -195 218 l0 -433 Z" /><glyph glyph-name="uni4E00" unicode="&#x4e00;" d="M125 268 q-25 -4 -45 26.5 q-20 30.5 -26 51.5 l227 20 q41 4 261 23 q220 19 289 20 q25 3 48 -9.5 q23 -12.5 37.5 -32.5 q14.5 -20 14.5 -36 q0 -20 -22 -20 q-40 10 -151 10 q-106 0 -245 -8.5 q-139 -8.5 -249.5 -21 q-110.5 -12.5 -138.5 -23.5 Z" /><glyph glyph-name="uni4E01" unicode="&#x4e01;" d="M825 659 q25 3 48 -9.5 q23 -12.5 37.5 -32.5 q14.5 -20 14.5 -36 q0 -20 -22 -20 q-39 10 -147 10 q-127 0 -283 -11 q23 -6 42.5 -18.5 q19.5 -12.5 28.5 -26.5 q-5 -22 -10.5 -67.5 q-5.5 -45.5 -5.5 -89.5 l0 -326 q0 -57 -18 -92 q-18 -35 -41 -35 q-11 0 -22 12 q-12 13 -24 30 q-23 30 -40.5 47.5 q-17.5 17.5 -42.5 27.5 q-13 4 -13 8 q0 3 22 2 q12 -1 33 -1 q33 0 49.5 11 q16.5 11 16.5 41 l0 410 q0 16 -4.5 34.5 q-4.5 18.5 -11.5 29.5 q-114 -9 -198.5 -19.5 q-84.5 -10.5 -108.5 -19.5 q-25 -4 -45 26.5 q-20 30.5 -26 51.5 q134 1 717 58 l54 5 Z" /><glyph glyph-name="uni4E03" unicode="&#x4e03;" d="M803 514 q6 2 19 2 q23 0 44 -11.5 q21 -11.5 34.5 -28.5 q13.5 -17 13.5 -30 q0 -15 -19 -18 q-16 2 -28 2 q-59 0 -175 -21.5 q-116 -21.5 -256 -55.5 q-3 -117 -3 -169 q0 -70 19.5 -107 q19.5 -37 66.5 -37 q128 0 188 17.5 q60 17.5 76 50.5 q16 33 16 97 l0 45 q0 13 4.5 20 q4.5 7 10.5 7 q10 0 11 -12 q2 -50 16 -108 q14 -58 37 -98 q5 -10 5 -16 q0 -29 -58 -49 q-58 -20 -146 -30 q-88 -10 -176 -10 q-55 0 -88.5 30.5 q-33.5 30.5 -47.5 73 q-14 42.5 -14 82.5 l0 192 q-170 -43 -249 -67 q-3 -1 -9 -1 q-22 0 -39.5 21 q-17.5 21 -33.5 46 q93 17 331 75 l0 285 q0 19 -7 42 q-7 23 -15 30 q5 2 31.5 -5 q26.5 -7 52 -19 q25.5 -12 34.5 -26 q-2 -24 -5 -116.5 q-3 -92.5 -5 -136.5 l-1 -33 l101 24 q212 52 264 63 Z" /><glyph glyph-name="uni4E07" unicode="&#x4e07;" d="M858 692 q25 3 48 -9.5 q23 -12.5 37.5 -32.5 q14.5 -20 14.5 -36 q0 -20 -22 -20 q-36 12 -131 12 q-113 0 -305 -16 q18 -20 18 -44 q0 -13 -6 -30 q-18 -50 -40 -96 l3 0 q43 7 95 17 q52 10 59 13 q5 3 9.5 5.5 q4.5 2.5 7.5 3.5 l96 -57 q-11 -15 -20 -55 q-7 -31 -27 -172 q-11 -84 -21 -143 q-8 -46 -34.5 -74 q-26.5 -28 -52.5 -28 q-20 0 -27 16 q-9 18 -35.5 46 q-26.5 28 -43.5 42 q-10 8 -10 10 q0 3 19 3 q7 0 33.5 -0.5 q26.5 -0.5 44.5 13.5 q18 14 27 45 q8 27 23 135 q15 108 15 141 q0 5 -4 8 q-4 3 -9 2 q-52 -7 -80 -16 q-18 -7 -56 -15 q-3 -1 -10 -1 q-14 0 -27 10 q-61 -119 -143 -213 q-82 -94 -182 -139 q-33 -14 -38 -14 q-4 0 0 6 q4 6 18 20 q102 103 173.5 217.5 q71.5 114.5 139.5 282.5 q9 25 11 55 q-94 -9 -174 -18 q-80 -9 -120 -15 q-25 -4 -45 26.5 q-20 30.5 -26 51.5 q101 2 541 42 q175 15 256 21 Z" /><glyph glyph-name="uni4E09" unicode="&#x4e09;" d="M260 503 q-25 -4 -45 26.5 q-20 30.5 -26 51.5 q67 0 144.5 13.5 q77.5 13.5 191.5 39.5 q86 20 126 27 q25 3 48 -9.5 q23 -12.5 37.5 -32.5 q14.5 -20 14.5 -36 q0 -20 -22 -20 q-32 5 -68 5 q-95 0 -223 -22 q-128 -22 -178 -43 ZM290 271 q-25 -4 -45 26.5 q-20 30.5 -26 51.5 q78 -1 157.5 10 q79.5 11 179.5 31 l73 13 q25 3 48 -9.5 q23 -12.5 37.5 -32.5 q14.5 -20 14.5 -36 q0 -20 -22 -20 q-43 7 -108 7 q-87 0 -177.5 -12 q-90.5 -12 -131.5 -29 ZM115 -22 q-25 -4 -45 26.5 q-20 30.5 -26 51.5 q84 2 187.5 11.5 q103.5 9.5 245.5 26.5 q245 28 375 35 q25 3 48 -11 q23 -14 37.5 -36 q14.5 -22 14.5 -39 q0 -22 -22 -22 q-53 10 -172 10 q-113 0 -254.5 -8.5 q-141.5 -8.5 -251.5 -21 q-110 -12.5 -137 -23.5 Z" /><glyph glyph-name="uni4E0A" unicode="&#x4e0a;" d="M859 130 q25 3 48 -9.5 q23 -12.5 37.5 -32.5 q14.5 -20 14.5 -36 q0 -20 -22 -20 q-52 17 -190 17 q-151 0 -355 -16.5 q-204 -16.5 -270 -27.5 q-25 -4 -45 26.5 q-20 30.5 -26 51.5 q71 1 354 22 q18 100 18 238 l0 364 q0 19 -7 42 q-7 23 -15 30 q4 1 12 1 q29 0 61 -15.5 q32 -15.5 45 -35.5 q-4 -48 -7 -72 q-1 -12 -5 -53.5 q-4 -41.5 -4 -77.5 l0 -46 q83 9 131 19 q48 10 108 32 q22 2 43 -9.5 q21 -11.5 33.5 -29.5 q12.5 -18 12.5 -32 q0 -8 -5.5 -13 q-5.5 -5 -15.5 -4 q-36 2 -54 2 q-69 0 -134.5 -11.5 q-65.5 -11.5 -108.5 -30.5 q-7 0 -10 1 l0 -293 q272 19 356 19 Z" /><glyph glyph-name="uni4E0B" unicode="&#x4e0b;" d="M836 650 q25 3 48 -9.5 q23 -12.5 37.5 -32.5 q14.5 -20 14.5 -36 q0 -20 -22 -20 q-51 17 -181 17 q-95 0 -213 -8 q10 -8 15 -16 q-4 -48 -7 -72 q-1 -12 -5 -53.5 q-4 -41.5 -4 -77.5 l0 -435 q0 -12 -8 -12 q-4 0 -12 4 q-8 4 -11 6 q-26 14 -49 34.5 q-23 20.5 -20 42.5 q20 103 20 250 l0 291 q0 10 -4 32 q-102 -8 -192 -17 q-90 -9 -121 -14 q-25 -4 -45 26.5 q-20 30.5 -26 51.5 q149 3 785 48 ZM756 377 q35 -9 35 -35 q0 -5 -4 -21 q-7 -17 -11 -31 q-14 -37 -22 -52 q-8 -15 -23 -15 q-15 0 -38 23 l-46 46 q-59 61 -82 85.5 q-23 24.5 -28 36.5 q-5 12 11 12 q12 0 46 -8 l162 -41 Z" /><glyph glyph-name="uni4E0D" unicode="&#x4e0d;" d="M868 709 q25 3 48 -9.5 q23 -12.5 37.5 -32.5 q14.5 -20 14.5 -36 q0 -20 -22 -20 q-36 14 -144 14 q-95 0 -235 -10 q19 -22 19 -47 q0 -23 -15 -43 l-32 -43 l6 -8 q-4 -48 -7 -72 q-1 -12 -5 -53.5 q-4 -41.5 -4 -77.5 l0 -345 q0 -12 -8 -12 q-4 0 -12 4 q-8 4 -11 6 q-26 14 -49 34.5 q-23 20.5 -20 42.5 q20 103 20 250 l0 123 q-180 -194 -373 -258 q-25 -9 -37 -9 q-14 0 19 25 q204 152 379 376 q-4 10 -10 16 q4 1 11 1 q7 0 11 -1 l29 39 q15 22 24 47 q-114 -9 -223.5 -22 q-109.5 -13 -156.5 -20 q-25 -4 -45 26.5 q-20 30.5 -26 51.5 q124 2 406.5 24 q282.5 22 410.5 39 ZM859 309 q27 -10 36.5 -18 q9.5 -8 9.5 -26 l-1 -11 l-5 -27 q-9 -49 -17.5 -72 q-8.5 -23 -26.5 -23 q-16 0 -39 22 l-102 99 q-55 53 -94.5 92.5 q-39.5 39.5 -50 54.5 q-10.5 15 2.5 15 q8 0 48 -15 l239 -91 Z" /><glyph glyph-name="uni4E0E" unicode="&#x4e0e;" d="M752 666 q11 3 21 3 q21 0 40.5 -10.5 q19.5 -10.5 31.5 -25 q12 -14.5 12 -25.5 q0 -14 -17 -15 q-117 -11 -244.5 -30.5 q-127.5 -19.5 -172.5 -40.5 q-23 -4 -45 32 q-13 -64 -41 -151 q-2 -5 -2.5 -9 q-0.5 -4 3.5 -3 l125 16 q237 31 242 33 q5 3 9.5 5.5 q4.5 2.5 7.5 3.5 l96 -57 q-11 -15 -20 -55 q-9 -41 -32 -204 q-17 -123 -24 -161 q-7 -40 -35.5 -62 q-28.5 -22 -59.5 -22 q-15 0 -26.5 5.5 q-11.5 5.5 -16.5 15.5 q-19 38 -55 65 q-3 3 -8.5 7 q-5.5 4 -5.5 5 q0 1 8 1 q8 0 15 0 l34 0 q31 0 45.5 10.5 q14.5 10.5 25.5 47.5 q8 28 27 160.5 q19 132.5 19 165.5 q0 5 -4 8 q-4 3 -9 2 q-89 -7 -224 -27 q-135 -20 -206 -34 q-3 -1 -9 -1 q-17 0 -30.5 12 q-13.5 12 -20 28 q-6.5 16 -4.5 23 q25 1 44 19.5 q19 18.5 24 44.5 q13 55 20.5 114 q7.5 59 16.5 161 q2 24 -3.5 51.5 q-5.5 27.5 -15.5 39.5 l18 1 q42 0 67.5 -18 q25.5 -18 25.5 -58 q0 -63 -14 -142 q90 8 194 28.5 q104 20.5 173 42.5 ZM535 214 q25 3 48 -9.5 q23 -12.5 37.5 -32.5 q14.5 -20 14.5 -36 q0 -20 -22 -20 q-42 16 -123 16 q-81 0 -171 -12 q-90 -12 -195 -29 l-24 -4 q-25 -4 -45 26.5 q-20 30.5 -26 51.5 q72 3 251 25 q185 23 255 24 Z" /><glyph glyph-name="uni4E13" unicode="&#x4e13;" d="M866 457 q25 3 48 -9.5 q23 -12.5 37.5 -32.5 q14.5 -20 14.5 -36 q0 -20 -22 -20 q-36 14 -142 14 q-124 0 -363 -21 q-19 -42 -39 -77 q-6 -9 -7 -14 q-1 -5 4 -6 q68 7 151 18 q83 11 93 15 q7 2 14 6 q7 4 10 5 l92 -77 q-21 -15 -143 -114 q-47 -41 -81 -67 l57 -27 q5 -2 15 -6.5 q10 -4.5 14 -9 q4 -4.5 4 -12.5 q0 -5 -1 -8 q-2 -6 -3 -12.5 q-1 -6.5 -2 -11.5 q-7 -39 -14.5 -60 q-7.5 -21 -20.5 -21 q-9 0 -17 8 q-127 117 -185 177 q-58 60 -58 73 q0 11 44 -12 l133 -62 l105 158 q5 8 5 10 q0 2 -3 2 l-10 -2 q-35 -7 -35 -7 q-10 -2 -89 -17.5 q-79 -15.5 -131 -32.5 q-9 -3 -18 -3 q-28 0 -44.5 28 q-16.5 28 -16.5 53 q0 7 1 9 q47 3 73 69 l7 18 q-149 -15 -223 -26 q-25 -4 -45 26.5 q-20 30.5 -26 51.5 q59 2 321 25 q19 56 37 126 q-131 -17 -168 -35 q-16 -2 -29.5 13 q-13.5 15 -21.5 34 q-8 19 -9 27 q83 0 242 23 q15 66 23 110 q4 19 4 48 q0 46 -12 66 q54 -4 89 -26.5 q35 -22.5 35 -64.5 q0 -11 -3 -23 l-22 -92 q101 19 144 31 q9 3 18 3 q21 0 40.5 -11 q19.5 -11 31.5 -26 q12 -15 12 -27 q0 -14 -17 -15 q-141 -10 -247 -21 q-20 -67 -45 -131 l36 3 q299 25 358 26 Z" /><glyph glyph-name="uni4E14" unicode="&#x4e14;" d="M875 85 q25 3 48 -9.5 q23 -12.5 37.5 -32.5 q14.5 -20 14.5 -36 q0 -20 -22 -20 q-56 14 -200 14 q-159 0 -372 -14.5 q-213 -14.5 -271 -24.5 q-25 -4 -45 26.5 q-20 30.5 -26 51.5 q57 1 239 10 q3 44 3 123 q0 116 -6 257 q-6 141 -12 183 q-3 21 -11.5 42.5 q-8.5 21.5 -16.5 26.5 q6 2 21 2 q18 0 37.5 -5.5 q19.5 -5.5 35.5 -14.5 q-5 13 -3 18 q15 -5 37 -5 q14 0 21 1 l28 3 q135 13 212 32 q5 1 10.5 5.5 q5.5 4.5 6.5 5.5 l110 -57 q-7 -12 -11.5 -27 q-4.5 -15 -4.5 -29 l-1 -535 q78 6 141 9 ZM367 209 q3 -88 3 -154 l270 16 l-6 567 q0 4 -4.5 7 q-4.5 3 -9.5 2 l-76 -12 q-110 -19 -151 -24 q-19 -3 -36 11 l4 -156 q18 2 23 2 q44 5 56.5 8.5 q12.5 3.5 66.5 22.5 q21 2 39.5 -9 q18.5 -11 30 -27 q11.5 -16 11.5 -29 q0 -7 -5 -11.5 q-5 -4.5 -14 -3.5 q-50 5 -75 5 q-31 0 -56 -6 q-25 -6 -58 -20 l-3 0 q-5 0 -15 4 l4 -128 q18 2 24 2 q43 5 56 8.5 q13 3.5 65 22.5 q21 2 39.5 -9 q18.5 -11 30 -27 q11.5 -16 11.5 -29 q0 -7 -5 -11.5 q-5 -4.5 -14 -3.5 q-50 5 -75 5 q-31 0 -56 -6 q-25 -6 -58 -20 l-3 0 q-8 0 -14 3 Z" /><glyph glyph-name="uni4E16" unicode="&#x4e16;" d="M884 502 q25 3 48 -9.5 q23 -12.5 37.5 -32.5 q14.5 -20 14.5 -36 q0 -20 -22 -20 q-50 9 -135 9 q-52 0 -111 -3 l-15 -148 q16 -9 26.5 -24 q10.5 -15 10.5 -27 q0 -16 -18 -16 q-51 11 -94 11 q-31 0 -87 -8 l-27 -4 l-7 0 l0 -27 q0 -12 -8 -12 q-4 0 -12 4 q-8 4 -11 6 q-26 14 -49 34.5 q-23 20.5 -20 42.5 q14 75 17 146 l-116 -12 l0 -325 q0 -5 3.5 -8.5 q3.5 -3.5 8.5 -2.5 q51 8 267 22 q149 9 189 14 q25 3 48 -9.5 q23 -12.5 37.5 -32.5 q14.5 -20 14.5 -36 q0 -20 -22 -20 q-52 13 -176 13 q-125 0 -255.5 -12 q-130.5 -12 -168.5 -27 q-25 -4 -45 26.5 q-20 30.5 -26 51.5 l15 0 q12 1 17.5 8 q5.5 7 5.5 23 q7 191 7 278 l0 28 q-83 -10 -138 -18 q-25 -4 -45 26.5 q-20 30.5 -26 51.5 q59 0 209 10 l0 153 q0 19 -7 42 q-7 23 -15 30 q4 1 12 1 q29 0 61 -15.5 q32 -15.5 45 -35.5 q-5 -22 -10.5 -67.5 q-5.5 -45.5 -5.5 -89.5 l0 -12 q86 7 119 10 l0 39 l0 177 q0 19 -7 42 q-7 23 -15 30 q4 1 12 1 q29 0 61 -15.5 q32 -15.5 45 -35.5 q-4 -48 -7 -72 q-1 -12 -5 -53.5 q-4 -41.5 -4 -77.5 l0 -28 l139 13 q6 87 6 235 q0 19 -7.5 42 q-7.5 23 -17.5 30 q4 1 13 1 q32 0 68.5 -15.5 q36.5 -15.5 50.5 -35.5 q-17 -114 -31 -226 l-3 -22 q120 13 161 20 ZM624 304 q13 94 14 102 q-92 -6 -133 -10 l0 -141 q62 0 113 9 l0 3 l6 37 Z" /><glyph glyph-name="uni4E1A" unicode="&#x4e1a;" d="M854 82 q25 3 48 -9.5 q23 -12.5 37.5 -32.5 q14.5 -20 14.5 -36 q0 -20 -22 -20 q-35 14 -142 14 q-146 0 -371 -22 q-225 -22 -311 -35 q-25 -4 -45 26.5 q-20 30.5 -26 51.5 q66 2 284 22 l0 577 q0 19 -7 42 q-7 23 -15 30 q4 1 12 1 q29 0 61 -15.5 q32 -15.5 45 -35.5 q-4 -48 -7 -72 q-1 -12 -5 -53.5 q-4 -41.5 -4 -77.5 l0 -389 q47 3 128 11 l0 645 q0 19 -7 42 q-7 23 -15 30 q4 1 12 1 q29 0 61 -15.5 q32 -15.5 45 -35.5 q-4 -48 -7 -72 q-1 -12 -5 -53.5 q-4 -41.5 -4 -77.5 l0 -345 q110 167 159 270 q8 18 13.5 41 q5.5 23 5.5 41 q0 14 -2 20 q42 -11 68 -33.5 q26 -22.5 26 -53.5 q0 -17 -9 -38 q-20 -45 -66 -99.5 q-46 -54.5 -98 -101.5 q-52 -47 -89 -72 l-8 -5 l0 -82 q193 16 245 17 ZM268 259 q-16 -29 -25.5 -42.5 q-9.5 -13.5 -20.5 -13.5 q-13 0 -26 25 q-10 18 -27 52 q-32 61 -46.5 91.5 q-14.5 30.5 -14.5 43.5 q0 7 6 7 q10 0 30 -14 l117 -79 q13 -9 18.5 -15.5 q5.5 -6.5 5.5 -14.5 q0 -10 -5 -19 l-12 -21 Z" /><glyph glyph-name="uni4E1B" unicode="&#x4e1b;" d="M943 155 q17 -13 27.5 -22.5 q10.5 -9.5 10.5 -13.5 q0 -5 -10.5 -6 q-10.5 -1 -29 -1 q-18.5 0 -25.5 0 l-92 0 q-27 0 -47 16 q-20 16 -38 42 q-32 49 -67 121.5 q-35 72.5 -57 136.5 q-34 -112 -95 -198 q-61 -86 -139 -133 q-23 -14 -31 -14 q-4 0 -4 3 q0 6 16 23 q78 89 132 222.5 q54 133.5 68 343.5 q1 8 1 26 q0 48 -12 67 q50 -1 79 -22 q29 -21 25 -66 q-1 -83 -19 -169 q48 -83 128.5 -181 q80.5 -98 157.5 -159 l21 -16 ZM300 378 q-35 -87 -91 -153 q-56 -66 -128 -109 q-27 -15 -31 -15 q-3 0 -3 2 q0 6 15 25 l15 19 q57 74 90.5 130.5 q33.5 56.5 59.5 147.5 q26 91 35 226 q1 8 1 26 q0 48 -12 67 q50 -1 79 -22 q29 -21 25 -66 q-3 -127 -38 -232 l117 -88 q14 -10 14 -23 q0 -6 -3 -14 q-16 -32 -26 -47 q-10 -15 -23 -15 q-11 0 -21 15 q-51 72 -75 126 ZM831 59 q25 3 48 -9.5 q23 -12.5 37.5 -32.5 q14.5 -20 14.5 -36 q0 -20 -22 -20 q-60 15 -253 15 q-167 0 -331.5 -10.5 q-164.5 -10.5 -199.5 -24.5 q-25 -4 -45 26.5 q-20 30.5 -26 51.5 q118 9 406.5 24 q288.5 15 370.5 16 Z" /><glyph glyph-name="uni4E1C" unicode="&#x4e1c;" d="M787 298 q-34 10 -99 10 q-61 0 -139 -8 l0 -279 q0 -57 -18 -92 q-18 -35 -41 -35 q-12 0 -22 12 q-12 13 -24 30 q-23 30 -40.5 47.5 q-17.5 17.5 -42.5 27.5 q-13 4 -13 8 q0 3 22 2 q12 -1 33 -1 q33 0 49.5 11 q16.5 11 16.5 41 l0 219 q-97 -12 -238 -35 q-25 -4 -45 26.5 q-20 30.5 -26 51.5 l22 0 q34 4 57 23.5 q23 19.5 36 44.5 q32 55 67 135 q-40 -5 -69 -9.5 q-29 -4.5 -49 -7.5 l-41 -6 q-23 -3 -40.5 23.5 q-17.5 26.5 -24.5 47.5 q58 0 255 23 q6 15 13 31.5 q7 16.5 14 35.5 q23 53 25 60 q11 30 11 66 q0 22 -4 33 q42 -8 68 -30.5 q26 -22.5 26 -56.5 q0 -7 -4 -25 q-17 -50 -39 -99 l90 12 q145 18 163 20 q23 3 44 -8.5 q21 -11.5 34 -29.5 q13 -18 13 -33 q0 -18 -20 -18 q-29 8 -81 8 q-90 0 -278 -23 q-65 -120 -133 -194 q-12 -12 -2 -12 q58 6 156 19 l0 76 q0 19 -7 42 q-7 23 -15 30 q4 1 12 1 q29 0 61 -15.5 q32 -15.5 45 -35.5 q-7 -24 -13 -86 q98 14 157 20 q25 3 48 -9.5 q23 -12.5 37.5 -32.5 q14.5 -20 14.5 -36 q0 -20 -22 -20 ZM219 220 q19 -10 36.5 -23 q17.5 -13 24.5 -24 q4 -7 4 -16 q0 -10 -4 -20 q-4 -10 -5 -12 q-15 -33 -36 -58.5 q-21 -25.5 -60 -63.5 q-4 -5 -11 -10.5 q-7 -5.5 -12 -5.5 q-6 0 -8 9 q-4 15 -7 25 q-3 10 -5 17 q-7 19 -7 24 l0 7 q0 11 8 21 q40 34 60.5 62 q20.5 28 21.5 68 ZM826 147 q4 -2 16.5 -6.5 q12.5 -4.5 16.5 -11.5 q4 -7 4 -19 q-1 -10 -4.5 -42.5 q-3.5 -32.5 -10.5 -52 q-7 -19.5 -18 -19.5 q-10 0 -23 14 q-150 160 -150 189 q0 8 11 8 q12 0 45 -13 l113 -47 Z" /><glyph glyph-name="uni4E1D" unicode="&#x4e1d;" d="M539 377 q-27 -5 -40.5 19 q-13.5 24 -13.5 49 q0 8 1 10 q25 0 39.5 8.5 q14.5 8.5 28.5 34.5 l11 19 q79 147 91 174 q10 24 14.5 37.5 q4.5 13.5 4.5 30.5 q0 7 -2 19 q33 -10 57 -35 q24 -25 24 -53 q0 -17 -10 -33 q-104 -156 -158 -211 l128 10 l15 22 l33 47 q14 21 22 39 q8 18 6 39 q26 -12 43 -36 q17 -24 17 -49 q0 -23 -14 -41 q-61 -78 -101.5 -117 q-40.5 -39 -104.5 -89 q-10 -9 -8 -11 l68 8 l127 15 q6 1 18 1 q12 0 20 -2 q8 -2 8 -6 q0 -10 -43 -25 q-129 -45 -261 -75 q-4 -1 -11 -1 q-18 0 -31 13.5 q-13 13.5 -19.5 32 q-6.5 18.5 -6.5 31.5 q0 6 1 8 q57 2 107 53 q38 38 85 100 q-31 -7 -105 -26 l-40 -10 ZM197 155 q-8 -2 -13 -2 q-20 0 -34 16.5 q-14 16.5 -20.5 37.5 q-6.5 21 -3.5 29 q5 -1 15 -1 q24 0 45.5 13.5 q21.5 13.5 44.5 42.5 q48 62 82 114 l-84 -21 q-36 -10 -39 -10 q-27 -5 -40.5 19 q-13.5 24 -13.5 49 q0 8 1 10 q24 0 37 8.5 q13 8.5 31 34.5 q24 36 56.5 96 q32.5 60 44.5 88 q10 24 14.5 37.5 q4.5 13.5 4.5 30.5 q0 7 -2 19 q33 -10 57 -35 q24 -25 24 -53 q0 -17 -10 -33 q-30 -44 -77 -106.5 q-47 -62.5 -80 -95.5 q17 2 33.5 3 q16.5 1 30.5 2 l40 3 q16 25 45 80 q20 38 20 64 q0 5 -2 17 q30 -8 51 -32.5 q21 -24.5 21 -52.5 q0 -18 -10 -34 q-63 -94 -108 -148 q-45 -54 -91 -92 q-6 -4 -7.5 -7 q-1.5 -3 2.5 -3 q16 2 24 4 q86 13 156 26 q14 2 18 2 q16 0 16 -8 q0 -4 -5.5 -8.5 q-5.5 -4.5 -14.5 -8.5 q-91 -37 -159.5 -61.5 q-68.5 -24.5 -99.5 -33.5 ZM877 79 q22 2 42 -10 q20 -12 32 -30 q12 -18 12 -33 q0 -20 -21 -19 q-43 19 -209 19 q-143 0 -332 -12 q-189 -12 -299 -23 q-16 -1 -29.5 14 q-13.5 15 -21.5 33 q-8 18 -10 27 l37 0 q80 0 215 6.5 q135 6.5 262 13.5 q264 16 322 14 Z" /><glyph glyph-name="uni4E24" unicode="&#x4e24;" d="M871 491 q-9 -12 -14.5 -27 q-5.5 -15 -5.5 -28 l0 -372 q0 -57 -18 -92 q-18 -35 -41 -35 q-11 0 -22 12 q-12 13 -24 30 q-23 30 -40.5 47.5 q-17.5 17.5 -42.5 27.5 q-13 4 -13 8 q0 3 22 2 q12 -1 33 -1 q33 0 49.5 11 q16.5 11 16.5 41 l0 93 l-4 131 q-1 29 -2 63 q-1 34 -3 68 q0 5 -4 8 q-4 3 -9 2 l-120 -17 q-9 -62 -29 -120 q4 -1 12 -5 l96 -48 q13 -6 18.5 -11.5 q5.5 -5.5 5.5 -14.5 q0 -8 -2 -13 q-3 -8 -11.5 -29.5 q-8.5 -21.5 -16 -33 q-7.5 -11.5 -16.5 -11.5 q-10 0 -23 19 q-60 90 -75 115 q-48 -123 -140 -180 q-22 -14 -29 -14 q-3 0 -3 3 q0 6 13 23 q46 63 74 136 q28 73 44 172 q-75 -12 -133 -23 q-7 -39 -20 -82 l7 -3 l70 -29 q21 -9 21 -22 q0 -4 -2 -12 q-3 -6 -10 -24.5 q-7 -18.5 -14 -28.5 q-7 -10 -14 -10 q-8 0 -20 16 q-34 50 -50 77 q-41 -106 -105 -157 q-21 -16 -26 -16 q-3 0 -3 3 q0 6 10 25 q31 60 49 115.5 q18 55.5 29 131.5 q-25 -5 -49 -13 q-5 -2 -13 -2 q-16 0 -30 14 q-2 -22 -4 -35 q-10 -94 -10 -143 l0 -239 q0 -12 -8 -12 q-4 0 -12 4 q-8 4 -11 6 q-26 14 -49 34.5 q-23 20.5 -20 42.5 q20 103 20 250 l0 95 q0 19 -7 42 q-7 23 -15 30 q4 1 11 1 q20 0 43.5 -7.5 q23.5 -7.5 40.5 -20.5 q18 -2 30 -2 q9 0 25 2 l64 11 q3 30 7 92 q1 16 -4 35 q-5 19 -13 33 q-54 -9 -132 -27 q-25 -6 -44.5 25 q-19.5 31 -26.5 53 q104 2 292.5 22.5 q188.5 20.5 328.5 43.5 q25 3 48 -9.5 q23 -12.5 37.5 -32.5 q14.5 -20 14.5 -36 q0 -20 -22 -20 q-48 16 -143 16 q-50 0 -120 -5 q33 0 53.5 -15 q20.5 -15 20.5 -47 q0 -40 -3 -81 q118 19 122 22 q5 3 9.5 5.5 q4.5 2.5 7.5 3.5 l96 -57 ZM554 504 q3 27 7 76 q1 19 -6.5 42.5 q-7.5 23.5 -17.5 34.5 q3 0 4 1 q-75 -7 -158 -20 q44 -12 44 -58 q0 -45 -5 -98 l132 22 Z" /><glyph glyph-name="uni4E25" unicode="&#x4e25;" d="M805 421 q12 2 17 2 q21 0 40.5 -10.5 q19.5 -10.5 31.5 -26 q12 -15.5 12 -27.5 q0 -14 -17 -17 q-50 -7 -253 -15 q-146 -7 -211 -11 q-65 -4 -91 -12 q-20 -3 -37 23 l0 -1 q-12 -112 -35 -193 q-23 -81 -69.5 -146 q-46.5 -65 -124.5 -114 q-24 -15 -31 -15 q-5 0 -1.5 7 q3.5 7 15.5 22 q76 93 110 192 q34 99 51 237 l1 14 q0 20 -5 39.5 q-5 19.5 -13 29.5 q56 3 82 -21 q46 0 111 3 q6 128 6 194 l0 20 q0 22 -8 46 q-99 -11 -125 -20 q-22 -3 -37 21.5 q-15 24.5 -20 43.5 q101 4 300 28 q199 24 258 42 q9 3 18 3 q18 0 35.5 -9.5 q17.5 -9.5 28.5 -23 q11 -13.5 11 -24.5 q0 -12 -14 -15 q-44 -8 -207 -23 q-8 0 -26 -2 q37 -17 50 -38 q-4 -51 -7 -73 l-7 -73 q41 33 77 74 q9 12 21 24 q14 13 25 34.5 q11 21.5 13 36.5 q48 -34 48 -71 q0 -20 -18 -43 q-30 -34 -68.5 -50.5 q-38.5 -16.5 -98.5 -34.5 q-1 -9 -1 -27 l0 -23 q124 12 163 23 ZM454 648 q25 -14 36 -31 q-4 -48 -7 -72 q-1 -12 -5 -53.5 q-4 -41.5 -4 -77.5 l0 -29 l82 6 q6 126 6 191 l0 20 q0 26 -11 55 l-97 -9 ZM355 493 q-7 -34 -14.5 -56 q-7.5 -22 -19.5 -22 q-7 0 -15 11 q-45 60 -66 92 q-21 32 -21 43 q0 6 6 6 q7 0 15 -4 l95 -41 q11 -5 16 -11 q5 -6 4 -18 Z" /><glyph glyph-name="uni4E27" unicode="&#x4e27;" d="M906 -19 q63 -26 63 -42 q0 -17 -69 -17 l-173 0 q-23 0 -39 12 q-16 12 -28.5 26 q-12.5 14 -17.5 20 q-25 28 -103 118 q-90 107 -134 153 q-20 22 -51 45 l-47 -4 q11 -8 18 -19 q-4 -48 -7 -72 q-1 -12 -5 -53.5 q-4 -41.5 -4 -77.5 l0 -40 q0 -3 3 -4.5 q3 -1.5 6 0.5 l48 35 q94 68 94 52 q0 -26 -199 -225 q-15 -15 -33 -15 q-17 0 -33.5 12.5 q-16.5 12.5 -27 28.5 q-10.5 16 -10.5 24 q23 13 47.5 38.5 q24.5 25.5 24.5 53.5 l0 221 q0 10 -4 32 q-97 -11 -131 -16 q-25 -4 -45 26.5 q-20 30.5 -26 51.5 q61 0 150.5 6 q89.5 6 229.5 18 l0 225 q-27 -5 -50.5 -9.5 q-23.5 -4.5 -43.5 -8.5 q-66 -14 -78 -15 q-24 -3 -43 26 q-19 29 -25 49 q109 0 240 21 l0 106 q0 19 -7 42 q-7 23 -15 30 q4 1 12 1 q29 0 61 -15.5 q32 -15.5 45 -35.5 q-3 -38 -11 -112 l74 15 l86 16 q24 3 46.5 -9.5 q22.5 -12.5 36 -31.5 q13.5 -19 13.5 -34 q0 -19 -21 -19 q-29 12 -87 12 q-59 0 -152 -14 q-1 -9 -1 -26 l0 -206 q247 24 312 25 q25 3 48 -9.5 q23 -12.5 37.5 -32.5 q14.5 -20 14.5 -36 q0 -20 -22 -20 q-38 14 -142 14 l-39 0 q25 -27 25 -54 q0 -24 -23 -44 q-18 -15 -45 -27.5 q-27 -12.5 -55 -20.5 q158 -126 312 -190 ZM624 538 q15 18 26 38.5 q11 20.5 11 34.5 q23 -15 37.5 -34.5 q14.5 -19.5 14.5 -38.5 q0 -23 -19 -41 q-24 -23 -62 -42 q-38 -19 -73 -28 q-22 -5 -27 -5 q-7 0 -3.5 5.5 q3.5 5.5 18.5 20.5 q18 18 56 64 q5 6 10 12.5 q5 6.5 11 13.5 ZM329 458 q-3 -9 -10.5 -28.5 q-7.5 -19.5 -14.5 -30 q-7 -10.5 -15 -10.5 q-11 0 -23 18 q-34 49 -50.5 76.5 q-16.5 27.5 -16.5 38.5 q0 10 11 10 q11 0 32 -9 l67 -27 q12 -6 17.5 -11 q5.5 -5 5.5 -13 q0 -6 -3 -14 ZM666 317 q-79 -2 -235 -14 q35 -27 81 -66 l47 -39 l43 42 l26 27 q25 25 38 50 Z" /><glyph glyph-name="uni4E2A" unicode="&#x4e2a;" d="M887 366 q91 -44 91 -57 q0 -6 -16 -8.5 q-16 -2.5 -50 -2.5 l-128 0 q-26 0 -43 14 q-17 14 -42 44 q-23 27 -57 71 q-11 13 -57 69.5 q-46 56.5 -83 93.5 q-8 8 -28 19 q-187 -256 -410 -356 q-35 -16 -39 -16 q-4 0 4.5 9 q8.5 9 24.5 24 l19 18 q106 104 191.5 199 q85.5 95 154.5 207 q13 21 20.5 43.5 q7.5 22.5 7.5 40.5 q0 8 -1 11 q41 -17 60.5 -34.5 q19.5 -17.5 19.5 -42.5 q0 -22 -14 -49 q-6 -8 -8 -12 q38 -20 76 -50 q38 -30 88 -75 q68 -59 115.5 -96 q47.5 -37 103.5 -64 ZM411 488 q4 1 12 1 q29 0 61 -15.5 q32 -15.5 45 -35.5 q-4 -48 -7 -72 q-1 -12 -5 -53.5 q-4 -41.5 -4 -77.5 l0 -353 q0 -12 -8 -12 q-4 0 -12 4 q-8 4 -11 6 q-26 14 -49 34.5 q-23 20.5 -20 42.5 q20 103 20 250 l0 209 q0 19 -7 42 q-7 23 -15 30 Z" /><glyph glyph-name="uni4E2D" unicode="&#x4e2d;" d="M878 581 q-10 -4 -19.5 -18 q-9.5 -14 -15.5 -29 l-66 -194 q25 -3 45.5 -27.5 q20.5 -24.5 20.5 -45.5 q0 -18 -17 -19 q-32 5 -114 5 q-78 0 -181 -5 l0 -364 q0 -12 -8 -12 q-4 0 -12 4 q-8 4 -11 6 q-26 14 -49 34.5 q-23 20.5 -20 42.5 q20 103 20 250 l0 34 q-136 -10 -173 -22 q-2 -1 -6 -1 q-9 0 -17 8 q2 -30 4 -48 q1 -13 -9 -13 q-7 0 -21 7 q-3 2 -24.5 12.5 q-21.5 10.5 -37 26.5 q-15.5 16 -15.5 31 q1 23 1 104 q0 130 -6 155 q-5 22 -14 43 q-9 21 -17 25 q16 4 27 4 q19 0 39.5 -6 q20.5 -6 36.5 -16 q-1 4 -1 10 q36 -3 39 -3 q11 0 16 1 l178 25 l0 150 q0 19 -7 42 q-7 23 -15 30 q4 1 12 1 q29 0 61 -15.5 q32 -15.5 45 -35.5 q-4 -51 -7 -73 q-6 -58 -8 -87 q19 3 43.5 6 q24.5 3 53.5 8 l94 13 q10 1 17 11 l138 -55 ZM531 312 q67 6 159 16 l43 226 l0 1 q0 4 -4.5 6.5 q-4.5 2.5 -9.5 1.5 l-188 -28 l0 -223 ZM250 295 q81 3 201 11 l0 217 q-90 -13 -169 -27 q-24 -4 -41 15 q3 -145 9 -216 Z" /><glyph glyph-name="uni4E32" unicode="&#x4e32;" d="M857 353 q-19 -8 -35 -47 l-40 -88 q17 -9 28.5 -26.5 q11.5 -17.5 11.5 -32.5 q0 -15 -14 -16 q-38 5 -107 5 q-76 0 -181 -5 l0 -259 q0 -12 -8 -12 q-4 0 -12 4 q-8 4 -11 6 q-26 14 -49 34.5 q-23 20.5 -20 42.5 q16 85 19 180 q-112 -6 -158 -16 q0 -2 5 -44 q1 -13 -9 -13 q-7 0 -21 7 q-3 2 -24.5 12.5 q-21.5 10.5 -37 26.5 q-15.5 16 -15.5 31 q1 23 1 66 q0 55 -6 80 q-5 22 -14 43 q-9 21 -17 25 q16 4 26 4 q19 0 39.5 -6 q20.5 -6 36.5 -16 l0 8 q36 -3 39 -3 q11 0 16 1 l140 17 l0 77 q-78 -8 -114 -17 l1 -14 q1 -13 -9 -13 q-7 0 -21 7 q-3 2 -24.5 12.5 q-21.5 10.5 -37 26.5 q-15.5 16 -15.5 31 q1 23 1 55 q0 32 -6 57 q-5 22 -14 43 q-9 21 -17 25 q11 4 27 4 q36 0 69 -18 l0 9 q36 -3 39 -3 q11 0 16 1 l105 15 l0 76 q0 19 -7 42 q-7 23 -15 30 q4 1 12 1 q29 0 61 -15.5 q32 -15.5 45 -35.5 q-2 -31 -8 -85 l123 18 q10 1 17 11 l138 -55 q-16 -7 -35 -47 l-40 -88 q12 -9 19.5 -23 q7.5 -14 7.5 -26 q0 -16 -14 -16 q-27 4 -79 4 q-45 0 -145 -6 l0 -72 q92 11 182 24 q10 1 17 11 l138 -55 ZM647 629 q-32 -4 -44 -7 q-27 -3 -47 -6.5 q-20 -3.5 -34 -5.5 q-2 -36 -2 -55 l0 -53 q73 9 116 15 l25 103 l0 1 q0 4 -4.5 6.5 q-4.5 2.5 -9.5 1.5 ZM317 485 q61 3 123 9 l0 103 l-96 -17 q-3 -1 -8 -1 q-15 0 -27 10 q1 -51 3 -70 q2 -19 5 -34 ZM520 198 q116 9 169 15 l23 113 l0 1 q0 4 -4.5 6.5 q-4.5 2.5 -9.5 1.5 l-104 -14 l-74 -10 l0 -113 ZM440 193 l0 16 l0 91 q-105 -15 -131 -20 q-24 -4 -41 15 q1 -75 6 -110 l166 8 Z" /><glyph glyph-name="uni4E34" unicode="&#x4e34;" d="M238 808 q4 1 12 1 q29 0 61 -15.5 q32 -15.5 45 -35.5 q-4 -48 -7 -72 q-1 -12 -5 -53.5 q-4 -41.5 -4 -77.5 l0 -671 q0 -12 -8 -12 q-4 0 -12 4 q-8 4 -11 6 q-26 14 -49 34.5 q-23 20.5 -20 42.5 q20 103 20 250 l0 527 q0 19 -7 42 q-7 23 -15 30 ZM560 533 q-70 -116 -174 -173 q-27 -15 -31 -15 q-3 0 0.5 6.5 q3.5 6.5 8 14 q4.5 7.5 8.5 13.5 q107 179 156 322 q9 26 9 56 q0 31 -9 50 q47 -6 79 -27.5 q32 -21.5 32 -57.5 q0 -8 -4 -24 q-17 -59 -48 -118 q46 9 114.5 26.5 q68.5 17.5 90.5 22.5 l33 9 q4 1 12 1 q22 0 42.5 -9 q20.5 -9 32.5 -22 q12 -13 12 -23 q0 -13 -24 -13 q-49 0 -107.5 -13 q-58.5 -13 -133.5 -35 q-13 -3 -26.5 -7 q-13.5 -4 -25.5 -7 q-24 -4 -47 23 ZM78 605 q4 1 12 1 q29 0 61 -15.5 q32 -15.5 45 -35.5 q-4 -48 -7 -72 q-1 -12 -5 -53.5 q-4 -41.5 -4 -77.5 l0 -206 q0 -12 -8 -12 q-4 0 -12 4 q-8 4 -11 6 q-26 14 -49 34.5 q-23 20.5 -20 42.5 q20 103 20 250 l0 62 q0 19 -7 42 q-7 23 -15 30 ZM694 450 q18 -5 24.5 -9.5 q6.5 -4.5 6.5 -19.5 q0 -39 -5.5 -70.5 q-5.5 -31.5 -21.5 -31.5 q-8 0 -18 10 q-70 68 -102 101 q-32 33 -39.5 47.5 q-7.5 14.5 7.5 14.5 q16 0 64 -16 l84 -26 ZM947 273 q-9 -4 -16.5 -15 q-7.5 -11 -18.5 -32 l-71 -143 q27 -2 47.5 -21.5 q20.5 -19.5 20.5 -36.5 q0 -14 -17 -15 q-36 4 -92 4 q-74 0 -151.5 -7.5 q-77.5 -7.5 -117.5 -17.5 q-2 -1 -6 -1 q-6 0 -14 4 q1 -9 2.5 -22.5 q1.5 -13.5 1.5 -23.5 q0 -10 -9 -10 q-7 0 -21 7 q-3 2 -24.5 12.5 q-21.5 10.5 -37 26.5 q-15.5 16 -15.5 31 q1 23 1 89 q0 99 -6 124 q-5 22 -14 43 q-9 21 -17 25 q16 4 27 4 q19 0 39.5 -6 q20.5 -6 36.5 -16 q-1 4 -1 10 q36 -3 39 -3 q11 0 16 1 q170 20 263 33 q10 1 17 11 l138 -55 ZM802 248 q0 4 -4.5 6 q-4.5 2 -9.5 1 l-114 -16 q7 -4 12 -11 l3 -61 q2 -68 5 -103 q23 2 61 8 l47 174 l0 2 ZM507 48 q45 2 92 6 q1 44 -0.5 84.5 q-1.5 40.5 -5.5 57.5 q-4 16 -9 31 l-46 -8 q-24 -4 -41 15 q3 -98 10 -186 Z" /><glyph glyph-name="uni4E39" unicode="&#x4e39;" d="M875 387 q25 3 48 -9.5 q23 -12.5 37.5 -32.5 q14.5 -20 14.5 -36 q0 -20 -22 -20 q-38 15 -173 15 q-55 0 -85 -1 l0 -268 q0 -57 -18 -92 q-18 -35 -41 -35 q-11 0 -22 12 q-12 13 -24 30 q-23 30 -40.5 47.5 q-17.5 17.5 -42.5 27.5 q-13 4 -13 8 q0 3 22 2 q12 -1 33 -1 q33 0 49.5 11 q16.5 11 16.5 41 l0 180 l-1 34 q-153 -9 -262 -18 q-23 -123 -75.5 -215.5 q-52.5 -92.5 -146.5 -149.5 q-19 -12 -29 -12 q-4 0 -4 3 q0 6 14 21 q65 69 103 154.5 q38 85.5 56 191.5 q-140 -13 -171 -19 q-25 -4 -45 26.5 q-20 30.5 -26 51.5 q76 3 253 16 q12 115 12 278 q0 20 -7 43.5 q-7 23.5 -17 33.5 q15 3 28 3 q29 0 48 -12 l25 -1 q8 0 24 2 q36 6 118.5 24.5 q82.5 18.5 89.5 22.5 q5 3 9.5 5.5 q4.5 2.5 7.5 3.5 l96 -57 q-9 -12 -14.5 -27 q-5.5 -15 -5.5 -28 l0 -263 q116 7 180 9 ZM613 372 l-7 303 q0 5 -4 8 q-4 3 -9 2 q-69 -10 -97 -17.5 q-28 -7.5 -93 -30.5 q-8 -2 -13 -2 q-9 0 -19 5 q1 -28 1 -86 q0 -118 -10 -199 l251 17 ZM531 548 q26 -10 26 -27 q0 -6 -3 -15 q-3 -8 -11 -30 q-8 -22 -16.5 -34 q-8.5 -12 -17.5 -12 q-11 0 -25 20 q-38 55 -55.5 85 q-17.5 30 -17.5 43 q0 10 11 10 q13 0 36 -10 l73 -30 Z" /><glyph glyph-name="uni4E3A" unicode="&#x4e3a;" d="M846 504 q-7 -9 -11 -21 q-4 -12 -7 -23.5 q-3 -11.5 -4 -16.5 q-7 -28 -19 -111 q-12 -83 -17 -113 q-4 -27 -13.5 -94 q-9.5 -67 -15.5 -97 q-11 -58 -34.5 -87.5 q-23.5 -29.5 -48.5 -29.5 q-11 0 -20 6 q-9 6 -14 17 q-10 22 -44 55.5 q-34 33.5 -51 40.5 q-14 6 -14 9 q0 6 23 6 l41 -1 q32 0 48.5 12 q16.5 12 27.5 52 q8 32 30.5 184.5 q22.5 152.5 22.5 188.5 q0 5 -4.5 8.5 q-4.5 3.5 -10.5 2.5 q-66 -8 -191 -34 q-164 -395 -402 -522 q-17 -9 -25 -9 q-3 0 -3 3 q0 6 15 21 q84 83 164 211.5 q80 128.5 143 273.5 l-193 -42 q-4 -1 -12 -1 q-21 0 -36.5 14.5 q-15.5 14.5 -23 33.5 q-7.5 19 -5.5 27 q14 -5 35 -5 q17 0 32 3 l233 41 q47 119 68 206 q8 36 8 59 q0 26 -8 40 q44 -7 72 -27 q28 -20 28 -53 q0 -13 -4 -25 q-26 -89 -60 -182 l98 18 q67 11 77 14 q6 2 11 5.5 q5 3.5 8 4.5 l106 -63 ZM395 614 q-2 -8 -7.5 -32 q-5.5 -24 -12.5 -37 q-7 -13 -16 -13 q-11 0 -25 17 q-63 79 -86.5 116 q-23.5 37 -0.5 37 q13 0 46 -15 l75 -34 q15 -7 21.5 -12.5 q6.5 -5.5 6.5 -16.5 q0 -6 -1 -10 ZM630 262 q-9 -37 -17 -58.5 q-8 -21.5 -20 -21.5 q-10 0 -21 18 q-11 19 -25.5 40.5 q-14.5 21.5 -21.5 31.5 q-29 42 -36.5 57.5 q-7.5 15.5 4.5 15.5 q11 0 45 -15 l67 -30 q14 -6 20 -12 q6 -6 6 -17 q0 -6 -1 -9 Z" /><glyph glyph-name="uni4E3B" unicode="&#x4e3b;" d="M510 618 q-147 121 -147 149 q0 9 15 9 q8 0 23 -3 l125 -28 q19 -4 24.5 -8.5 q5.5 -4.5 5.5 -18.5 l-2 -20 q-3 -41 -8.5 -64 q-5.5 -23 -19.5 -23 q-8 0 -16 7 ZM858 86 q25 3 48 -9.5 q23 -12.5 37.5 -32.5 q14.5 -20 14.5 -36 q0 -20 -22 -20 q-50 15 -237 15 q-158 0 -352.5 -9.5 q-194.5 -9.5 -243.5 -16.5 q-25 -4 -45 26.5 q-20 30.5 -26 51.5 q95 0 397 11 q10 50 13 76.5 q3 26.5 3 79.5 l0 38 q-52 -6 -164 -23 q-25 -4 -45 26.5 q-20 30.5 -26 51.5 q98 1 235 17 l0 109 q0 28 -11 52 l-106 -20 l-77 -14 q-25 -4 -45 26.5 q-20 30.5 -26 51.5 q59 1 135 12 q76 11 184 31 q133 25 177 29 q25 3 48 -9.5 q23 -12.5 37.5 -32.5 q14.5 -20 14.5 -36 q0 -20 -22 -20 q-27 9 -81 9 q-69 0 -186 -18 q17 -7 32 -17.5 q15 -10.5 22 -21.5 q-2 -24 -8 -80 l-4 -40 l52 6 l73 8 q25 3 48 -9.5 q23 -12.5 37.5 -32.5 q14.5 -20 14.5 -36 q0 -20 -22 -20 q-45 13 -117 13 q-28 0 -90 -4 l0 -8 l0 -191 q274 11 333 17 Z" /><glyph glyph-name="uni4E3D" unicode="&#x4e3d;" d="M868 717 q25 3 48 -9.5 q23 -12.5 37.5 -32.5 q14.5 -20 14.5 -36 q0 -20 -22 -20 q-35 14 -142 14 q-146 0 -371 -22 q-225 -22 -311 -35 q-25 -4 -45 26.5 q-20 30.5 -26 51.5 q104 -1 358.5 20.5 q254.5 21.5 458.5 42.5 ZM733 555 q5 3 9.5 5.5 q4.5 2.5 7.5 3.5 l96 -57 q-9 -12 -14.5 -27 q-5.5 -15 -5.5 -28 l0 -385 q0 -57 -18 -92 q-18 -35 -41 -35 q-11 0 -22 12 q-11 12 -25 38 q-13 23 -24.5 36.5 q-11.5 13.5 -34.5 22.5 q-14 6 -14 9 q0 3 20 4 q33 1 47.5 4 q14.5 3 23 14.5 q8.5 11.5 8.5 37.5 l0 156 l-9 212 q0 10 -8 7 q-5 -2 -20 -9 q-15 -7 -57 -21 q-8 -2 -12 -2 q-17 0 -32 15 q-1 -21 -3 -37.5 q-2 -16.5 -3 -27.5 l-6 -65 q12 -2 26 -7 l67 -23 q11 -4 15.5 -9 q4.5 -5 4.5 -13 q0 -3 -2 -11 q-3 -8 -9.5 -24.5 q-6.5 -16.5 -12.5 -25.5 q-6 -9 -13 -9 q-9 0 -20 15 q-48 66 -58 84 q-1 -13 -1 -41 l0 -297 q0 -12 -8 -12 q-4 0 -12 4 q-8 4 -11 6 q-26 14 -49 34.5 q-23 20.5 -20 42.5 q20 103 20 250 l0 153 q0 19 -7 42 q-7 23 -15 30 q4 1 12 1 q22 0 47 -9.5 q25 -9.5 42 -23.5 q-6 13 -4 20 q18 -2 30 -2 q9 0 25 2 q40 7 90 32 ZM359 535 q5 3 9.5 5.5 q4.5 2.5 7.5 3.5 l96 -57 q-9 -12 -14.5 -27 q-5.5 -15 -5.5 -28 l0 -343 q0 -57 -18 -92 q-18 -35 -41 -35 q-11 0 -22 12 q-11 12 -25 38 q-13 23 -24.5 36.5 q-11.5 13.5 -34.5 22.5 q-14 6 -14 9 q0 3 20 4 q34 2 48.5 4.5 q14.5 2.5 22.5 14 q8 11.5 8 37.5 l0 124 l-9 202 q0 10 -8 7 q-5 -2 -20 -9 q-15 -7 -57 -21 q-8 -2 -13 -2 q-4 0 -12 2 l-10 -97 q11 -2 25 -7 l67 -23 q11 -4 15.5 -9 q4.5 -5 4.5 -13 q0 -3 -2 -11 q-3 -8 -9.5 -24.5 q-6.5 -16.5 -12.5 -25.5 q-6 -9 -13 -9 q-9 0 -20 15 q-44 62 -57 82 q-2 -38 -2 -59 l0 -277 q0 -12 -8 -12 q-4 0 -12 4 q-8 4 -11 6 q-26 14 -49 34.5 q-23 20.5 -20 42.5 q20 103 20 250 l0 133 q0 19 -7 42 q-7 23 -15 30 l11 1 q30 0 66 -17 l0 4 q18 -2 30 -2 q9 0 25 2 q40 7 90 32 Z" /><glyph glyph-name="uni4E3E" unicode="&#x4e3e;" d="M953 226 q29 -18 29 -26 q0 -8 -29 -8 l-123 0 q-19 0 -43 13.5 q-24 13.5 -45 39.5 q-119 141 -185 252 q-99 -5 -183 -12 q7 -16 7 -29 q0 -22 -14 -43 q-29 -46 -75 -94 q59 3 138 13 l0 38 q0 19 -7 42 q-7 23 -15 30 q4 1 12 1 q29 0 61 -15.5 q32 -15.5 45 -35.5 l-4 -46 l61 11 q20 3 38.5 -7 q18.5 -10 29.5 -25.5 q11 -15.5 11 -28.5 q0 -15 -17 -15 q-30 11 -77 11 q-25 0 -52 -3 q-6 -66 -6 -100 l0 -10 l169 20 q25 3 48 -9.5 q23 -12.5 37.5 -32.5 q14.5 -20 14.5 -36 q0 -20 -22 -20 q-39 14 -118 14 q-52 0 -129 -7 l0 -220 q0 -12 -8 -12 q-5 0 -12.5 4 q-7.5 4 -10.5 6 q-26 14 -49 34.5 q-23 20.5 -20 42.5 q12 60 17 136 q-52 -6 -162 -23 l-32 -5 q-25 -4 -45 26.5 q-20 30.5 -26 51.5 q111 3 268 21 l0 43 l0 65 q-15 -3 -27 -5.5 q-12 -2.5 -21 -4.5 l-64 -12 q-24 -4 -47 42 q-47 -46 -101 -82 q-54 -36 -106 -55 q-28 -10 -36 -10 q-16 0 23 32 q39 32 108.5 114 q69.5 82 110.5 151 l15 30 q-126 -12 -156 -17 q-25 -4 -45 26.5 q-20 30.5 -26 51.5 q96 2 477 28 q22 33 38 67.5 q16 34.5 33 94.5 q10 38 10 67 q0 18 -4 27 q40 -7 66 -26.5 q26 -19.5 26 -51.5 q0 -10 -5 -27 q-17 -51 -41 -84.5 q-24 -33.5 -61 -62.5 l194 13 q25 3 48 -9.5 q23 -12.5 37.5 -32.5 q14.5 -20 14.5 -36 q0 -20 -22 -20 q-43 14 -168 14 q-54 0 -83 -1 q87 -91 176.5 -160.5 q89.5 -69.5 158.5 -112.5 ZM511 687 q-4 -6 -16 -25.5 q-12 -19.5 -22 -30.5 q-10 -11 -19 -11 q-12 0 -22 24 q-32 75 -45 110 q-13 35 -13 46 q0 7 5 7 q6 0 30 -17 l19 -13 l69 -45 q20 -12 20 -27 q0 -7 -6 -18 ZM336 631 q-4 -6 -16 -25.5 q-12 -19.5 -22 -30.5 q-10 -11 -19 -11 q-12 0 -22 24 q-32 75 -45 110 q-13 35 -13 46 q0 7 5 7 q6 0 30 -17 l19 -13 l69 -45 q20 -12 20 -27 q0 -7 -6 -18 Z" /><glyph glyph-name="uni4E45" unicode="&#x4e45;" d="M921 1 q33 -22 46 -32.5 q13 -10.5 13 -16.5 q0 -6 -15 -8 q-15 -2 -50 -2 l-132 0 q-27 0 -47 16 q-20 16 -38 42 q-37 56 -122 193 l-23 39 q-8 11 -13 15 q-76 -112 -185.5 -194.5 q-109.5 -82.5 -269.5 -127.5 q-27 -8 -46 -8 q-13 0 -13 5 q0 9 34 24 q113 51 212 147 q99 96 172 214.5 q73 118.5 114 240.5 q2 7 1.5 9.5 q-0.5 2.5 -6.5 -0.5 q-44 -23 -90 -37 q-18 -5 -29 -5 q-21 0 -34 13 q-153 -198 -301 -251 q-30 -11 -39 -11 q-7 0 -1.5 8 q5.5 8 25.5 27 q67 62 154 174 q87 112 137 209 q12 24 20.5 51 q8.5 27 8.5 46 q0 7 -2 15 q43 -17 69.5 -42.5 q26.5 -25.5 26.5 -57.5 q0 -23 -14 -45 q-29 -45 -46 -70 l8 0 q13 0 25 3 q41 11 86 32 q22 10 23 10 q7 2 16 6.5 q9 4.5 13 6.5 l93 -80 l-29 -62 q-57 -127 -104 -206 q43 -32 119 -101 q65 -61 119 -105.5 q54 -44.5 114 -83.5 Z" /><glyph glyph-name="uni4E48" unicode="&#x4e48;" d="M449 586 q-62 -82 -149.5 -168 q-87.5 -86 -193.5 -151 q-19 -11 -28 -11 q-8 0 -5 9 q3 9 19 27 q64 70 137.5 167.5 q73.5 97.5 116.5 177.5 q16 30 24.5 52.5 q8.5 22.5 5.5 49.5 q37 -15 63 -44.5 q26 -29.5 26 -62.5 q0 -24 -16 -46 ZM850 140 q21 -13 28.5 -20 q7.5 -7 7.5 -22 q0 -7 -1 -11 q-9 -52 -27.5 -100.5 q-18.5 -48.5 -39.5 -48.5 q-15 0 -27 22 l-70 120 l-128 -30 q-318 -75 -337 -79 q-10 -2 -14 -2 q-26 0 -44.5 19.5 q-18.5 19.5 -28 45.5 q-9.5 26 -9.5 45 q0 5 2 11 q3 -1 10 -1 q40 0 102 56 q53 48 164.5 206.5 q111.5 158.5 162.5 254.5 q14 25 21.5 44.5 q7.5 19.5 7.5 41.5 q0 11 -1 16 q37 -14 61.5 -44.5 q24.5 -30.5 24.5 -63.5 q0 -24 -15 -47 q-90 -130 -190 -257 q-100 -127 -161 -187 q-9 -9 -11.5 -14 q-2.5 -5 3.5 -6 l42 5 q170 21 309 36 q-50 87 -63.5 116.5 q-13.5 29.5 -2.5 29.5 q9 0 42 -22 l182 -114 Z" /><glyph glyph-name="uni4E49" unicode="&#x4e49;" d="M919 -9 q55 -35 55 -47 q0 -7 -16.5 -9.5 q-16.5 -2.5 -54.5 -2.5 l-183 0 q-26 0 -42.5 14 q-16.5 14 -42.5 44 q-37 43 -145 193 q-168 -184 -404 -252 q-18 -5 -28 -5 q-11 0 -11 5 q0 8 24 22 q202 117 359 312 q-155 215 -181 241 q-14 14 -34 31.5 q-20 17.5 -28 21.5 q-9 5 -22 10 q-18 6 -18 14 q0 5 10.5 8.5 q10.5 3.5 28.5 3.5 q20 0 35.5 -5.5 q15.5 -5.5 32.5 -16.5 q21 -14 53.5 -45 q32.5 -31 87.5 -87 q95 -95 95 -95 q102 148 160 302 q15 39 15 73 q0 13 -3 20 q38 -10 61 -30 q23 -20 23 -50 q0 -14 -6 -31 q-75 -208 -177 -354 q188 -177 356 -285 ZM524 604 q-11 -34 -19 -50.5 q-8 -16.5 -21 -16.5 q-14 0 -33 22 q-55 63 -83 98 q-28 35 -36.5 54.5 q-8.5 19.5 9.5 19.5 q9 0 35 -8 l126 -43 q18 -6 25.5 -13.5 q7.5 -7.5 7.5 -19.5 q0 -10 -2 -16 l-9 -27 Z" /><glyph glyph-name="uni4E4B" unicode="&#x4e4b;" d="M509 609 q-87 52 -122.5 75.5 q-35.5 23.5 -35.5 35.5 q0 12 39 11 l130 -3 q21 -1 30 -8.5 q9 -7.5 10 -25.5 l0 -27 q-1 -36 -5 -52 q-4 -16 -19 -16 q-11 0 -27 10 ZM968 107 q11 0 11 -4 q0 -3 -8 -10 q-91 -76 -149 -102 q-17 -8 -42 -8 q-30 0 -53 10 q-158 63 -263 93 q-105 30 -225 42 q-6 1 -18 1 q-35 0 -82 -17 q-6 -2 -14.5 -4.5 q-8.5 -2.5 -13.5 -3.5 q-17 -3 -33 14 q-16 17 -27 38.5 q-11 21.5 -11 25.5 q24 0 69 5 q68 5 79 5 l20 0 q96 52 206 134 q110 82 175 160 q6 8 6 11 q0 3 -5 3 q-5 0 -8 -1 l-66 -21 q-23 -7 -120 -37.5 q-97 -30.5 -172 -50.5 q-10 -2 -16 -2 q-22 0 -39.5 14.5 q-17.5 14.5 -27 33.5 q-9.5 19 -8.5 29 q35 -2 73 5 q97 19 235 55 q138 36 202 65 q7 3 12.5 8 q5.5 5 8.5 6 l117 -70 q-96 -113 -228.5 -204 q-132.5 -91 -271.5 -143 q53 -6 104 -16.5 q51 -10.5 133 -29.5 q99 -23 156.5 -33.5 q57.5 -10.5 113.5 -10.5 q28 0 63.5 2 q35.5 2 48.5 3 q20 2 56 4 l12 1 Z" /><glyph glyph-name="uni4E4C" unicode="&#x4e4c;" d="M856 316 q-11 -15 -20 -55 q-15 -70 -56 -299 q-7 -40 -35.5 -62 q-28.5 -22 -59.5 -22 q-15 0 -26.5 5.5 q-11.5 5.5 -16.5 15.5 q-19 38 -55 65 q-3 3 -8.5 7 q-5.5 4 -5.5 5 q0 1 8 1 q8 0 15 0 l34 0 q31 0 45.5 10.5 q14.5 10.5 25.5 47.5 q9 33 27.5 131 q18.5 98 18.5 129 q0 5 -4 8 q-4 3 -9 2 q-35 -5 -96 -13 q-61 -8 -95 -12 q-212 -26 -258 -36 q-3 -1 -9 -1 q-17 0 -30.5 12 q-13.5 12 -20 28 q-6.5 16 -4.5 23 q25 1 42 19.5 q17 18.5 21 44.5 q7 51 7 129 l0 35 q-1 24 -9.5 50.5 q-8.5 26.5 -20.5 37.5 q17 4 38 4 q31 0 50 -12 l24 36 q44 64 72 108 q7 10 11.5 24 q4.5 14 3.5 26 q-1 17 13 17 q7 0 31 -8 q21 -9 38 -10 q9 -1 14.5 -3.5 q5.5 -2.5 5.5 -11.5 q0 -7 -4 -15 q-23 -52 -92 -117 l16 2 q21 4 59 14 q48 14 70 17 q5 1 10 4.5 q5 3.5 7 4.5 l96 -57 q-16 -22 -20 -55 q-3 -24 -7.5 -53.5 q-4.5 -29.5 -7.5 -51.5 l-5 -29 q-7 -45 -29.5 -71 q-22.5 -26 -49.5 -26 q-23 0 -41 21 q-39 47 -73 74 q-3 3 -11 9.5 q-8 6.5 -8 8.5 q0 1 6 1 q12 0 22 -2 q28 -4 41 -4 q25 0 41.5 11 q16.5 11 22.5 39 q6 26 8 49 q2 23 2 58 q0 4 -4 7.5 q-4 3.5 -9 2.5 q-19 -2 -42.5 -8.5 q-23.5 -6.5 -68.5 -23.5 q-8 -3 -14 -3 q-13 0 -24 9.5 q-11 9.5 -18 23.5 q-25 -21 -61 -47 q5 -11 7 -29 q1 -10 1 -30 q0 -31 -4 -61 q-4 -30 -13 -82 l-9 -56 q-1 -4 -1.5 -6.5 q-0.5 -2.5 -0.5 -4 q0 -1.5 3 -1.5 l1 0 q377 45 385 49 q5 3 9.5 5.5 q4.5 2.5 7.5 3.5 l96 -57 ZM538 180 q25 3 48 -9.5 q23 -12.5 37.5 -32.5 q14.5 -20 14.5 -36 q0 -20 -22 -20 q-36 14 -107 14 q-74 0 -158.5 -12 q-84.5 -12 -192.5 -32 l-52 -9 q-25 -4 -45 26.5 q-20 30.5 -26 51.5 q46 2 116 11 q70 9 138 19 q99 15 153.5 21.5 q54.5 6.5 95.5 7.5 Z" /><glyph glyph-name="uni4E4E" unicode="&#x4e4e;" d="M868 382 q25 3 48 -9.5 q23 -12.5 37.5 -32.5 q14.5 -20 14.5 -36 q0 -20 -22 -20 q-35 14 -141 14 q-88 0 -263 -13 l0 -268 q0 -57 -18 -92 q-18 -35 -41 -35 q-12 0 -22 12 q-12 13 -24 30 q-23 30 -40.5 47.5 q-17.5 17.5 -42.5 27.5 q-13 4 -13 8 q0 3 22 2 q12 -1 33 -1 q33 0 49.5 11 q16.5 11 16.5 41 l0 211 q-111 -10 -210 -21.5 q-99 -11.5 -130 -16.5 q-25 -4 -45 26.5 q-20 30.5 -26 51.5 q85 1 411 30 l0 206 q0 18 -6 39 q-6 21 -14 30 q-98 -23 -168 -32 q-24 -3 -34 -3 q-11 0 -11 3 q0 5 29 18 q29 13 90 38 q134 55 211 91 q29 20 37 37 q4 11 12 11 q6 0 14.5 -7.5 q8.5 -7.5 17.5 -17.5 q19 -19 28 -25 q12 -7 12 -15 q0 -8 -12 -19 q-19 -15 -78 -35.5 q-59 -20.5 -134 -39.5 q28 -2 58.5 -17 q30.5 -15 43.5 -34 q-5 -22 -10.5 -67.5 q-5.5 -45.5 -5.5 -89.5 l0 -65 q251 23 326 27 ZM582 431 q30 28 74 80 l53 60 q14 15 24.5 37.5 q10.5 22.5 9.5 36.5 q54 -33 54 -71 q0 -21 -16 -41 q-34 -44 -92 -76.5 q-58 -32.5 -99 -43.5 q-21 -6 -27 -6 q-5 0 1 6.5 q6 6.5 18 17.5 ZM367 459 q-3 -8 -11 -30.5 q-8 -22.5 -16.5 -34.5 q-8.5 -12 -17.5 -12 q-11 0 -25 20 q-37 53 -55 83.5 q-18 30.5 -18 43.5 q0 11 12 11 q8 0 35 -10 l73 -30 q26 -10 26 -27 q0 -6 -3 -14 Z" /><glyph glyph-name="uni4E4F" unicode="&#x4e4f;" d="M223 565 q-38 -6 -51 -6 q-14 0 -2.5 6.5 q11.5 6.5 51 22.5 q39.5 16 92.5 36 q195 76 313 125 q12 5 25.5 16 q13.5 11 19.5 24 q6 12 14 12 q11 0 34 -30 q21 -25 32 -33 q13 -9 13 -19 q0 -9 -15 -20 q-39 -26 -217.5 -70.5 q-178.5 -44.5 -308.5 -63.5 ZM968 52 q11 0 11 -4 q0 -3 -8 -10 q-91 -76 -149 -102 q-17 -8 -42 -8 q-30 0 -53 10 q-158 63 -263 93 q-105 30 -225 42 q-6 1 -18 1 q-35 0 -82 -17 q-6 -2 -14.5 -4.5 q-8.5 -2.5 -13.5 -3.5 q-17 -3 -33 14 q-16 17 -27 38.5 q-11 21.5 -11 25.5 q24 0 69 5 q68 5 79 5 l7 0 q243 107 415 257 q7 6 7 10 q0 4 -11 1 l-76 -24 q-172 -58 -275 -85 q-10 -2 -16 -2 q-22 0 -39.5 14.5 q-17.5 14.5 -27 33.5 q-9.5 19 -8.5 29 q35 -2 73 5 q48 8 128.5 28 q80.5 20 161.5 43 q-5 1 -15 7 q-84 50 -121 74.5 q-37 24.5 -37 36.5 q0 12 39 11 l130 -3 q21 -1 30 -8.5 q9 -7.5 10 -25.5 l0 -24 q0 -23 -1 -36.5 q-1 -13.5 -6 -22.5 q76 23 118 40 q7 3 12.5 8 q5.5 5 8.5 6 l117 -70 q-94 -95 -235.5 -176.5 q-141.5 -81.5 -290.5 -132.5 q87 -10 231 -45 q90 -22 152 -33 q62 -11 119 -11 q28 0 63.5 2 q35.5 2 48.5 3 q20 2 56 4 l12 1 Z" /><glyph glyph-name="uni4E50" unicode="&#x4e50;" d="M864 328 q-40 10 -133 10 q-82 0 -175 -6 l0 -333 q0 -57 -18 -92 q-18 -35 -41 -35 q-12 0 -22 12 q-12 13 -24 30 q-23 30 -40.5 47.5 q-17.5 17.5 -42.5 27.5 q-13 4 -13 8 q0 3 22 2 q12 -1 33 -1 q33 0 49.5 11 q16.5 11 16.5 41 l0 275 q-95 -8 -169.5 -19 q-74.5 -11 -99.5 -21 q-25 -4 -45 26.5 q-20 30.5 -26 51.5 l20 0 q51 6 59 56 q12 57 17 102 l12 86 q1 5 1 17 q0 18 -3 34.5 q-3 16.5 -9 22.5 q26 1 58 -17.5 q32 -18.5 48 -40.5 q19 13 121 63 l128 64 q34 23 41 41 q5 12 13 12 q6 0 14.5 -7.5 q8.5 -7.5 17.5 -17.5 q20 -22 34 -30 q13 -8 13 -16 q0 -11 -13 -21 q-39 -32 -120 -59 q-81 -27 -186 -40 q-36 -5 -61 -5 l-13 -54 q-22 -84 -30 -137 l-6 -38 q0 -5 5 -5 l107 11 l72 7 l0 96 q0 19 -7 42 q-7 23 -15 30 q4 1 12 1 q29 0 61 -15.5 q32 -15.5 45 -35.5 q-10 -45 -14 -108 l45 5 q152 18 183 20 q25 3 48 -9.5 q23 -12.5 37.5 -32.5 q14.5 -20 14.5 -36 q0 -20 -22 -20 ZM867 156 q4 -2 16.5 -6.5 q12.5 -4.5 16.5 -11.5 q4 -7 4 -19 q-1 -10 -4.5 -42.5 q-3.5 -32.5 -10.5 -52 q-7 -19.5 -18 -19.5 q-10 0 -23 14 q-150 160 -150 189 q0 8 11 8 q13 0 45 -13 l113 -47 ZM219 220 q19 -10 36.5 -23 q17.5 -13 24.5 -24 q4 -7 4 -16 q0 -10 -4 -20 q-4 -10 -5 -12 q-15 -33 -36 -58.5 q-21 -25.5 -60 -63.5 q-4 -5 -11 -10.5 q-7 -5.5 -12 -5.5 q-6 0 -8 9 q-4 15 -7 25 q-3 10 -5 17 q-7 19 -7 24 l0 7 q0 11 8 21 q40 34 60.5 62 q20.5 28 21.5 68 Z" /><glyph glyph-name="uni4E58" unicode="&#x4e58;" d="M875 47 q91 -44 91 -57 q0 -6 -16 -8.5 q-16 -2.5 -50 -2.5 l-113 0 q-26 0 -43 14 q-17 14 -42 44 q-90 108 -195 213 l0 -366 q0 -12 -8 -12 q-5 0 -12.5 4 q-7.5 4 -10.5 6 q-26 14 -49 34.5 q-23 20.5 -20 42.5 q20 103 20 250 l0 11 q-93 -101 -173 -154.5 q-80 -53.5 -184 -74.5 q-10 -2 -14 -2 q-6 0 -6 3 q0 4 13 11 q57 33 126.5 91 q69.5 58 138.5 136 q0 0 -0.5 0.5 q-0.5 0.5 -0.5 0.5 q-39 19 -49 51 q-23 -20 -46.5 -39.5 q-23.5 -19.5 -38.5 -26.5 q-9 -5 -20 -5 q-16 0 -28 11.5 q-12 11.5 -18.5 26.5 q-6.5 15 -4.5 22 q2 -4 18 -4 q17 0 37 8 q28 12 66 31 q11 5 19 9 q8 4 15 7 q5 34 6 66 q-10 -2 -18 -3.5 q-8 -1.5 -14 -2.5 q-22 -4 -34.5 -7.5 q-12.5 -3.5 -33.5 -13.5 q-11 -1 -20.5 8.5 q-9.5 9.5 -15.5 22.5 q-6 13 -7 18 q45 3 57.5 5 q12.5 2 27.5 7 q22 8 37 13 q8 2 12 2 l9 -1 q0 17 -6.5 37.5 q-6.5 20.5 -13.5 27.5 l10 1 q26 0 56 -14.5 q30 -14.5 41 -32.5 l-6 -61 q-9 -72 -9 -123 l0 -10 q13 15 44 54 q19 24 28 48 l0 172 q-108 -13 -212 -33 l-49 -8 q-16 -2 -30 12.5 q-14 14.5 -23 32.5 q-9 18 -11 26 q90 -4 325 22 l0 26 q0 25 -11 54 q-69 -9 -137 -9 q-34 0 -34 5 q0 5 25 15 q25 10 85 31 q108 37 167 61 q31 17 41 34 q5 9 12 9 q5 0 12 -7 q7 -7 11 -12.5 q4 -5.5 6 -7.5 q16 -21 26 -28 q11 -7 11 -16 q0 -9 -14 -18 q-21 -14 -63 -27 q-42 -13 -96 -22 q41 -18 55 -40 l-3 -38 l66 7 q123 13 154 15 q23 3 44 -9 q21 -12 34 -30 q13 -18 13 -32 q0 -18 -20 -18 q-73 20 -175 20 q-40 0 -122 -6 q-7 -65 -7 -112 l0 -117 q36 -19 70.5 -46 q34.5 -27 84.5 -70 q65 -56 111 -90.5 q46 -34.5 102 -61.5 ZM785 393 q0 11 2.5 17 q2.5 6 5.5 6 q2 0 4.5 -3.5 q2.5 -3.5 3.5 -8.5 q1 -23 10.5 -40.5 q9.5 -17.5 26.5 -41.5 q11 -15 11 -27 q0 -28 -47.5 -35 q-47.5 -7 -131.5 -7 q-59 0 -82 36 q-23 36 -25 84 l-4 111 q-1 17 -6.5 35 q-5.5 18 -11.5 24 q4 2 25.5 -3.5 q21.5 -5.5 43 -16 q21.5 -10.5 28.5 -21.5 q-9 -12 -9 -89 q8 6 52 39 l36 28 q14 11 27 28 q13 17 15 29 q16 -14 25.5 -30.5 q9.5 -16.5 9.5 -31.5 q0 -23 -22 -39 q-30 -22 -69 -38 q-39 -16 -73 -22 q3 -29 14.5 -40.5 q11.5 -11.5 38.5 -11.5 q51 0 71.5 5.5 q20.5 5.5 25.5 18 q5 12.5 5 45.5 Z" /><glyph glyph-name="uni4E5D" unicode="&#x4e5d;" d="M968 76 q8 -14 8 -24 q0 -41 -87 -61 q-87 -20 -240 -20 q-72 0 -101 45 q-29 45 -29 101 q0 71 13 138.5 q13 67.5 38 162.5 l18 70 q1 3 1 7 q0 12 -14 7 l-151 -50 q-44 -163 -121 -293 q-77 -130 -206 -205 q-18 -10 -29 -15.5 q-11 -5.5 -11 -2.5 q0 4 24 33 q88 103 142.5 212 q54.5 109 87.5 234 q-24 -8 -36 -11 q-94 -30 -112 -36 q-9 -3 -17 -3 q-20 0 -34 14 q-14 14 -21 33 q-7 19 -7 34 q0 7 1 9 q21 -5 70 -5 q34 0 173 36 q18 90 30 182 q2 20 2 33 q0 24 -4 46 q-4 22 -11 34 q55 -1 91.5 -23 q36.5 -22 36.5 -66 q0 -6 -2 -18 q-13 -78 -30 -156 q143 40 159 47 q7 2 14 6 q7 4 10 5 l92 -95 q-5 -7 -39 -56 q-34 -49 -56 -119 q-22 -70 -22 -145 q0 -41 5 -63 q5 -22 19 -31.5 q14 -9.5 42 -9.5 q104 0 151.5 22.5 q47.5 22.5 60 64 q12.5 41.5 12.5 123.5 q0 13 4.5 20 q4.5 7 10.5 7 q10 0 11 -12 q2 -50 16 -108 q14 -58 37 -98 Z" /><glyph glyph-name="uni4E5F" unicode="&#x4e5f;" d="M971 71 q7 -13 7 -24 q0 -31 -47 -48.5 q-47 -17.5 -122 -25.5 q-119 -11 -243 -11 q-83 0 -144 4 q-191 12 -191 188 l0 140 l-47 -31 l-42 -27 q-16 -10 -34 -10 q-19 0 -37.5 9.5 q-18.5 9.5 -31 22.5 q-12.5 13 -13.5 21 q14 0 31 7 q17 7 43 19 q36 17 131 71 l0 128 q0 19 -7 42 q-7 23 -15 30 q5 2 31.5 -5 q26.5 -7 52 -19 q25.5 -12 34.5 -26 l-4 -35 q-6 -35 -8 -67 l97 56 l0 8 l0 240 q0 19 -7 42 q-7 23 -15 30 q4 1 12 1 q29 0 61 -15.5 q32 -15.5 45 -35.5 q-4 -48 -7 -72 q-1 -12 -5 -53.5 q-4 -41.5 -4 -77.5 l0 -20 q111 64 116 69 q5 5 8 9 q3 4 4 5 l111 -14 q-1 -4 -1 -13 q0 -9 2 -25 q2 -14 2 -21 l-1 -219 q0 -57 -18 -92 q-18 -35 -41 -35 q-11 0 -22 12 q-12 14 -24 30 q-23 30 -40.5 47.5 q-17.5 17.5 -42.5 27.5 q-13 4 -13 8 q0 3 22 2 q12 -1 33 -1 q33 0 49.5 11 q16.5 11 16.5 41 l0 107 l-4 58 q-1 4 -6 5 q-5 1 -10 -1 q-31 -15 -141 -81 l0 -294 q0 -12 -8 -12 q-5 0 -12.5 4 q-7.5 4 -10.5 6 q-26 14 -49 34.5 q-23 20.5 -20 42.5 q15 73 18 169 l-33 -21 q-66 -42 -66 -42 l0 -22 l0 -151 q0 -51 20.5 -76.5 q20.5 -25.5 45.5 -32.5 q25 -7 61 -10 q67 -5 139 -5 q89 0 148 7 q69 12 102.5 37.5 q33.5 25.5 44 64.5 q10.5 39 10.5 106 q0 13 6.5 20 q6.5 7 14.5 7 q14 0 15 -12 q2 -50 16 -108 q14 -58 37 -98 Z" /><glyph glyph-name="uni4E60" unicode="&#x4e60;" d="M180 676 q21 -5 70 -5 q36 0 246 29.5 q210 29.5 229 38.5 q5 3 9.5 5.5 q4.5 2.5 7.5 3.5 l96 -57 q-11 -15 -20 -55 q-4 -18 -9 -84.5 q-5 -66.5 -6 -86.5 q-9 -144 -19.5 -253.5 q-10.5 -109.5 -25.5 -178.5 q-7 -31 -26 -58.5 q-19 -27.5 -42 -44 q-23 -16.5 -43 -16.5 q-21 0 -32 21 q-12 24 -54.5 67.5 q-42.5 43.5 -76.5 58.5 q-16 6 -16 10 q0 4 11 4 q9 0 14 -1 l28 -3 q46 -6 68 -6 q75 0 89 48 q7 24 29 271.5 q22 247.5 22 285.5 q0 5 -4 8 q-4 3 -9 2 q-129 -18 -215.5 -36 q-86.5 -18 -242.5 -55 q-10 -2 -15 -2 q-21 0 -35.5 14 q-14.5 14 -21.5 33 q-7 19 -7 33 q0 7 1 9 ZM385 384 q-46 66 -68 103 q-22 37 -22 52 q0 12 14 12 q16 0 44 -12 l89 -36 q17 -7 24.5 -14.5 q7.5 -7.5 7.5 -18.5 q0 -4 -4 -18 l-8 -21 q-13 -34 -23 -52.5 q-10 -18.5 -23 -18.5 q-14 0 -31 24 ZM614 412 q12 6 21 6 q11 0 11 -7 q0 -8 -14 -21 q-44 -37 -88 -76 q-262 -229 -316 -270 q-22 -16 -43 -16 q-24 0 -46 16.5 q-22 16.5 -35.5 37.5 q-13.5 21 -13.5 33 q4 -2 12 -2 q34 0 80 28 l168 105 q245 157 264 166 Z" /><glyph glyph-name="uni4E66" unicode="&#x4e66;" d="M685 379 q5 1 10 4.5 q5 3.5 7 4.5 l96 -57 q-9 -12 -14.5 -27 q-5.5 -15 -5.5 -28 q0 -74 -2 -120.5 q-2 -46.5 -11 -89.5 q-12 -57 -35.5 -92 q-23.5 -35 -46.5 -35 q-12 0 -23 12 q-12 13 -24 30 q-23 30 -40.5 47.5 q-17.5 17.5 -42.5 27.5 q-13 4 -13 8 q0 3 22 2 q11 -1 30 -1 q32 0 50 11 q18 11 29 41 q11 32 14.5 61.5 q3.5 29.5 3.5 65.5 l0 56 q0 5 -4 8 q-4 3 -9 2 q-6 -1 -73 -10 l-201 -29 l0 -387 q0 -12 -8 -12 q-4 0 -12 4 q-8 4 -11 6 q-26 14 -49 34.5 q-23 20.5 -20 42.5 q20 103 20 250 l0 50 q-157 -23 -223 -36 q-3 -1 -8 -1 q-18 0 -31 14 q-13 14 -20 31.5 q-7 17.5 -5 25.5 q9 -1 27 -1 q19 0 28 1 l232 29 l0 170 l-93 -19 q-20 -4 -35 9 q-15 13 -23 31.5 q-8 18.5 -6 26.5 q36 -3 39 -3 q11 0 16 1 q15 2 78 13 l24 4 l0 181 q0 19 -7 42 q-7 23 -15 30 q4 1 12 1 q29 0 61 -15.5 q32 -15.5 45 -35.5 q-4 -46 -7 -69 q-8 -78 -9 -118 q59 11 146 30 q10 1 17 11 l138 -55 q-9 -4 -16.5 -15 q-7.5 -11 -18.5 -32 l-76 -148 l93 17 ZM829 684 q15 -7 21.5 -14 q6.5 -7 6.5 -16 q0 -7 -3 -16 q-3 -5 -4.5 -10.5 q-1.5 -5.5 -3.5 -9.5 q-12 -31 -21 -47 q-9 -16 -20 -16 q-13 0 -28 21 q-45 65 -66.5 98 q-21.5 33 -28 51.5 q-6.5 18.5 7.5 18.5 q9 0 34 -11 l105 -49 ZM402 333 l93 14 l63 183 l0 2 q0 4 -4.5 6 q-4.5 2 -9.5 1 q-49 -8 -142 -29 l0 -177 Z" /><glyph glyph-name="uni4E70" unicode="&#x4e70;" d="M216 621 q-5 -1 -13 -1 q-32 0 -47.5 21.5 q-15.5 21.5 -15.5 45.5 q0 11 3 17 q18 -7 34.5 -10 q16.5 -3 41.5 -3 q39 0 151.5 19 q112.5 19 223.5 42.5 q111 23.5 140 35.5 q8 3 15.5 5.5 q7.5 2.5 12.5 3.5 l127 -108 q-143 -87 -214 -118 q-23 -11 -39 -11 q-10 0 -10 7 q0 11 22 37 l61 72 q5 7 5 12 q0 6 -4.5 10.5 q-4.5 4.5 -11.5 3.5 q-50 -3 -230 -37 q-166 -32 -252 -44 ZM834 335 q25 3 48 -9.5 q23 -12.5 37.5 -32.5 q14.5 -20 14.5 -36 q0 -20 -22 -20 q-48 12 -182 12 q-81 0 -191 -5 q-51 -135 -146 -212 q-95 -77 -255 -118 q-34 -9 -47 -9 q-18 0 29 22 q97 45 174.5 117 q77.5 72 129.5 194 q-105 -7 -182.5 -16 q-77.5 -9 -100.5 -18 q-25 -4 -45 26.5 q-20 30.5 -26 51.5 l27 -1 q49 0 122.5 6.5 q73.5 6.5 188.5 18.5 l43 4 q29 91 44 206 q2 22 -4.5 53.5 q-6.5 31.5 -15.5 49.5 q62 2 93.5 -17.5 q31.5 -19.5 31.5 -69.5 q-15 -130 -37 -211 q160 16 230 16 q17 0 41 -2 ZM425 491 q-5 -25 -10 -37.5 q-5 -12.5 -15 -12.5 q-9 0 -22 13 q-41 41 -68.5 70 q-27.5 29 -33.5 39 q-6 10 3 10 q6 0 34 -7 l28 -7 l63 -14 q16 -4 21.5 -11 q5.5 -7 4.5 -22 l-5 -21 ZM339 426 q17 -4 23 -11.5 q6 -7.5 5 -24.5 l-4 -20 q-6 -29 -11.5 -43.5 q-5.5 -14.5 -16.5 -14.5 q-10 0 -25 15 q-46 46 -77 77.5 q-31 31.5 -37 42 q-6 10.5 5 10.5 q7 0 45 -9 l23 -6 l70 -16 ZM801 72 q23 -7 29.5 -13.5 q6.5 -6.5 7.5 -25.5 q-2 -13 -4 -39 q-3 -40 -8 -60.5 q-5 -20.5 -20 -20.5 q-10 0 -24 11 q-86 70 -151 131 q-65 61 -93.5 97 q-28.5 36 -9.5 36 q9 0 30 -9 l243 -107 Z" /><glyph glyph-name="uni4E71" unicode="&#x4e71;" d="M966 53 q8 -14 8 -26 q0 -39 -74.5 -59 q-74.5 -20 -196.5 -20 q-72 0 -101 45 q-29 45 -29 101 l0 616 q0 19 -7 42 q-7 23 -15 30 q5 2 31.5 -5 q26.5 -7 52 -19 q25.5 -12 34.5 -26 q-3 -47 -9.5 -291.5 q-6.5 -244.5 -6.5 -302.5 q0 -41 5 -63 q5 -22 19 -31.5 q14 -9.5 42 -9.5 q81 0 116.5 22 q35.5 22 43.5 62 q8 40 8 126 q0 13 4.5 20 q4.5 7 10.5 7 q10 0 11 -12 q2 -50 16 -108 q14 -58 37 -98 ZM473 479 q25 3 48.5 -9.5 q23.5 -12.5 37.5 -32.5 q14 -20 14 -36 q0 -20 -23 -20 q-30 11 -80 11 q-45 0 -110 -10 l0 -10 l0 -106 l39 11 q11 3 17 11 l138 -55 q-17 -7 -35 -47 l-52 -113 q20 -8 33.5 -24.5 q13.5 -16.5 13.5 -29.5 q0 -14 -17 -15 q-53 5 -87 5 q-45 0 -83 -5.5 q-38 -5.5 -81 -15.5 l-5 -1 q4 -38 4 -62 q0 -13 -10 -13 q-6 0 -20 7 q-4 2 -25.5 13 q-21.5 11 -36.5 26.5 q-15 15.5 -15 31.5 q2 50 2 91 q0 79 -7 104 q-17 62 -31 69 q11 4 26 4 q24 0 49.5 -9.5 q25.5 -9.5 41.5 -23.5 q-6 16 -5 22 q15 -4 29 -4 q7 0 27 2 l15 2 q-30 26 -26 48 q11 58 13 72 l-65 -14 q-88 -19 -115 -22 q-25 -3 -43 24 q-18 27 -29 54 q60 1 119.5 9.5 q59.5 8.5 138.5 23.5 q1 20 1 63 l0 48 q0 18 -4 31 q-67 -17 -113 -24 q-24 -4 -38 -4 q-11 0 -11 4 q0 5 25 19 q25 14 86 45 q110 55 163 86 q31 15 40 32 q6 9 11 9 q6 0 12 -6.5 q6 -6.5 16 -20.5 q18 -25 27 -31 q11 -7 11 -16 q0 -9 -15 -17 q-47 -26 -145 -57 q20 -12 31 -28 q-1 -16 -3 -37.5 q-2 -21.5 -3 -32.5 l-4 -45 q49 11 108 19 ZM417 218 q-18 -4 -64 -18 q-17 -5 -36.5 -10 q-19.5 -5 -38.5 -10 q-3 -1 -8 -1 q-25 0 -44 30 l9 -139 l2 -23 q36 1 65.5 6 q29.5 5 89.5 17 l33 139 l1 3 q0 8 -9 6 Z" /><glyph glyph-name="uni4E86" unicode="&#x4e86;" d="M805 662 q-21 -15 -63.5 -50 q-42.5 -35 -69.5 -57 q-96 -78 -127 -102 q11 -48 13.5 -123.5 q2.5 -75.5 2.5 -292.5 q0 -37 -14 -66 q-14 -29 -34.5 -45 q-20.5 -16 -39.5 -16 q-16 0 -27 12 q-54 62 -121 105 q-12 8 -12 9 q0 2 7 2 l40 -1 q113 0 113 51 l0 167 l0 63 q0 39 -3.5 66.5 q-3.5 27.5 -13.5 48.5 q-8 17 -24.5 34.5 q-16.5 17.5 -27.5 20.5 q26 19 75 19 q22 0 37 -4 l109 149 q9 13 9 14 q0 3 -10 0 l-48 -13 q-266 -70 -321 -88 q-11 -3 -19 -3 q-22 0 -37 15.5 q-15 15.5 -23 37 q-8 21.5 -8 37.5 q0 7 1 9 q23 -6 77 -6 q27 0 119 17 q92 17 189 38 q97 21 109 25 q7 2 15 6.5 q8 4.5 11 5.5 l116 -85 Z" /><glyph glyph-name="uni4E8B" unicode="&#x4e8b;" d="M866 303 q23 3 44 -9 q21 -12 34 -30 q13 -18 13 -32 q0 -18 -20 -18 q-38 16 -188 14 l-21 -46 q17 -7 28.5 -21.5 q11.5 -14.5 11.5 -26.5 q0 -13 -15 -13 q-27 3 -74 3 q-62 0 -154 -5 l0 -117 q0 -57 -18 -92 q-18 -35 -41 -35 q-12 0 -22 12 q-12 13 -24 30 q-23 30 -40.5 47.5 q-17.5 17.5 -42.5 27.5 q-13 4 -13 8 q0 3 22 2 q12 -1 33 -1 q33 0 49.5 11 q16.5 11 16.5 41 l0 60 q-156 -11 -195 -21 q-18 -4 -34 17 q-16 21 -20 35 q68 0 249 16 l0 54 q-117 -8 -217.5 -17 q-100.5 -9 -127.5 -14 q-22 -4 -39.5 23 q-17.5 27 -24.5 48 q63 2 409 24 l0 44 l-76 -12 q-53 -7 -86 -13 q-18 -3 -32 8.5 q-14 11.5 -21 28 q-7 16.5 -5 24.5 q33 -3 36 -3 q10 0 14 1 l170 23 l0 50 q-71 -6 -105 -14 l3 -24 l0 -3 q0 -9 -8 -9 q-7 0 -19 7 q-32 17 -51 30.5 q-19 13.5 -19 31.5 l1 32 q0 19 -5 39 q-4 20 -12 39 q-8 19 -16 23 q10 3 24 3 q17 0 35.5 -5 q18.5 -5 32.5 -14 l0 9 q33 -3 36 -3 q10 0 14 1 q44 5 89 12 l0 42 q-92 -8 -176 -18 q-84 -10 -114 -15 q-22 -4 -39.5 23 q-17.5 27 -24.5 48 q73 2 354 26 l0 54 q0 19 -7 42 q-7 23 -15 30 q4 1 12 1 q29 0 61 -15.5 q32 -15.5 45 -35.5 q-7 -32 -11 -69 q174 15 243 18 q23 3 44 -9 q21 -12 34 -30 q13 -18 13 -32 q0 -18 -20 -18 q-34 14 -133 14 q-80 0 -186 -8 l0 -23 l0 -15 l106 16 q9 1 15 10 l125 -50 q-16 -7 -32 -43 l-15 -34 q14 -8 23.5 -20.5 q9.5 -12.5 9.5 -22.5 q0 -14 -16 -14 q-35 3 -86 3 q-71 0 -130 -4 l0 -45 l162 24 q9 1 15 10 l125 -50 q-16 -7 -32 -43 l-15 -32 l86 4 ZM627 553 q-20 -4 -62 -9 l-40 -6 l0 -56 l100 11 l15 52 l0 2 q0 3 -4.5 5 q-4.5 2 -8.5 1 ZM445 475 l0 51 l-27 -4 q-36 -5 -54 -9 q-18 -4 -37 13 l6 -59 l112 8 ZM525 283 l150 9 l21 57 l0 2 q0 3 -4.5 5 q-4.5 2 -8.5 1 q-29 -5 -158 -23 l0 -51 ZM649 225 q-62 -2 -124 -6 l0 -52 l39 4 q48 4 68 7 l17 47 Z" /><glyph glyph-name="uni4E8C" unicode="&#x4e8c;" d="M258 473 q-25 -4 -45 26.5 q-20 30.5 -26 51.5 q67 0 144.5 13.5 q77.5 13.5 191.5 39.5 q86 20 126 27 q25 3 48 -9.5 q23 -12.5 37.5 -32.5 q14.5 -20 14.5 -36 q0 -20 -22 -20 q-32 5 -68 5 q-95 0 -223 -22 q-128 -22 -178 -43 ZM113 57 q-25 -4 -45 26.5 q-20 30.5 -26 51.5 q84 2 187.5 11.5 q103.5 9.5 245.5 26.5 q245 28 375 35 q25 3 48 -11 q23 -14 37.5 -36 q14.5 -22 14.5 -39 q0 -22 -22 -22 q-53 10 -172 10 q-113 0 -254.5 -8.5 q-141.5 -8.5 -251.5 -21 q-110 -12.5 -137 -23.5 Z" /><glyph glyph-name="uni4E8E" unicode="&#x4e8e;" d="M845 459 q25 3 48 -9.5 q23 -12.5 37.5 -32.5 q14.5 -20 14.5 -36 q0 -20 -22 -20 q-39 10 -154 10 q-87 0 -231 -7 l0 -352 q0 -57 -18 -92 q-18 -35 -41 -35 q-12 0 -22 12 q-12 13 -24 30 q-23 30 -40.5 47.5 q-17.5 17.5 -42.5 27.5 q-13 4 -13 8 q0 3 22 2 q12 -1 33 -1 q33 0 49.5 11 q16.5 11 16.5 41 l0 296 q-131 -9 -229.5 -20 q-98.5 -11 -123.5 -21 q-25 -4 -45 26.5 q-20 30.5 -26 51.5 q94 1 424 28 l0 145 q0 15 -4.5 33.5 q-4.5 18.5 -11.5 30.5 q-88 -10 -132 -27 q-25 -4 -45 26.5 q-20 30.5 -26 51.5 q67 1 132 7 q65 6 155 17 q84 10 114 13 q25 3 48 -9.5 q23 -12.5 37.5 -32.5 q14.5 -20 14.5 -36 q0 -20 -22 -20 q-61 16 -156 16 q-39 0 -78 -3 q23 -7 42 -19 q19 -12 28 -26 q-5 -22 -10.5 -67.5 q-5.5 -45.5 -5.5 -89.5 l0 -3 q240 21 307 28 Z" /><glyph glyph-name="uni4E92" unicode="&#x4e92;" d="M881 86 q25 3 48 -9.5 q23 -12.5 37.5 -32.5 q14.5 -20 14.5 -36 q0 -20 -22 -20 q-42 16 -181 16 q-109 0 -253.5 -8.5 q-144.5 -8.5 -267 -19.5 q-122.5 -11 -157.5 -17 q-25 -4 -45 26.5 q-20 30.5 -26 51.5 q60 2 319 19 l169 10 l51 168 q-254 -34 -300 -56 q-16 -3 -30 11.5 q-14 14.5 -22.5 33 q-8.5 18.5 -10.5 26.5 q24 5 39 22.5 q15 17.5 26 41.5 q49 106 94 240 q8 24 11 52 q-114 -19 -142 -32 q-16 -3 -30 11.5 q-14 14.5 -22.5 33 q-8.5 18.5 -10.5 26.5 q97 6 295 39.5 q198 33.5 268 55.5 q11 3 21 3 q21 0 40 -10.5 q19 -10.5 31 -25 q12 -14.5 12 -25.5 q0 -14 -16 -15 q-48 -6 -60 -7 q-45 -6 -142 -18 q-97 -12 -168 -23 q21 -23 21 -49 q0 -13 -6 -30 q-11 -31 -27 -70 l4 0 q36 4 73.5 9.5 q37.5 5.5 99.5 17.5 q10 1 17 11 l138 -55 q-10 -4 -24.5 -23.5 q-14.5 -19.5 -19.5 -34.5 l-105 -322 q164 10 259 14 ZM349 265 q125 18 240 39 l37 121 l0 2 q0 4 -4.5 6 q-4.5 2 -9.5 1 q-25 -3 -91 -17 l-69 -13 q-3 -1 -8 -1 q-13 0 -28 11 q-26 -63 -64 -133 q-1 -2 -3 -6.5 q-2 -4.5 -2 -7 q0 -2.5 2 -2.5 Z" /><glyph glyph-name="uni4E94" unicode="&#x4e94;" d="M852 69 q25 3 48 -9.5 q23 -12.5 37.5 -32.5 q14.5 -20 14.5 -36 q0 -20 -22 -20 q-44 16 -211 16 q-154 0 -356 -12.5 q-202 -12.5 -257 -20.5 q-25 -4 -45 26.5 q-20 30.5 -26 51.5 l151 5 q30 2 92 4 q-8 16 -8 27 q0 8 3 15 q41 82 91 226 q-77 -16 -119 -31 q-8 -2 -11 -2 q-16 0 -28.5 14.5 q-12.5 14.5 -19.5 32.5 q-7 18 -5 25 q18 -2 30 -2 q9 0 25 2 l151 28 q30 97 56 191 q4 13 4 34 q0 12 -1 18 q-108 -18 -138 -31 q-16 -3 -30 11.5 q-14 14.5 -22.5 33 q-8.5 18.5 -10.5 26.5 q93 6 219.5 30 q126.5 24 201.5 48 q10 3 22 3 q20 0 39 -9.5 q19 -9.5 31 -23.5 q12 -14 12 -26 q0 -13 -16 -17 q-32 -8 -92 -16 q-60 -8 -85 -12 l-92 -12 q20 -12 35.5 -29 q15.5 -17 20.5 -32 q-9 -27 -29 -79 l-33 -91 q146 28 150 30 q5 3 9.5 5.5 q4.5 2.5 7.5 3.5 l117 -57 q-21 -29 -27 -55 q-7 -34 -33 -130 q-5 -19 -15.5 -59 q-10.5 -40 -16.5 -72 l181 10 ZM367 45 l210 10 l11 55 q25 115 45 234 l0 1 q0 4 -4 7 q-4 3 -9 2 q-90 -13 -162 -27 l-91 -282 Z" /><glyph glyph-name="uni4E9B" unicode="&#x4e9b;" d="M931 339 q7 -11 7 -22 q0 -40 -82.5 -61.5 q-82.5 -21.5 -186.5 -21.5 q-72 0 -101 45 q-29 45 -29 101 l0 124 q-4 -4 -14 -4 q-27 3 -46 3 q-22 0 -39.5 -4.5 q-17.5 -4.5 -42.5 -16.5 l0 -7 l0 -123 l25 9 q56 20 57 20 q11 3 17 3 q11 0 11 -6 q0 -5 -15 -17 q-36 -26 -149 -95 q-113 -69 -158 -92 q-18 -8 -30 -8 q-23 0 -41 17.5 q-18 17.5 -27.5 39.5 q-9.5 22 -7.5 33 q12 -4 24 -4 q22 0 53 10 l0 257 q0 19 -7 42 q-7 23 -15 30 q4 1 12 1 q29 0 61 -15.5 q32 -15.5 45 -35.5 q-4 -48 -7 -72 q-1 -12 -5 -53.5 q-4 -41.5 -4 -77.5 l0 -46 l81 30 l0 334 q0 19 -7 42 q-7 23 -15 30 q4 1 12 1 q29 0 61 -15.5 q32 -15.5 45 -35.5 q-1 -22 -3 -38 q-2 -16 -3 -26 l-6 -64 q7 3 21 11 q25 14 41 19 q24 2 45.5 -13 q21.5 -15 30.5 -35 l0 185 q0 19 -7 42 q-7 23 -15 30 q5 2 31.5 -5 q26.5 -7 52 -19 q25.5 -12 34.5 -26 q-6 -76 -14 -231 q57 46 125 105 q25 25 29 43 q3 13 12 13 q8 0 31 -17 q4 -2 15 -9.5 q11 -7.5 20 -10.5 q16 -5 16 -15 q0 -6 -9 -18 q-29 -36 -80 -65.5 q-51 -29.5 -141 -58.5 l-19 -6 q-1 -18 -1 -45 q0 -41 5 -63 q5 -22 19 -31.5 q14 -9.5 42 -9.5 q82 0 114.5 8 q32.5 8 41.5 32.5 q9 24.5 9 87.5 q0 13 4.5 20 q4.5 7 10.5 7 q10 0 11 -12 q1 -31 7.5 -47 q6.5 -16 23.5 -40 q16 -23 24 -37 ZM315 89 q-25 -4 -45 26.5 q-20 30.5 -26 51.5 q59 1 110 6.5 q51 5.5 123 15.5 q88 12 136 16 q25 3 48 -9.5 q23 -12.5 37.5 -32.5 q14.5 -20 14.5 -36 q0 -20 -22 -20 q-60 20 -128 20 q-46 0 -86 -6.5 q-40 -6.5 -105 -19.5 q-26 -6 -57 -12 ZM823 43 q25 3 48 -9.5 q23 -12.5 37.5 -32.5 q14.5 -20 14.5 -36 q0 -20 -22 -20 q-57 19 -192 19 q-138 0 -313 -16 q-175 -16 -250 -27 q-25 -4 -45 26.5 q-20 30.5 -26 51.5 q103 2 374.5 18.5 q271.5 16.5 373.5 25.5 Z" /><glyph glyph-name="uni4EA1" unicode="&#x4ea1;" d="M508 578 q-87 84 -122.5 122.5 q-35.5 38.5 -35.5 50.5 q0 7 12 7 q13 0 56 -12 l113 -31 q25 -7 34 -14.5 q9 -7.5 8 -27.5 q-5 -57 -10.5 -85 q-5.5 -28 -23.5 -28 q-11 0 -31 18 ZM821 523 q25 3 48 -9.5 q23 -12.5 37.5 -32.5 q14.5 -20 14.5 -36 q0 -20 -22 -20 q-39 13 -154 13 q-162 0 -450 -25 q41 -17 55 -40 q-5 -22 -10.5 -67.5 q-5.5 -45.5 -5.5 -89.5 l0 -105 q0 -5 3.5 -8.5 q3.5 -3.5 8.5 -2.5 q30 5 96.5 8.5 q66.5 3.5 133.5 6.5 q140 6 178 10 q25 3 48 -9.5 q23 -12.5 37.5 -32.5 q14.5 -20 14.5 -36 q0 -20 -22 -20 q-64 16 -210 16 q-109 0 -209 -8.5 q-100 -8.5 -133 -22.5 q-25 -4 -45 26.5 q-20 30.5 -26 51.5 l15 0 q12 1 17.5 8 q5.5 7 5.5 23 l3 67 q4 98 4 152 l0 11 q0 13 -3.5 29 q-3.5 16 -8.5 28 q-100 -10 -137 -16 q-25 -4 -45 26.5 q-20 30.5 -26 51.5 q64 1 240.5 13.5 q176.5 12.5 338.5 24.5 q184 14 208 15 Z" /><glyph glyph-name="uni4EA4" unicode="&#x4ea4;" d="M459 677 q-9 9 -18 17 q-9 8 -16 15 q-47 44 -64.5 62.5 q-17.5 18.5 -17.5 27.5 q0 9 21 9 q5 0 27 -2 l96 -12 q20 -2 28 -11.5 q8 -9.5 6 -28.5 l-3 -21 q-6 -37 -12 -54.5 q-6 -17.5 -19 -17.5 q-11 0 -28 16 ZM128 308 q45 45 74.5 79.5 q29.5 34.5 66.5 88.5 q34 52 37 84 l-126 -21 q-25 -4 -45 26.5 q-20 30.5 -26 51.5 q95 4 290.5 27.5 q195.5 23.5 383.5 49.5 q25 3 48 -9.5 q23 -12.5 37.5 -32.5 q14.5 -20 14.5 -36 q0 -20 -22 -20 q-29 12 -105 12 q-140 0 -439 -46 q27 -17 44 -38.5 q17 -21.5 17 -44.5 q0 -22 -19 -44 q-91 -101 -221 -149 q-28 -10 -33 -10 q-5 0 0 7 q5 7 23 25 ZM739 497 q19 -6 26.5 -12 q7.5 -6 7.5 -18 q0 -7 -1 -11 q-2 -7 -4 -25 q-5 -32 -11 -48 q-6 -16 -20 -16 q-12 0 -30 14 q-86 67 -130.5 106 q-44.5 39 -44.5 52 q0 7 11 7 q11 0 24 -4 l172 -45 ZM906 -46 q73 -30 73 -44 q0 -11 -59 -11 l-203 0 q-27 0 -40.5 7.5 q-13.5 7.5 -35.5 29.5 q-70 70 -159 171 q-142 -162 -386 -184 q-22 -2 -29 -2 q-15 0 -15 3 q0 4 29 16 q217 80 339 236 l-22 25 l-51 54 q-14 14 -34 31.5 q-20 17.5 -28 21.5 q-9 5 -22 10 q-18 6 -18 14 q0 5 10.5 8.5 q10.5 3.5 29.5 3.5 q37 0 67 -22 q16 -11 42.5 -33 q26.5 -22 43.5 -35 l22 -18 q30 47 57 113 q17 43 17 73 q0 13 -3 20 q38 -11 61 -31 q23 -20 23 -50 q0 -14 -6 -31 q-32 -89 -74 -153 q188 -146 371 -223 Z" /><glyph glyph-name="uni4EA7" unicode="&#x4ea7;" d="M791 426 q12 2 17 2 q21 0 40.5 -10.5 q19.5 -10.5 31.5 -26 q12 -15.5 12 -27.5 q0 -14 -17 -17 q-50 -8 -243 -18 q-139 -8 -200 -12.5 q-61 -4.5 -86 -12.5 q-20 -3 -37 23 l0 -1 q-17 -159 -67 -259.5 q-50 -100.5 -157 -174.5 q-25 -17 -31 -17 q-9 0 12 31 q71 101 107 194 q36 93 51 216 l1 14 q0 20 -5 39.5 q-5 19.5 -13 29.5 q56 3 82 -21 q88 0 215 11 q3 8 11 19 q60 84 96 163 q7 13 11 31 q4 18 4 33 l-54 -6 q-265 -28 -304 -42 q-22 -3 -37 21.5 q-15 24.5 -20 43.5 q50 2 137 12 q87 10 175 23 l-3 3 q-64 64 -93 96.5 q-29 32.5 -29 42.5 q0 5 8 5 q7 0 13 -2 l117 -32 q13 -4 19.5 -9.5 q6.5 -5.5 6.5 -18.5 q-1 -30 -3 -49 q-2 -19 -8 -31 q130 21 172 34 q9 3 18 3 q18 0 35.5 -9.5 q17.5 -9.5 28.5 -23 q11 -13.5 11 -24.5 q0 -12 -14 -15 q-30 -6 -147 -19 q40 -22 40 -58 q0 -14 -6 -29 q-20 -46 -55 -79.5 q-35 -33.5 -95 -70.5 l-18 -11 q84 7 158 16.5 q74 9.5 112 19.5 ZM454 486 q-15 -36 -26.5 -57 q-11.5 -21 -23.5 -21 q-10 0 -17 15 q-66 135 -66 162 q0 8 6 8 q6 0 17 -8 l94 -64 q18 -11 18 -25 q0 -2 -2 -10 Z" /><glyph glyph-name="uni4EAB" unicode="&#x4eab;" d="M212 590 q-25 -6 -44.5 24.5 q-19.5 30.5 -26.5 53.5 q98 2 364 28 l-3 3 q-31 29 -45 41 q-35 32 -49 46.5 q-14 14.5 -14 20.5 q0 6 16 6 l27 -2 l80 -9 q18 -2 25.5 -9 q7.5 -7 6.5 -22 q0 -6 -2 -32 q-2 -26 -8 -39 l96 9 l122 10 q25 3 48 -9.5 q23 -12.5 37.5 -32.5 q14.5 -20 14.5 -36 q0 -20 -22 -20 q-66 21 -182 21 q-113 0 -242.5 -17.5 q-129.5 -17.5 -198.5 -34.5 ZM732 579 q-8 -3 -19 -14.5 q-11 -11.5 -20 -26.5 l-25 -41 q16 -7 27 -20.5 q11 -13.5 11 -24.5 q0 -12 -14 -13 q-32 4 -78 4 q-62 0 -126.5 -6.5 q-64.5 -6.5 -99.5 -15.5 l-2 0 l1 -21 l0 -1 q0 -11 -9 -11 q-8 0 -18 6 q-30 15 -50.5 29.5 q-20.5 14.5 -19.5 34.5 q3 18 3 40 q0 12 -2 28 q-2 18 -11 38 q-9 20 -17 24 q10 3 24 3 q22 0 45 -8 q23 -8 37 -20 q-7 16 -5 24 q30 -3 33 -3 q10 0 14 1 q117 16 197 32 q14 3 20 10 l104 -48 ZM381 473 q81 4 221 23 l14 60 l0 1 q0 3 -4 5.5 q-4 2.5 -7 1.5 q-38 -9 -149 -29 l-37 -6 q-13 -2 -24.5 3.5 q-11.5 5.5 -18.5 16.5 q2 -52 5 -76 ZM874 233 q25 3 48 -9.5 q23 -12.5 37.5 -32.5 q14.5 -20 14.5 -36 q0 -20 -22 -20 q-49 15 -178 15 q-81 0 -207 -7 q4 -49 4 -145 q0 -37 -14 -66 q-14 -29 -34.5 -45 q-20.5 -16 -39.5 -16 q-16 0 -27 12 l-23 27 q-19 24 -35.5 41 q-16.5 17 -42.5 37 q-7 6 -7 8 q0 3 16 2 q24 -2 39 -2 q36 0 58 11 q22 11 22 42 q0 54 -2 87 q-116 -9 -215.5 -22 q-99.5 -13 -135.5 -22 q-25 -6 -44.5 24.5 q-19.5 30.5 -26.5 53.5 q75 1 410 29 l-3 9 q-8 18 -24.5 35 q-16.5 17 -27.5 20 q26 19 75 19 q35 0 53 -11 l83 70 q9 8 9 11 q0 2 -3 2 q-3 0 -7 -1 l-51 -10 q-198 -39 -251 -57 q-7 -3 -15 -3 q-19 0 -31.5 15 q-12.5 15 -18 34.5 q-5.5 19.5 -3.5 28.5 q19 -5 61 -5 q34 0 178 24.5 q144 24.5 162 30.5 q7 2 13.5 5.5 q6.5 3.5 8.5 4.5 l88 -68 q-25 -19 -57.5 -36.5 q-32.5 -17.5 -81.5 -41.5 q-55 -26 -74 -38 q3 -10 7 -30 l53 5 q182 15 262 21 Z" /><glyph glyph-name="uni4EAC" unicode="&#x4eac;" d="M496 668 q-70 63 -97.5 90 q-27.5 27 -27.5 39 q0 9 17 9 q9 0 26 -3 l109 -18 q21 -4 28.5 -12 q7.5 -8 6.5 -27 l-3 -23 q-5 -35 -11 -52.5 q-6 -17.5 -20 -17.5 q-12 0 -28 15 ZM868 678 q25 3 48 -9.5 q23 -12.5 37.5 -32.5 q14.5 -20 14.5 -36 q0 -20 -22 -20 q-34 14 -140 14 q-145 0 -370.5 -21.5 q-225.5 -21.5 -313.5 -35.5 q-25 -4 -45 26.5 q-20 30.5 -26 51.5 q58 1 219 14 q161 13 318 26 q208 18 280 23 ZM703 279 q-37 4 -84 4 q-22 0 -64 -2 q4 -4 10 -12 q-5 -22 -10.5 -67.5 q-5.5 -45.5 -5.5 -89.5 l0 -105 q0 -57 -18 -92 q-18 -35 -41 -35 q-12 0 -22 12 q-12 13 -24 30 q-23 30 -40.5 47.5 q-17.5 17.5 -42.5 27.5 q-13 4 -13 8 q0 3 22 2 q12 -1 33 -1 q33 0 49.5 11 q16.5 11 16.5 41 l0 189 q0 12 -3 24 q-45 -7 -67 -13 q-6 -1 -10 0 q0 -7 1 -14 q1 -7 1 -15 q0 -10 -9 -10 q-7 0 -21 7 q-3 2 -24.5 12.5 q-21.5 10.5 -37 26.5 q-15.5 16 -15.5 31 q1 20 1 55 q0 52 -7 84 q-5 22 -14 43 q-9 21 -17 25 q16 4 27 4 q19 0 39.5 -6 q20.5 -6 36.5 -16 q-1 4 -1 10 q36 -3 39 -3 q11 0 16 1 q108 13 217 42 q11 3 17 11 l138 -55 q-9 -4 -16.5 -15 q-7.5 -11 -18.5 -32 l-54 -104 q15 -9 24 -22.5 q9 -13.5 9 -23.5 q0 -15 -17 -15 ZM382 317 q48 3 96.5 9.5 q48.5 6.5 119.5 18.5 l33 119 l0 2 q0 4 -4.5 6 q-4.5 2 -9.5 1 q-31 -5 -109 -23 q-64 -16 -95 -22 q-24 -4 -41 15 q3 -58 7 -100 l3 -26 ZM255 233 q36 -19 51.5 -34.5 q15.5 -15.5 15.5 -37.5 q0 -14 -6 -32 q-13 -37 -29.5 -61.5 q-16.5 -24.5 -61.5 -82.5 q-15 -18 -24 -18 q-6 0 -9 10 q-7 28 -15 48 l-7 24 l-1 8 q0 10 9 22 q22 18 34 35 q12 17 22 40 q9 15 14.5 37.5 q5.5 22.5 6.5 41.5 ZM811 143 q19 -10 26.5 -17 q7.5 -7 7.5 -20 l-1 -8 q-2 -8 -8.5 -37 q-6.5 -29 -15 -45 q-8.5 -16 -19.5 -16 q-12 0 -28 20 q-66 82 -98 129 q-32 47 -32 63 q0 8 8 8 q8 0 36 -13 l124 -64 Z" /><glyph glyph-name="uni4EAE" unicode="&#x4eae;" d="M196 591 q-25 -4 -45 26.5 q-20 30.5 -26 51.5 q15 -1 49 -1 q109 0 313 17 q-6 3 -15 12 q-49 49 -71.5 76 q-22.5 27 -22.5 39 q0 10 17 10 q13 0 29 -4 l78 -17 q16 -3 23 -9.5 q7 -6.5 7 -17.5 q0 -6 -1 -10 q-2 -9 -5.5 -28 q-3.5 -19 -7.5 -31.5 q-4 -12.5 -9 -17.5 l83 7 q151 12 158 12 q25 3 48 -9.5 q23 -12.5 37.5 -32.5 q14.5 -20 14.5 -36 q0 -20 -22 -20 q-58 22 -185 22 q-112 0 -239.5 -13.5 q-127.5 -13.5 -207.5 -25.5 ZM722 568 q-6 -3 -12 -10.5 q-6 -7.5 -10.5 -16 q-4.5 -8.5 -9.5 -16.5 l-25 -37 q16 -7 26.5 -20.5 q10.5 -13.5 10.5 -25.5 q0 -13 -15 -14 q-33 4 -83 4 q-57 0 -119 -5.5 q-62 -5.5 -104 -13.5 q0 -6 2 -24 l0 -3 q0 -9 -8 -9 q-5 0 -19 7 q-28 13 -49.5 28 q-21.5 15 -20.5 35 q2 20 4 29 q3 12 3 24 q0 10 -3 22 q-4 19 -12 38.5 q-8 19.5 -16 23.5 q10 3 23 3 q17 0 36.5 -5.5 q19.5 -5.5 33.5 -14.5 l0 9 q20 -2 35 -2 q10 0 15 1 l74 11 q52 10 114 18 q7 1 16 10 l113 -46 ZM376 529 q0 -50 1 -64 q98 6 215 23 l10 52 l0 1 q0 3 -4 5.5 q-4 2.5 -8 1.5 q-78 -13 -177 -32 q-21 -4 -37 13 ZM236 299 q-15 -46 -31.5 -78 q-16.5 -32 -51.5 -86 q-16 -23 -24 -23 q-7 0 -11 10 q-5 12 -10.5 24.5 q-5.5 12.5 -10.5 24.5 l-11 24 q-4 12 -4 15 q0 9 9 21 q20 23 32 42 q12 19 21 43 q6 13 9.5 32.5 q3.5 19.5 3.5 38.5 q0 12 -1 17 q22 -6 46 -20 q24 -14 34 -28 q4 -6 6 -13 q0 9 3 15 q17 -6 31.5 -9 q14.5 -3 37.5 -3 q48 0 244 32 q196 32 233 40 q18 7 25 8 l115 -98 q-138 -82 -194 -107 q-27 -11 -35 -11 q-8 0 -8 6 q0 7 19 35 l55 76 q4 4 4 8 q0 7 -14 5 q-101 -8 -447 -57 q-4 -1 -11 -1 q-25 0 -39 15 q-14 15 -18 35 q0 -11 -3 -21 q-3 -10 -4 -12 ZM924 43 q18 -30 18 -51 q0 -27 -31 -40.5 q-31 -13.5 -89 -17.5 q-58 -4 -161 -4 q-72 0 -101 48 q-29 48 -29 106 l0 107 q0 6 -1 8.5 q-1 2.5 -6 1.5 q-17 -2 -52 -12 l-28 -7 q-4 -1 -10 -1 q-17 0 -32 13 q1 -5 1 -18 q-6 -87 -57 -152.5 q-51 -65.5 -155 -102.5 q-20 -7 -33 -7 q-8 0 -8 3 q0 5 20 18 q65 43 99 96 q34 53 46 136 q1 5 1 17 q0 21 -5 40.5 q-5 19.5 -13 29.5 q52 3 82 -19 q-1 4 -1 9 q30 -3 56 -2 q22 1 53.5 8.5 q31.5 7.5 38.5 9.5 q5 1 10 4.5 q5 3.5 7 4.5 l96 -57 q-17 -24 -23 -43 q-6 -19 -6 -41 q0 -62 13 -87 q13 -25 53 -25 q85 0 119 12.5 q34 12.5 41.5 43.5 q7.5 31 7.5 112 q0 13 4.5 20 q4.5 7 10.5 7 q10 0 11 -12 q1 -43 13.5 -76 q12.5 -33 39.5 -80 Z" /><glyph glyph-name="uni4EBA" unicode="&#x4eba;" d="M914 37 q32 -18 46.5 -28.5 q14.5 -10.5 14.5 -17.5 q0 -7 -16 -10 q-16 -3 -51 -3 l-152 0 q-27 0 -47 16 q-20 16 -38 42 q-26 39 -70 111 q-60 95 -93 145 q-33 50 -55 72 q-15 15 -25 23 q-84 -143 -177 -257.5 q-93 -114.5 -187 -162.5 q-12 -7 -22.5 -11.5 q-10.5 -4.5 -10.5 -0.5 q0 5 19 24 q55 55 135 183 q80 128 152 265 q72 137 100 207 q18 43 18 73 q0 13 -3 26 q40 -10 69.5 -37.5 q29.5 -27.5 29.5 -59.5 q0 -20 -11 -37 q-39 -83 -85 -166 q1 0 3 -2 q24 -18 61.5 -53.5 q37.5 -35.5 77.5 -74.5 q98 -97 172 -162 q74 -65 145 -104 Z" /><glyph glyph-name="uni4EC0" unicode="&#x4ec0;" d="M235 471 q37 -16 50 -37 q-4 -48 -7 -72 q-1 -12 -5 -53.5 q-4 -41.5 -4 -77.5 l0 -317 q0 -13 -9 -13 q-9 0 -22 11 q-5 4 -24 19 q-19 15 -32 31 q-13 16 -13 27 q1 30 5 66 q4 36 5 46 q10 94 10 138 l0 173 l0 2 q-61 -68 -127 -118 q-27 -21 -33 -21 q-7 0 14 31 q59 88 94 156.5 q35 68.5 116 247.5 q12 27 12 63 q0 25 -5 35 q43 -8 69.5 -28.5 q26.5 -20.5 26.5 -53.5 q0 -11 -5 -28 q-37 -118 -116 -227 ZM838 492 q25 3 48 -9.5 q23 -12.5 37.5 -32.5 q14.5 -20 14.5 -36 q0 -20 -22 -20 q-34 14 -102 14 q-54 0 -149 -11 l0 -488 q0 -12 -8 -12 q-4 0 -12 4 q-8 4 -11 6 q-26 14 -49 34.5 q-23 20.5 -20 42.5 q20 103 20 250 l0 152 q-70 -11 -134 -23 q-72 -12 -69 -12 q-25 -4 -45 26.5 q-20 30.5 -26 51.5 q48 1 112.5 8.5 q64.5 7.5 161.5 21.5 l0 241 q0 19 -7 42 q-7 23 -15 30 q4 1 12 1 q29 0 61 -15.5 q32 -15.5 45 -35.5 q-4 -48 -7 -72 q-1 -12 -5 -53.5 q-4 -41.5 -4 -77.5 l0 -48 q117 17 173 21 Z" /><glyph glyph-name="uni4EC5" unicode="&#x4ec5;" d="M914 61 q36 -24 51.5 -36.5 q15.5 -12.5 15.5 -20.5 q0 -14 -65 -14 l-109 0 q-23 0 -38 7 q-15 7 -22 15 q-7 8 -25 32 l-119 156 q-119 -147 -295 -187 q-33 -7 -39 -6 l0 -93 q0 -13 -9 -13 q-9 0 -22 11 q-5 4 -24 19 q-19 15 -32 31 q-13 16 -13 27 q1 30 5 66 q4 36 5 46 q10 94 10 138 l0 173 l0 2 q-61 -68 -127 -118 q-27 -21 -33 -21 q-7 0 14 31 q64 97 105 174.5 q41 77.5 105 229.5 q12 29 12 65 q0 20 -5 33 q43 -8 69.5 -28.5 q26.5 -20.5 26.5 -53.5 q0 -11 -5 -28 q-37 -118 -116 -227 q37 -16 50 -37 q-4 -48 -7 -72 q-1 -12 -5 -53.5 q-4 -41.5 -4 -77.5 l0 -217 q9 7 26 16 q157 84 253 240 q-58 74 -91 110.5 q-33 36.5 -57 49.5 q-16 9 -30 12 q-23 6 -23 15 q0 6 8.5 10.5 q8.5 4.5 23.5 5.5 q8 1 23 1 q46 0 76 -27 q35 -31 68.5 -65.5 q33.5 -34.5 40.5 -41.5 q55 109 92 259 q1 3 1 7 q0 9 -13 5 l-19 -7 q-72 -29 -170 -62 q-9 -3 -17 -3 q-20 0 -35.5 13.5 q-15.5 13.5 -24 31 q-8.5 17.5 -6.5 26.5 q31 -1 65 5 q44 9 136.5 37.5 q92.5 28.5 102.5 35.5 q17 11 19 11 l87 -55 q-4 -11 -8 -24.5 q-4 -13.5 -10 -29.5 q-31 -98 -60.5 -172.5 q-29.5 -74.5 -73.5 -145.5 q57 -57 118 -107.5 q61 -50.5 143 -103.5 Z" /><glyph glyph-name="uni4ECD" unicode="&#x4ecd;" d="M235 471 q37 -16 50 -37 q-4 -48 -7 -72 q-1 -12 -5 -53.5 q-4 -41.5 -4 -77.5 l0 -317 q0 -13 -9 -13 q-9 0 -22 11 q-5 4 -24 19 q-19 15 -32 31 q-13 16 -13 27 q1 30 5 66 q4 36 5 46 q10 94 10 138 l0 173 l0 2 q-61 -68 -127 -118 q-27 -21 -33 -21 q-7 0 14 31 q59 88 94 156.5 q35 68.5 116 247.5 q12 27 12 63 q0 25 -5 35 q43 -8 69.5 -28.5 q26.5 -20.5 26.5 -53.5 q0 -11 -5 -28 q-37 -118 -116 -227 ZM915 386 q-14 -19 -22 -61 l-17 -82 q-38 -184 -45 -224 q-5 -28 -22 -51 q-17 -23 -39 -35.5 q-22 -12.5 -41 -12.5 q-19 0 -28 14 q-24 39 -43.5 58.5 q-19.5 19.5 -34.5 30 q-15 10.5 -20 14.5 q-13 10 -13 13 q0 2 5 2 l16 -2 q46 -6 64 -6 q25 0 41 9 q16 9 25 34 q10 27 32 134 q22 107 22 142 q0 4 -3.5 7.5 q-3.5 3.5 -8.5 3.5 q-3 0 -30 -11 q-33 -14 -57 -22 q-24 -8 -42 -8 q-21 0 -35.5 13 q-14.5 13 -22 30 q-7.5 17 -5.5 26 q23 -1 30.5 6 q7.5 7 12.5 20 q5 13 9 22 l15 34 q21 45 33 75.5 q12 30.5 19 63.5 l0 2 q0 4 -2 6.5 q-2 2.5 -6 1.5 q-22 -7 -89 -36 q-70 -31 -95 -41 q40 -17 40 -56 q0 -8 -1 -12 q-19 -149 -76.5 -278.5 q-57.5 -129.5 -153.5 -215.5 q-22 -19 -30 -19 q-4 0 -4 4 q0 10 12 27 q69 111 106.5 223 q37.5 112 56.5 248 q1 6 1 18 q0 20 -5 40 l-8 -3 q-13 -5 -24 -5 q-21 0 -37.5 13.5 q-16.5 13.5 -25.5 31.5 q-9 18 -8 28 q19 -1 42 4 q23 5 28 6 q51 11 129.5 36.5 q78.5 25.5 132.5 49.5 q6 3 12.5 8.5 q6.5 5.5 8.5 7.5 l123 -83 q-18 -13 -37.5 -42 q-19.5 -29 -50.5 -81 q-40 -68 -61 -95 q-4 -5 -3 -6 q32 7 65 18 q33 11 41 16 q6 3 10.5 6 q4.5 3 7.5 4 l106 -63 Z" /><glyph glyph-name="uni4ECE" unicode="&#x4ece;" d="M943 1 q17 -13 27.5 -22.5 q10.5 -9.5 10.5 -13.5 q0 -5 -10.5 -6 q-10.5 -1 -29 -1 q-18.5 0 -25.5 0 l-92 0 q-27 0 -47 16 q-20 16 -38 42 q-53 78 -102 288 q-38 -121 -107.5 -213.5 q-69.5 -92.5 -169.5 -142.5 q-26 -12 -32 -12 q-4 0 -4 2 q0 5 17 22 q66 66 123 175 q57 109 91 249.5 q34 140.5 31 293.5 q1 23 -7 50 q-8 27 -20 39 q16 3 33 3 q36 0 58.5 -17 q22.5 -17 26.5 -54 q4 -60 4 -91 q0 -112 -22 -215 q50 -106 120 -212 q70 -106 143 -164 l21 -16 ZM389 159 q-48 70 -76 125 q-75 -212 -260 -324 q-27 -15 -31 -15 q-3 0 -3 2 q0 5 15 25 q67 89 118 180.5 q51 91.5 83.5 215 q32.5 123.5 29.5 272.5 q1 23 -7 50 q-8 27 -20 39 q16 3 33 3 q36 0 58.5 -17 q22.5 -17 26.5 -54 q4 -58 4 -87 q0 -118 -28 -230 l122 -92 q15 -11 15 -26 q0 -6 -3 -15 q-16 -33 -27.5 -50.5 q-11.5 -17.5 -25.5 -17.5 q-13 0 -24 16 Z" /><glyph glyph-name="uni4ED3" unicode="&#x4ed3;" d="M905 378 q91 -44 91 -57 q0 -6 -16 -8.5 q-16 -2.5 -50 -2.5 l-132 0 q-26 0 -43 14 q-17 14 -42 44 q-21 25 -80 107 q-82 116 -122 157 q-8 8 -34 22 q-55 -86 -89 -134 q-34 -48 -75 -93 q39 -11 63 -28 l0 6 q18 -2 30 -2 q29 0 77 13.5 q48 13.5 62 20.5 q5 3 9.5 5.5 q4.5 2.5 7.5 3.5 l96 -57 q-8 -11 -13.5 -26 q-5.5 -15 -6.5 -29 l-6 -145 q-2 -57 -20 -92 q-18 -35 -39 -35 q-11 0 -22 12 l-21 25 q-19 24 -35.5 40 q-16.5 16 -40.5 30 q-12 8 -12 9 q0 1 21 1 q37 0 53 2 q16 2 26 12.5 q10 10.5 10 36.5 q0 71 -3 138 q0 5 -4 8 q-4 3 -9 2 q-20 -2 -75 -25 l-21 -8 q-4 -2 -13 -2 q-20 0 -36 23 l-4 -43 q-11 -95 -11 -154 q0 -166 109 -166 l47 -1 q50 0 104 7 q43 7 62 31.5 q19 24.5 23.5 61.5 q4.5 37 4.5 111 q0 13 6.5 20 q6.5 7 14.5 7 q14 0 15 -12 q2 -50 16 -108 q14 -58 37 -98 q7 -11 7 -23 q0 -30 -43 -50 q-43 -20 -85 -25 q-32 -4 -68 -5.5 q-36 -1.5 -119 -1.5 q-84 0 -130.5 25 q-46.5 25 -63.5 70 q-17 45 -17 113 l0 237 q0 17 -7 41 q-93 -92 -233 -147 q-34 -13 -40 -13 q-10 0 31 31 q90 69 192.5 197 q102.5 128 175.5 263 q35 64 31 93 q39 -18 57.5 -35.5 q18.5 -17.5 18.5 -42.5 q0 -21 -16 -50 l-1 -2 q39 -19 77 -51 q38 -32 99 -91 q71 -69 119.5 -109.5 q48.5 -40.5 104.5 -67.5 Z" /><glyph glyph-name="uni4ED4" unicode="&#x4ed4;" d="M255 461 q22 -13 30 -27 q-4 -48 -7 -72 q-1 -12 -5 -53.5 q-4 -41.5 -4 -77.5 l0 -317 q0 -13 -9 -13 q-9 0 -22 11 q-5 4 -24 19 q-19 15 -32 31 q-13 16 -13 27 q1 30 5 66 q4 36 5 46 q10 94 10 138 l0 140 q-53 -57 -117 -106 q-27 -21 -33 -21 q-7 0 14 31 q51 77 79.5 131 q28.5 54 87.5 182 l36 78 q12 27 12 63 q0 25 -5 35 q43 -8 69.5 -28.5 q26.5 -20.5 26.5 -53.5 q0 -11 -5 -28 q-34 -108 -99 -201 ZM883 379 q25 3 48 -9.5 q23 -12.5 37.5 -32.5 q14.5 -20 14.5 -36 q0 -20 -22 -20 q-42 14 -143 14 q-67 0 -124 -4 q1 -63 1 -264 q0 -37 -14 -66 q-14 -29 -34.5 -45 q-20.5 -16 -39.5 -16 q-16 0 -27 12 q-54 62 -121 105 q-12 8 -12 9 q0 2 7 2 l40 -1 q113 0 113 51 l0 167 l0 39 q-74 -6 -143 -14.5 q-69 -8.5 -102 -13.5 q-25 -4 -45 26.5 q-20 30.5 -26 51.5 q111 3 315 22 q-2 47 -16 77 q-8 17 -24.5 34.5 q-16.5 17.5 -27.5 20.5 q26 19 74 19 q14 0 20 -1 l77 121 q8 13 8 15 q0 2 -9 -1 l-21 -6 q-118 -31 -219 -64 q-11 -3 -19 -3 q-22 0 -37 15.5 q-15 15.5 -23 37 q-8 21.5 -8 37.5 q0 7 1 9 q23 -6 77 -6 q38 0 149.5 25.5 q111.5 25.5 135.5 34.5 q10 4 16.5 7.5 q6.5 3.5 9.5 4.5 l93 -84 q-30 -23 -72.5 -61.5 q-42.5 -38.5 -52.5 -47.5 q-33 -33 -66 -61 q13 -42 19 -116 l192 16 Z" /><glyph glyph-name="uni4ED6" unicode="&#x4ed6;" d="M235 471 q37 -16 50 -37 q-4 -48 -7 -72 q-1 -12 -5 -53.5 q-4 -41.5 -4 -77.5 l0 -317 q0 -13 -9 -13 q-9 0 -22 11 q-5 4 -24 19 q-19 15 -32 31 q-13 16 -13 27 q1 30 5 66 q4 36 5 46 q10 94 10 138 l0 173 l0 2 q-61 -68 -127 -118 q-27 -21 -33 -21 q-7 0 14 31 q64 97 105 174.5 q41 77.5 105 229.5 q12 29 12 65 q0 20 -5 33 q43 -8 69.5 -28.5 q26.5 -20.5 26.5 -53.5 q0 -11 -5 -28 q-37 -118 -116 -227 ZM972 81 q7 -13 7 -24 q0 -31 -47 -48.5 q-47 -17.5 -122 -25.5 q-51 -5 -93 -8 q-42 -3 -76 -3 q-33 0 -80 3 l-29 1 q-78 4 -114.5 45.5 q-36.5 41.5 -36.5 122.5 l0 135 q-9 -3 -18 -3 q-19 0 -37.5 10 q-18.5 10 -31 23 q-12.5 13 -13.5 21 q14 0 31 7 q17 7 43 19 q9 4 26 14 l0 124 q0 19 -7 42 q-7 23 -15 30 q5 2 31.5 -5 q26.5 -7 52 -19 q25.5 -12 34.5 -26 q-1 -11 -5 -43 q-6 -44 -7 -52 q35 21 72 46 l0 18 l0 218 q0 19 -7 42 q-7 23 -15 30 q4 1 12 1 q29 0 61 -15.5 q32 -15.5 45 -35.5 q-4 -48 -7 -72 q-1 -12 -5 -53.5 q-4 -41.5 -4 -77.5 l0 -2 q75 50 81 56 q5 5 8 9 q3 4 4 5 l111 -14 q-1 -4 -1 -13 q0 -9 2 -25 q2 -14 2 -21 l-1 -219 q0 -57 -18 -92 q-18 -35 -41 -35 q-11 0 -22 12 q-11 13 -29 39 q-15 22 -27 36.5 q-12 14.5 -31 29.5 q-12 9 -12 10 l2 0 l43 0 q32 0 43.5 9 q11.5 9 11.5 42 l0 107 l-4 58 q-1 4 -6 5 q-5 1 -10 -1 q-37 -19 -106 -68 l0 -290 q0 -12 -8 -12 q-4 0 -12 4 q-8 4 -11 6 q-26 14 -49 34.5 q-23 20.5 -20 42.5 q13 64 18 154 l-74 -56 l0 -21 l0 -151 q0 -51 24.5 -73.5 q24.5 -22.5 62.5 -25.5 q58 -5 86 -5 q36 0 92 7 q69 12 102.5 37.5 q33.5 25.5 44 64.5 q10.5 39 10.5 106 q0 13 6.5 20 q6.5 7 14.5 7 q14 0 15 -12 q2 -50 16 -108 q14 -58 37 -98 Z" /><glyph glyph-name="uni4ED7" unicode="&#x4ed7;" d="M926 -24 q26 -16 43 -27.5 q17 -11.5 17 -15.5 q0 -4 -10.5 -5 q-10.5 -1 -29 -1 q-18.5 0 -26.5 0 l-141 0 q-46 0 -95 58 q-51 59 -112 126 q-81 -102 -239 -137 q-30 -6 -34 -6 q-6 0 -6 2 q0 5 21 16 q138 75 199 189 q-53 58 -79 84 q-14 14 -34 31.5 q-20 17.5 -28 21.5 q-9 5 -22 10 q-18 6 -18 14 q0 5 10.5 8.5 q10.5 3.5 28.5 3.5 q20 0 35.5 -5.5 q15.5 -5.5 32.5 -16.5 q38 -26 106 -78 q26 82 34 194 q-13 -2 -124 -21 l-60 -10 q-25 -4 -45 26.5 q-20 30.5 -26 51.5 q116 5 259 22 l5 203 q1 23 -8 50 q-9 27 -20 39 q17 3 33 3 q37 0 61 -17 q24 -17 24 -52 l0 -142 l0 -73 q56 7 128 19 q25 3 48 -9.5 q23 -12.5 37.5 -32.5 q14.5 -20 14.5 -36 q0 -20 -22 -20 q-40 15 -114 15 q-41 0 -94 -5 q-9 -163 -55 -263 q163 -125 305 -214 ZM258 460 q19 -14 27 -26 q-4 -48 -7 -72 q-1 -12 -5 -53.5 q-4 -41.5 -4 -77.5 l0 -317 q0 -13 -9 -13 q-9 0 -22 11 q-5 4 -24 19 q-19 15 -32 31 q-13 16 -13 27 q1 30 5 66 q4 36 5 46 q10 94 10 138 l0 136 q-50 -55 -114 -105 q-27 -21 -33 -21 q-7 0 14 31 q72 108 117 198 l-3 4 l6 1 q36 72 90 201 q12 29 12 65 q0 20 -5 33 q43 -8 69.5 -28.5 q26.5 -20.5 26.5 -53.5 q0 -11 -5 -28 q-35 -111 -106 -212 Z" /><glyph glyph-name="uni4ED8" unicode="&#x4ed8;" d="M266 468 q30 -15 42 -34 q-4 -48 -7 -72 q-1 -12 -5 -53.5 q-4 -41.5 -4 -77.5 l0 -317 q0 -13 -9 -13 q-9 0 -22 11 q-5 4 -24 19 q-19 15 -32 31 q-13 16 -13 27 q1 30 5 66 q4 36 5 46 q10 94 10 138 l0 158 q-68 -83 -143 -134 q-28 -19 -34 -19 q-7 0 15 29 q71 90 117.5 179 q46.5 89 113.5 258 q12 29 12 66 q0 19 -5 32 q43 -8 69.5 -28.5 q26.5 -20.5 26.5 -53.5 q0 -11 -5 -28 q-38 -120 -113 -230 ZM880 563 q25 3 48 -9.5 q23 -12.5 37.5 -32.5 q14.5 -20 14.5 -36 q0 -20 -22 -20 q-34 14 -109 14 q-37 0 -76 -3 l0 -458 q0 -57 -18 -92 q-18 -35 -41 -35 q-11 0 -22 12 q-12 13 -24 30 q-23 30 -40.5 47.5 q-17.5 17.5 -42.5 27.5 q-13 4 -13 8 q0 3 22 2 q12 -1 33 -1 q33 0 49.5 11 q16.5 11 16.5 41 l0 399 q-99 -11 -269 -40 l-49 -8 q-25 -4 -45 26.5 q-20 30.5 -26 51.5 q60 1 150.5 12 q90.5 11 238.5 32 l0 171 q0 19 -7 42 q-7 23 -15 30 q4 1 12 1 q29 0 61 -15.5 q32 -15.5 45 -35.5 q-5 -22 -10.5 -67.5 q-5.5 -45.5 -5.5 -89.5 l0 -26 q73 8 107 11 ZM538 302 q15 -6 21.5 -12.5 q6.5 -6.5 6.5 -16.5 q0 -3 -4 -17 q-6 -14 -8 -22 q-12 -32 -20.5 -46.5 q-8.5 -14.5 -20.5 -14.5 q-12 0 -27 21 q-42 61 -61.5 94 q-19.5 33 -19.5 46 q0 11 13 11 q14 0 38 -10 l82 -33 Z" /><glyph glyph-name="uni4EE3" unicode="&#x4ee3;" d="M938 -16 q2 -24 2 -34 q0 -36 -11 -53.5 q-11 -17.5 -31 -17.5 q-19 0 -44 16 q-25 16 -51 45 q-154 174 -234 453 q-50 -15 -147 -50 l-40 -14 q-6 -2 -9 -2 q-32 0 -69 73 q97 14 248 59 q-14 53 -24 105 q-10 52 -13 66 q-12 65 -17 77 q-31 70 -74 82 q21 9 57 9 q39 0 77 -10 q38 -10 55 -26 l7 -74 q8 -115 23 -202 q79 24 147 42 q10 2 15 2 q23 0 44.5 -12 q21.5 -12 34.5 -29.5 q13 -17.5 13 -31.5 q0 -17 -20 -20 q-22 6 -54 6 q-63 0 -167 -26 q51 -230 192 -423 q18 -25 28 -25 q14 0 18 42.5 q4 42.5 4 142.5 q0 45 5 45 q10 0 35 -215 ZM252 468 q31 -15 43 -34 q-4 -48 -7 -72 q-1 -12 -5 -53.5 q-4 -41.5 -4 -77.5 l0 -317 q0 -13 -9 -13 q-9 0 -22 11 q-5 4 -24 19 q-19 15 -32 31 q-13 16 -13 27 q1 30 5 66 q4 36 5 46 q10 94 10 138 l0 160 q-59 -71 -137 -131 q-27 -21 -33 -21 q-7 0 14 31 q65 99 106 176.5 q41 77.5 104 227.5 q12 29 12 65 q0 20 -5 33 q43 -8 69.5 -28.5 q26.5 -20.5 26.5 -53.5 q0 -11 -5 -28 q-33 -105 -99 -202 ZM825 574 q-24 27 -67 67 q-35 35 -48 49.5 q-13 14.5 -13 21.5 q0 5 9 5 q9 0 24 -4 l145 -37 q26 -6 26 -26 q0 -8 -3 -17 l-9 -23 q-8 -26 -16 -40 q-8 -14 -19 -14 q-11 0 -29 18 Z" /><glyph glyph-name="uni4EE4" unicode="&#x4ee4;" d="M923 327 q51 -25 51 -37 q0 -13 -65 -13 l-119 0 q-29 0 -48.5 16 q-19.5 16 -45.5 48 q-27 33 -84 114 q-45 64 -77.5 106.5 q-32.5 42.5 -60.5 70.5 l-4 4 q-5 -7 -13 -21 q-67 -105 -114 -168 q-47 -63 -117.5 -120.5 q-70.5 -57.5 -169.5 -96.5 q-34 -13 -40 -13 q-10 0 31 31 q86 65 188 200.5 q102 135.5 180 279.5 q35 64 31 93 q39 -18 57.5 -35.5 q18.5 -17.5 18.5 -42.5 q0 -21 -16 -50 l-6 -9 q38 -24 77.5 -60 q39.5 -36 96.5 -93 q81 -80 135.5 -127 q54.5 -47 113.5 -77 ZM734 219 q-34 -25 -150 -130 l-72 -64 l23 -10 q19 -8 26.5 -15 q7.5 -7 7.5 -19 q0 -3 -2 -13 q-2 -9 -7.5 -37.5 q-5.5 -28.5 -14 -44 q-8.5 -15.5 -20.5 -15.5 q-13 0 -31 18 q-92 89 -141 142 q-49 53 -49 69 q0 5 7 5 q10 0 29 -8 l130 -55 l131 193 q3 5 3 8 q0 5 -4 6.5 q-4 1.5 -10 -0.5 q-19 -7 -97 -24 q-15 -4 -94 -23 q-79 -19 -151 -41 q-9 -3 -17 -3 q-20 0 -34 14 q-14 14 -21 33 q-7 19 -7 34 q0 7 1 9 q21 -5 70 -5 q48 0 250 43 q-10 5 -20 19 q-66 87 -87 117.5 q-21 30.5 -21 41.5 q0 8 11 8 q10 0 48 -12 l90 -29 q18 -5 26 -13 q8 -8 8 -20 q0 -4 -2 -14 q-8 -40 -14 -61 q-6 -21 -16 -32 q84 18 105 25 q7 2 14 6 q7 4 10 5 l92 -108 Z" /><glyph glyph-name="uni4EE5" unicode="&#x4ee5;" d="M896 135 q20 -12 27 -18.5 q7 -6.5 7 -18.5 q0 -9 -2 -15 l-9 -28 q-12 -37 -21 -54.5 q-9 -17.5 -23 -17.5 q-14 0 -33 23 q-90 110 -132 166 q-42 56 -46 74 q-112 -199 -343 -258 q-20 -5 -28 -5 q-9 0 -9 4 q0 5 21 16 q343 183 390 628 q2 16 2 28 q0 36 -9 52 q38 -1 63 -17.5 q25 -16.5 25 -49.5 q0 -7 -1 -11 q-15 -111 -38.5 -204 q-23.5 -93 -66.5 -173 q10 1 48 -20 l178 -101 ZM257 207 q217 217 217 185 q0 -33 -252 -345 q-14 -17 -32 -17 q-17 0 -33.5 13 q-16.5 13 -27.5 29.5 q-11 16.5 -12 24.5 q22 13 36.5 29.5 q14.5 16.5 14.5 44.5 l0 453 q0 19 -7 42 q-7 23 -15 30 q4 1 12 1 q29 0 61 -15.5 q32 -15.5 45 -35.5 q-4 -48 -7 -72 q-1 -12 -5 -53.5 q-4 -41.5 -4 -77.5 l0 -232 q0 -3 3 -5 q3 -2 6 1 ZM511 454 q-77 62 -116 96.5 q-39 34.5 -47 49 q-8 14.5 8 14.5 q10 0 50 -9 l124 -32 q22 -6 30 -13 q8 -7 7 -24 l-2 -21 q-2 -36 -7 -55 q-5 -19 -19 -19 q-11 0 -28 13 Z" /><glyph glyph-name="uni4EEC" unicode="&#x4eec;" d="M260 808 q43 -8 69.5 -28.5 q26.5 -20.5 26.5 -53.5 q0 -11 -5 -28 q-37 -118 -116 -227 q37 -16 50 -37 q-4 -48 -7 -72 q-1 -12 -5 -53.5 q-4 -41.5 -4 -77.5 l0 -317 q0 -13 -9 -13 q-9 0 -22 11 q-5 4 -24 19 q-19 15 -32 31 q-13 16 -13 27 q1 30 5 66 q4 36 5 46 q10 94 10 138 l0 173 l0 2 q-61 -68 -127 -118 q-27 -21 -33 -21 q-7 0 14 31 q64 97 105 174.5 q41 77.5 105 229.5 q12 29 12 65 q0 20 -5 33 ZM535 669 q11 -5 16 -9.5 q5 -4.5 5 -13.5 q0 -30 -6.5 -57 q-6.5 -27 -19.5 -27 q-7 0 -16 10 q-54 58 -77.5 87 q-23.5 29 -23.5 38 q0 5 7 5 q5 0 16 -3 l99 -30 ZM905 625 q-20 -33 -20 -53 l0 -545 q0 -57 -18 -92 q-18 -35 -41 -35 q-11 0 -22 12 q-12 13 -24 30 q-23 30 -40.5 47.5 q-17.5 17.5 -42.5 27.5 q-13 4 -13 8 q0 3 22 2 q12 -1 33 -1 q33 0 49.5 11 q16.5 11 16.5 41 l0 180 l-9 348 q0 5 -4 8 q-4 3 -9 2 l-42 -12 q-59 -16 -97 -30 q-5 -2 -13 -2 q-16 0 -28 12 q-12 12 -18.5 27.5 q-6.5 15.5 -4.5 22.5 q18 -2 30 -2 q9 0 25 2 q31 6 90 21.5 q59 15.5 67 19.5 q5 3 9.5 5.5 q4.5 2.5 7.5 3.5 l96 -59 ZM385 545 q4 1 12 1 q29 0 61 -15.5 q32 -15.5 45 -35.5 q-4 -48 -7 -72 q-1 -12 -5 -53.5 q-4 -41.5 -4 -77.5 l0 -331 q0 -13 -9 -13 q-9 0 -22 11 q-5 4 -24 19 q-19 15 -32 31 q-13 16 -13 27 q1 30 5 66 q4 36 5 46 q10 94 10 138 l0 187 q0 19 -7 42 q-7 23 -15 30 Z" /><glyph glyph-name="uni4EF0" unicode="&#x4ef0;" d="M235 471 q37 -16 50 -37 q-4 -48 -7 -72 q-1 -12 -5 -53.5 q-4 -41.5 -4 -77.5 l0 -317 q0 -13 -9 -13 q-9 0 -22 11 q-5 4 -24 19 q-19 15 -32 31 q-13 16 -13 27 q1 30 5 66 q4 36 5 46 q10 94 10 138 l0 173 l0 2 q-61 -68 -127 -118 q-27 -21 -33 -21 q-7 0 14 31 q64 97 105 174.5 q41 77.5 105 229.5 q12 29 12 65 q0 20 -5 33 q43 -8 69.5 -28.5 q26.5 -20.5 26.5 -53.5 q0 -11 -5 -28 q-37 -118 -116 -227 ZM512 314 q43 36 50 36 q13 0 -36 -64 q-49 -64 -95 -117 q-13 -16 -32 -16 q-17 0 -33.5 12.5 q-16.5 12.5 -27.5 29 q-11 16.5 -12 24.5 q4 2 18 9 q14 7 22.5 20 q8.5 13 8.5 33 l0 264 q0 19 -7 42 q-7 23 -15 30 q4 1 12 1 q17 0 37 -6 q20 -6 37 -16 q24 20 20 17 q50 42 108 94 q21 19 26 39 q3 12 11 12 q7 0 17 -7 q10 -7 13 -9 q18 -14 30 -19 q14 -6 14 -15 q0 -7 -8 -16 q-27 -30 -79.5 -62 q-52.5 -32 -124.5 -57 q4 -4 5 -6 q-4 -48 -7 -72 q-1 -12 -5 -53.5 q-4 -41.5 -4 -77.5 l0 -83 q0 -3 3 -4.5 q3 -1.5 6 0.5 l48 37 ZM898 576 q-9 -12 -14.5 -27 q-5.5 -15 -5.5 -28 l0 -265 q0 -57 -18 -92 q-18 -35 -41 -35 q-12 0 -22 12 q-12 14 -24 30 q-23 30 -40.5 47.5 q-17.5 17.5 -42.5 27.5 q-13 4 -13 8 q0 3 22 2 q12 -1 33 -1 q33 0 49.5 11 q16.5 11 16.5 41 l1 122 q0 64 -10 126 q-2 14 -10 10 q-5 -3 -18.5 -12 q-13.5 -9 -44.5 -17 q-4 -1 -11 -1 q-11 0 -19 5 q-4 -48 -7 -71 q-1 -11 -5 -52 q-4 -41 -4 -76 l0 -457 q0 -12 -8 -12 q-4 0 -12 4 q-8 4 -11 6 q-26 14 -49 34.5 q-23 20.5 -20 42.5 q20 103 20 250 l0 313 q0 19 -7 42 q-7 23 -15 30 q4 1 11 1 q19 0 41 -7 q22 -7 39 -19 q-9 17 -7 27 q18 -2 30 -2 q9 0 25 2 q39 7 57.5 17 q18.5 10 20.5 11 q5 3 9.5 5.5 q4.5 2.5 7.5 3.5 l96 -57 Z" /><glyph glyph-name="uni4EF6" unicode="&#x4ef6;" d="M870 324 q29 -1 53 -15 q24 -14 38.5 -32.5 q14.5 -18.5 14.5 -32.5 q0 -9 -7 -14 q-7 -5 -21 -4 q-49 14 -146 14 q-71 0 -146 -6 l0 -363 q0 -12 -8 -12 q-4 0 -12 4 q-8 4 -11 6 q-26 14 -49 34.5 q-23 20.5 -20 42.5 q20 103 20 250 l0 31 q-101 -11 -213 -27 q-25 -4 -45 26.5 q-20 30.5 -26 51.5 q91 0 284 18 l0 191 l-35 -7 q-50 -10 -50 -10 q-19 -3 -37 20 q-27 -45 -58.5 -74.5 q-31.5 -29.5 -70.5 -55.5 q-22 -14 -27 -14 q-10 0 11 34 q27 45 48 92.5 q21 47.5 46 114.5 q15 37 15 73 q0 13 -3 22 q38 -6 63 -26 q25 -20 25 -49 q0 -13 -6 -30 q-12 -30 -14 -33 q52 5 93 13 l0 189 q0 19 -7 42 q-7 23 -15 30 q4 1 12 1 q29 0 61 -15.5 q32 -15.5 45 -35.5 q-4 -45 -7 -71 q-8 -84 -9 -125 q8 2 56 11 q48 9 86 13 q23 3 44 -8.5 q21 -11.5 34 -29.5 q13 -18 13 -33 q0 -18 -20 -18 q-31 10 -77 10 q-50 0 -136 -15 l0 -199 q26 2 128 13 l86 8 ZM237 469 q32 -15 44 -35 q-4 -48 -7 -72 q-1 -12 -5 -53.5 q-4 -41.5 -4 -77.5 l0 -306 q0 -13 -9 -13 q-9 0 -22 11 q-5 4 -24 19 q-19 15 -32 31 q-13 16 -13 27 q1 30 5 66 q4 36 5 46 q10 94 10 138 l0 153 q-55 -62 -130 -113 q-19 -13 -27.5 -17.5 q-8.5 -4.5 -8.5 -0.5 q0 4 17 29 q47 67 76 113 q29 46 64.5 117 q35.5 71 78.5 176 q13 26 13 65 q0 20 -5 33 q43 -8 68.5 -29 q25.5 -21 25.5 -55 q0 -14 -4 -27 q-49 -133 -116 -225 Z" /><glyph glyph-name="uni4EF7" unicode="&#x4ef7;" d="M922 394 q59 -36 59 -46 q0 -5 -8 -6 q-8 -1 -26 -1 l-102 0 q-27 0 -47 16.5 q-20 16.5 -38 41.5 l-50 69 q-88 120 -121 171 q-29 -60 -71.5 -122 q-42.5 -62 -91.5 -112 q41 1 66.5 -17 q25.5 -18 23.5 -56 q-6 -127 -39.5 -226 q-33.5 -99 -105.5 -162 q-23 -20 -27 -20 q-3 0 -3 4 q0 5 9 25 q69 147 85 372 l1 18 q0 43 -11 61 q-68 -68 -133 -95 q-17 -6 -20 -5 q-3 -36 -3 -73 l0 -317 q0 -13 -9 -13 q-9 0 -22 11 q-5 4 -24 19 q-19 15 -32 31 q-13 16 -13 27 q1 30 5 66 q4 36 5 46 q10 94 10 138 l0 173 l0 2 q-61 -68 -127 -118 q-27 -21 -33 -21 q-7 0 14 31 q59 88 94 156.5 q35 68.5 116 247.5 q12 27 12 63 q0 25 -5 35 q43 -8 69.5 -28.5 q26.5 -20.5 26.5 -53.5 q0 -11 -5 -28 q-37 -118 -116 -227 q37 -16 50 -37 q-2 -28 -8 -84 l-4 -40 q4 6 11 13 q134 142 240 394 q26 61 26 95 q37 -21 53 -38.5 q16 -17.5 16 -41.5 q0 -18 -9 -44 q76 -87 166 -173 q90 -86 146 -121 ZM636 439 q4 1 12 1 q29 0 61 -15.5 q32 -15.5 45 -35.5 q-4 -48 -7 -72 q-1 -12 -5 -53.5 q-4 -41.5 -4 -77.5 l0 -299 q0 -12 -8 -12 q-4 0 -12 4 q-8 4 -11 6 q-26 14 -49 34.5 q-23 20.5 -20 42.5 q20 103 20 250 l0 155 q0 19 -7 42 q-7 23 -15 30 Z" /><glyph glyph-name="uni4EFB" unicode="&#x4efb;" d="M235 471 q37 -16 50 -37 q-4 -48 -7 -72 q-1 -12 -5 -53.5 q-4 -41.5 -4 -77.5 l0 -317 q0 -13 -9 -13 q-9 0 -22 11 q-5 4 -24 19 q-19 15 -32 31 q-13 16 -13 27 q1 30 5 66 q4 36 5 46 q10 94 10 138 l0 173 l0 2 q-61 -68 -127 -118 q-27 -21 -33 -21 q-7 0 14 31 q59 88 94 156.5 q35 68.5 116 247.5 q12 27 12 63 q0 25 -5 35 q43 -8 69.5 -28.5 q26.5 -20.5 26.5 -53.5 q0 -11 -5 -28 q-37 -118 -116 -227 ZM886 401 q25 3 48 -9.5 q23 -12.5 37.5 -32.5 q14.5 -20 14.5 -36 q0 -20 -22 -20 q-48 16 -150 16 q-70 0 -145 -6 l0 -256 l167 12 q25 3 48 -9.5 q23 -12.5 37.5 -32.5 q14.5 -20 14.5 -36 q0 -20 -22 -20 q-64 21 -178 21 q-87 0 -178 -9.5 q-91 -9.5 -158 -20.5 q-25 -4 -45 26.5 q-20 30.5 -26 51.5 q107 3 257 12 q3 153 3 253 q-113 -11 -226 -30 q-25 -4 -45 26.5 q-20 30.5 -26 51.5 q92 2 297 22 l0 142 q0 13 -4 30 q-4 17 -10 29 q-61 -10 -183 -27 q-27 -4 -42 -4 q-11 0 -11 3 q0 5 33 18.5 q33 13.5 124 48.5 q116 44 196 76 q16 10 27 19 q11 9 18 21 q6 12 14 12 q7 0 14.5 -7.5 q7.5 -7.5 19.5 -22.5 q16 -23 30 -33 q5 -4 9.5 -9 q4.5 -5 4.5 -10 q0 -10 -16 -21 q-21 -15 -70.5 -28.5 q-49.5 -13.5 -125.5 -28.5 q22 -6 40.5 -18 q18.5 -12 27.5 -26 l-6 -67 q-6 -62 -8 -89 q17 1 51 5 l164 13 Z" /><glyph glyph-name="uni4EFD" unicode="&#x4efd;" d="M235 471 q37 -16 50 -37 q-4 -48 -7 -72 q-1 -12 -5 -53.5 q-4 -41.5 -4 -77.5 l0 -317 q0 -13 -9 -13 q-9 0 -22 11 q-5 4 -24 19 q-19 15 -32 31 q-13 16 -13 27 q1 30 5 66 q4 36 5 46 q10 94 10 138 l0 173 l0 2 q-61 -68 -127 -118 q-27 -21 -33 -21 q-7 0 14 31 q59 88 94 156.5 q35 68.5 116 247.5 q12 27 12 63 q0 25 -5 35 q43 -8 69.5 -28.5 q26.5 -20.5 26.5 -53.5 q0 -11 -5 -28 q-37 -118 -116 -227 ZM922 417 q32 -22 46 -33 q14 -11 14 -17 q0 -6 -15 -7.5 q-15 -1.5 -51 -1.5 l-65 0 q-48 0 -85 58 q-35 56 -97 179 q-36 73 -55 107 q-7 12 -28.5 29.5 q-21.5 17.5 -33.5 23.5 q-9 5 -22 10 q-18 6 -18 14 q0 5 11.5 8.5 q11.5 3.5 31.5 3.5 q38 0 64 -22 q30 -25 59 -61.5 q29 -36.5 71 -95.5 q57 -77 94 -121.5 q37 -44.5 79 -73.5 ZM297 355 q23 29 57 83.5 q34 54.5 68 117.5 q8 17 14 36.5 q6 19.5 6 34.5 q0 6 -2 14 q33 -11 54 -30 q21 -19 21 -43 q0 -16 -10 -33 q-33 -57 -92 -117.5 q-59 -60.5 -103 -80.5 q-24 -11 -29 -11 q-4 0 -0.5 6.5 q3.5 6.5 16.5 22.5 ZM692 394 q6 2 11 5.5 q5 3.5 8 4.5 l106 -63 q-7 -9 -11 -21 q-4 -12 -7 -23.5 q-3 -11.5 -4 -16.5 q-8 -34 -16 -131 q-8 -102 -16 -143 q-11 -58 -34.5 -87.5 q-23.5 -29.5 -48.5 -29.5 q-11 0 -20 6 q-9 6 -14 17 q-10 22 -44 55.5 q-34 33.5 -51 40.5 q-14 6 -14 9 q0 6 23 6 l41 -1 q32 0 48.5 12 q16.5 12 27.5 52 q7 27 13.5 108 q6.5 81 6.5 124 q0 5 -4.5 8.5 q-4.5 3.5 -10.5 2.5 q-66 -8 -136 -33 q15 -20 15 -42 q0 -11 -5 -28 q-19 -61 -59.5 -124 q-40.5 -63 -90.5 -112.5 q-50 -49.5 -98 -72.5 q-20 -10 -27 -10 q-5 0 -1 6.5 q4 6.5 17 20.5 q91 102 162 306 q6 20 8 31 l-32 -8 q-4 -1 -12 -1 q-21 0 -36.5 14.5 q-15.5 14.5 -23 33.5 q-7.5 19 -5.5 27 q14 -5 35 -5 q17 0 32 3 q42 8 150 32 q108 24 117 27 Z" /><glyph glyph-name="uni4EFF" unicode="&#x4eff;" d="M235 471 q37 -16 50 -37 q-4 -48 -7 -72 q-1 -12 -5 -53.5 q-4 -41.5 -4 -77.5 l0 -317 q0 -13 -9 -13 q-9 0 -22 11 q-5 4 -24 19 q-19 15 -32 31 q-13 16 -13 27 q1 30 5 66 q4 36 5 46 q10 94 10 138 l0 173 l0 2 q-61 -68 -127 -118 q-27 -21 -33 -21 q-7 0 14 31 q59 88 94 156.5 q35 68.5 116 247.5 q12 27 12 63 q0 25 -5 35 q43 -8 69.5 -28.5 q26.5 -20.5 26.5 -53.5 q0 -11 -5 -28 q-37 -118 -116 -227 ZM666 617 q-147 139 -147 164 q0 8 11 8 q3 0 21 -4 l131 -36 q18 -5 26 -10.5 q8 -5.5 8 -20.5 q0 -112 -29 -112 q-10 0 -21 11 ZM854 571 q25 3 48 -9.5 q23 -12.5 37.5 -32.5 q14.5 -20 14.5 -36 q0 -20 -22 -20 q-35 12 -112 12 q-98 0 -234 -17 q30 -22 30 -55 q0 -15 -5 -29 l-9 -26 q134 24 142 28 q5 3 9.5 5.5 q4.5 2.5 7.5 3.5 l96 -57 q-11 -15 -20 -55 q-7 -31 -18 -95 q-11 -64 -15 -88 l-15 -88 q-8 -46 -34.5 -74 q-26.5 -28 -52.5 -28 q-20 0 -27 16 q-9 18 -35.5 46 q-26.5 28 -43.5 42 q-10 8 -10 10 q0 3 19 3 q7 0 33.5 -0.5 q26.5 -0.5 44.5 13.5 q18 14 27 45 q9 31 23.5 115.5 q14.5 84.5 14.5 116.5 q0 5 -4 8 q-4 3 -9 2 q-29 -4 -84 -18 q-36 -10 -52 -13 l-10 -1 l-9 1 q-43 -112 -98 -188 q-55 -76 -147 -128 q-29 -17 -36 -17 q-8 0 16 28 q73 90 114.5 175 q41.5 85 84.5 229 q10 30 10 65 l-127 -19 l-38 -6 q-25 -4 -45 26.5 q-20 30.5 -26 51.5 q56 1 138.5 9.5 q82.5 8.5 212.5 24.5 q165 21 215 24 Z" /><glyph glyph-name="uni4F01" unicode="&#x4f01;" d="M896 410 q91 -44 91 -57 q0 -6 -16 -8.5 q-16 -2.5 -50 -2.5 l-122 0 q-26 0 -43 14 q-17 14 -42 44 q-93 111 -202 220 q-10 10 -28 18 q-101 -133 -191.5 -212 q-90.5 -79 -204.5 -124 q-8 -3 -18 -7.5 q-10 -4.5 -16.5 -6.5 q-6.5 -2 -6.5 0 q0 4 32 32 q197 178 340 388 q16 23 24.5 49 q8.5 26 6.5 44 q38 -18 57 -36 q19 -18 19 -42 q0 -18 -12 -42 q38 -20 76.5 -48.5 q38.5 -28.5 87.5 -70.5 q65 -54 113.5 -89.5 q48.5 -35.5 104.5 -62.5 ZM825 78 q25 3 48 -9.5 q23 -12.5 37.5 -32.5 q14.5 -20 14.5 -36 q0 -20 -22 -20 q-44 15 -188 15 q-147 0 -345 -13.5 q-198 -13.5 -257 -22.5 q-25 -4 -45 26.5 q-20 30.5 -26 51.5 q83 2 210 9 q-6 10 -4 23 l0 157 l0 21 q0 19 -7 42 q-7 23 -15 30 q4 1 12 1 q29 0 61 -15.5 q32 -15.5 45 -35.5 q-6 -82 -6 -190 l0 -29 q41 3 130 7 l0 363 q0 19 -7 42 q-7 23 -15 30 q4 1 12 1 q29 0 61 -15.5 q32 -15.5 45 -35.5 l-6 -66 q-6 -58 -8 -86 q38 1 65 6 q27 5 33 6 q20 5 51 10 q25 3 48 -9.5 q23 -12.5 37.5 -32.5 q14.5 -20 14.5 -36 q0 -20 -22 -20 q-51 17 -84 17 q-20 0 -54 -9 q-8 -2 -23 -5.5 q-15 -3.5 -30 -5.5 q-19 -3 -38 18 l0 -167 l277 16 Z" /><glyph glyph-name="uni4F0A" unicode="&#x4f0a;" d="M244 477 q30 -15 41 -33 q-4 -48 -7 -72 q-1 -12 -5 -53.5 q-4 -41.5 -4 -77.5 l0 -312 q0 -13 -9 -13 q-9 0 -22 11 q-5 4 -24 19 q-19 15 -32 31 q-13 16 -13 27 q1 30 5 66 q4 36 5 46 q10 94 10 138 l0 152 q-65 -75 -138 -119 q-6 -4 -19 -11.5 q-13 -7.5 -17 -7.5 q-7 0 16 29 q73 94 123.5 188 q50.5 94 99.5 217 q9 24 9 55 q0 27 -7 44 q44 -7 72.5 -26.5 q28.5 -19.5 28.5 -52.5 q0 -10 -5 -27 q-40 -120 -108 -218 ZM882 547 q24 3 46 -10.5 q22 -13.5 35.5 -34 q13.5 -20.5 13.5 -37.5 q0 -21 -21 -21 q-54 11 -151 14 l-28 -90 q28 -10 47.5 -34 q19.5 -24 19.5 -44 q0 -21 -23 -21 q-72 15 -165 15 q-43 0 -82 -3 q-35 -134 -98.5 -235 q-63.5 -101 -161.5 -138 q-40 -15 -40 -11 q0 6 25 25 q123 104 176 348 q-56 -10 -92 -25 q-18 -3 -34.5 13.5 q-16.5 16.5 -27 37.5 q-10.5 21 -13.5 31 q103 3 181 11 q9 54 15 105 q-109 -13 -148 -29 q-25 -4 -45 26.5 q-20 30.5 -26 51.5 q111 2 226 15 l3 45 q2 36 -2 63 l-82 -16 q-20 -4 -35 13 q-15 17 -23 40.5 q-8 23.5 -6 32.5 q22 -6 55 -6 q54 0 158.5 13 q104.5 13 168.5 37 q5 2 10 5 q5 3 7 4 l116 -77 q-20 -27 -29 -55 l-19 -62 l49 3 ZM591 628 q29 -24 26 -70 l-3 -37 q70 10 115 14 l23 105 l0 1 q0 4 -4 7 q-4 3 -9 2 q-98 -14 -148 -22 ZM626 360 l67 9 l19 88 q-71 -2 -105 -5 q-6 -44 -17 -98 l36 6 Z" /><glyph glyph-name="uni4F0D" unicode="&#x4f0d;" d="M235 471 q37 -16 50 -37 q-4 -48 -7 -72 q-1 -12 -5 -53.5 q-4 -41.5 -4 -77.5 l0 -317 q0 -13 -9 -13 q-9 0 -22 11 q-5 4 -24 19 q-19 15 -32 31 q-13 16 -13 27 q1 30 5 66 q4 36 5 46 q10 94 10 138 l0 173 l0 2 q-61 -68 -127 -118 q-27 -21 -33 -21 q-7 0 14 31 q59 88 94 156.5 q35 68.5 116 247.5 q12 27 12 63 q0 25 -5 35 q43 -8 69.5 -28.5 q26.5 -20.5 26.5 -53.5 q0 -11 -5 -28 q-37 -118 -116 -227 ZM876 89 q25 3 48 -9.5 q23 -12.5 37.5 -32.5 q14.5 -20 14.5 -36 q0 -20 -22 -20 q-41 14 -137 14 q-108 0 -251.5 -14.5 q-143.5 -14.5 -215.5 -26.5 q-25 -4 -45 26.5 q-20 30.5 -26 51.5 l94 4 q-6 12 -6 23 q0 8 3 14 l12 26 q28 61 44.5 101 q16.5 40 34.5 91 q-32 -9 -42 -13 q-8 -2 -11 -2 q-16 0 -28.5 14.5 q-12.5 14.5 -19.5 32.5 q-7 18 -5 25 q18 -2 30 -2 q9 0 25 2 l74 13 q24 77 56 196 q3 11 3 23 q-62 -12 -88 -24 q-16 -3 -30 11.5 q-14 14.5 -22.5 33 q-8.5 18.5 -10.5 26.5 q152 9 370 78 q10 3 22 3 q20 0 39 -9.5 q19 -9.5 31 -23.5 q12 -14 12 -26 q0 -13 -16 -17 q-29 -7 -150 -26 q-34 -5 -89 -14 q21 -19 27 -39 q-12 -30 -20 -55 q-28 -73 -43 -120 q136 25 143 29 q5 3 9.5 5.5 q4.5 2.5 7.5 3.5 l117 -57 q-21 -29 -27 -55 q-10 -45 -34 -129 q-21 -73 -28 -105 l113 9 ZM467 53 l201 18 l14 66 q22 93 40 201 l0 1 q0 4 -4 7 q-4 3 -9 2 q-90 -13 -156 -25 l-86 -270 Z" /><glyph glyph-name="uni4F11" unicode="&#x4f11;" d="M933 121 q54 -42 54 -51 q0 -4 -7.5 -5 q-7.5 -1 -15.5 -0.5 q-8 0.5 -14 0.5 l-102 0 q-29 0 -42.5 8 q-13.5 8 -26.5 30 q-54 94 -143 258 l0 -463 q0 -12 -8 -12 q-4 0 -12 4 q-8 4 -11 6 q-26 14 -49 34.5 q-23 20.5 -20 42.5 q20 103 20 250 l0 95 q-52 -80 -105 -133 q-53 -53 -147 -106 q-23 -13 -35 -13 l0 -152 q0 -13 -9 -13 q-9 0 -22 11 q-5 4 -24 19 q-19 15 -32 31 q-13 16 -13 27 q1 30 5 66 q4 36 5 46 q10 94 10 138 l0 173 l0 2 q-61 -68 -127 -118 q-27 -21 -33 -21 q-7 0 14 31 q59 88 94 156.5 q35 68.5 116 247.5 q12 27 12 63 q0 25 -5 35 q43 -8 69.5 -28.5 q26.5 -20.5 26.5 -53.5 q0 -11 -5 -28 q-37 -118 -116 -227 q37 -16 50 -37 q-4 -48 -7 -72 q-1 -12 -5 -53.5 q-4 -41.5 -4 -77.5 l0 -146 q10 14 22 26 q69 70 126 143 q57 73 115 175 q-36 -4 -72 -9 q-36 -5 -48 -7 l-25 -4 q-25 -4 -45 26.5 q-20 30.5 -26 51.5 q79 1 240 18 l0 208 q0 19 -7 42 q-7 23 -15 30 q4 1 12 1 q29 0 61 -15.5 q32 -15.5 45 -35.5 q-4 -48 -7 -72 q-1 -12 -5 -53.5 q-4 -41.5 -4 -77.5 l0 -19 q120 12 177 16 q25 3 48 -9.5 q23 -12.5 37.5 -32.5 q14.5 -20 14.5 -36 q0 -20 -22 -20 q-42 15 -130 15 q-48 0 -113 -5 q73 -98 151 -187.5 q78 -89.5 134 -132.5 Z" /><glyph glyph-name="uni4F17" unicode="&#x4f17;" d="M388 60 q-62 66 -82 105 q-81 -120 -246 -205 q-22 -12 -32 -12 q-4 0 -4 3 q0 5 17 21 q83 75 152.5 170.5 q69.5 95.5 83.5 193.5 q4 13 4 31 q0 18 -6 44 q-73 -46 -157 -73 q-27 -8 -34 -8 q-3 0 -3 1 q0 3 22 18 q52 34 119 98.5 q67 64.5 126 139 q59 74.5 88 138.5 q9 15 14 35.5 q5 20.5 5 38.5 q0 8 -2 18 q37 -12 59 -32.5 q22 -20.5 22 -49.5 q0 -13 -7 -32 q-9 -22 -21 -45 q19 -4 39 -15 l61 -44 q73 -55 135 -96.5 q62 -41.5 153 -91.5 q32 -20 46 -31 q14 -11 14 -17 q0 -6 -15.5 -8.5 q-15.5 -2.5 -50.5 -2.5 l-102 0 q-26 0 -48.5 16 q-22.5 16 -46.5 42 q-44 46 -102 114 q-17 20 -44 51 q-8 10 -27.5 24 q-19.5 14 -32.5 21 q-73 -115 -187 -194 q36 -6 56.5 -27 q20.5 -21 16.5 -59 q-6 -70 -41 -135 l105 -49 q19 -8 19 -25 q0 -3 -2 -11 q-10 -33 -19 -52.5 q-9 -19.5 -23 -19.5 q-11 0 -22 12 ZM922 -13 q33 -20 46.5 -31 q13.5 -11 13.5 -17 q0 -6 -15.5 -8.5 q-15.5 -2.5 -50.5 -2.5 l-82 0 q-41 0 -68.5 12.5 q-27.5 12.5 -46.5 45.5 q-36 63 -60 111.5 q-24 48.5 -40 96.5 q-32 -82 -93 -150.5 q-61 -68.5 -155 -116.5 q-22 -12 -32 -12 q-4 0 -4 3 q0 5 17 21 q42 38 86.5 103 q44.5 65 77.5 141.5 q33 76.5 43 146.5 q4 13 4 32 q0 17 -3.5 34 q-3.5 17 -9.5 27 q46 -1 74.5 -20 q28.5 -19 28.5 -59 q0 -33 -12 -81 q42 -75 114 -146 q72 -71 167 -130 Z" /><glyph glyph-name="uni4F18" unicode="&#x4f18;" d="M235 471 q37 -16 50 -37 q-4 -48 -7 -72 q-1 -12 -5 -53.5 q-4 -41.5 -4 -77.5 l0 -317 q0 -13 -9 -13 q-9 0 -22 11 q-5 4 -24 19 q-19 15 -32 31 q-13 16 -13 27 q1 30 5 66 q4 36 5 46 q10 94 10 138 l0 173 l0 2 q-61 -68 -127 -118 q-27 -21 -33 -21 q-7 0 14 31 q59 88 94 156.5 q35 68.5 116 247.5 q12 27 12 63 q0 25 -5 35 q43 -8 69.5 -28.5 q26.5 -20.5 26.5 -53.5 q0 -11 -5 -28 q-37 -118 -116 -227 ZM964 42 q10 -17 10 -32 q0 -73 -262 -73 q-72 0 -101 45 q-29 45 -29 101 l0 248 q0 15 -4.5 32.5 q-4.5 17.5 -10.5 29.5 q-35 -144 -92 -255 q-57 -111 -156 -182 q-12 -9 -20 -9 q-5 0 -5 5 q0 6 9 20 q70 106 108 211.5 q38 105.5 63 231.5 q-45 -6 -116 -18 q-25 -4 -45 26.5 q-20 30.5 -26 51.5 q56 1 200 17 l15 91 q3 17 17 104 q4 26 4 44 q0 43 -12 64 q51 -3 84.5 -24.5 q33.5 -21.5 33.5 -61.5 q0 -10 -3 -22 q-2 -7 -20 -102 l-15 -79 l32 4 q94 13 155 17 q25 3 48 -9.5 q23 -12.5 37.5 -32.5 q14.5 -20 14.5 -36 q0 -20 -22 -20 q-41 12 -107 12 q-73 0 -174 -12 l-6 -26 q26 -4 62 -18.5 q36 -14.5 47 -31.5 l-6 -68 q-10 -106 -10 -158 q0 -41 5 -63 q5 -22 19 -31.5 q14 -9.5 42 -9.5 l33 0 q44 0 67.5 11 q23.5 11 36 52 q12.5 41 12.5 127 q0 14 5 21.5 q5 7.5 11 7.5 q9 0 10 -12 q5 -48 21 -97.5 q16 -49.5 40 -90.5 ZM807 586 q-118 102 -118 123 q0 7 13 7 q12 0 48 -9 l73 -18 q19 -5 26 -11 q7 -6 6 -21 q-1 -7 -2.5 -31.5 q-1.5 -24.5 -7 -38 q-5.5 -13.5 -15.5 -13.5 q-10 0 -23 12 Z" /><glyph glyph-name="uni4F19" unicode="&#x4f19;" d="M254 465 q28 -16 37 -31 q-4 -48 -7 -72 q-1 -12 -5 -53.5 q-4 -41.5 -4 -77.5 l0 -325 q0 -13 -9 -13 q-9 0 -22 11 q-5 4 -24 19 q-19 15 -32 31 q-13 16 -13 27 q1 30 5 66 q4 36 5 46 q10 94 10 138 l0 159 q-69 -77 -141 -119 q-27 -15 -34 -15 q-12 0 14 33 q14 18 20 24 q54 67 82.5 108.5 q28.5 41.5 57.5 103 q29 61.5 65 164.5 q9 26 9 57 q0 28 -6 41 q44 -7 71 -27.5 q27 -20.5 27 -55.5 q0 -11 -3 -23 q-31 -113 -103 -216 ZM954 -7 q4 -3 14 -12.5 q10 -9.5 14 -14 q4 -4.5 4 -6.5 q0 -5 -12 -6 q-12 -1 -48 -1 l-102 0 q-31 0 -53 12 q-22 12 -33 35 q-71 155 -136 307 q-70 -259 -239 -334 q-30 -13 -39 -13 q-9 0 -4.5 9 q4.5 9 25.5 32 q50 53 96 138.5 q46 85.5 76.5 209 q30.5 123.5 30.5 273.5 q0 36 -1 55 q2 22 -4.5 53.5 q-6.5 31.5 -15.5 49.5 q62 2 93.5 -17.5 q31.5 -19.5 31.5 -69.5 q-5 -169 -30 -300 l15 -23 q34 32 75 78 q41 46 68 85 q38 55 34 98 q33 -15 54 -41 q21 -26 21 -54 q0 -28 -21 -52 q-28 -37 -94.5 -70.5 q-66.5 -33.5 -132.5 -48.5 q65 -101 132 -185.5 q67 -84.5 159 -167.5 l22 -19 ZM407 337 q-39 88 -55.5 129 q-16.5 41 -16.5 54 q0 6 4 6 q6 0 17 -10 l98 -83 q2 -2 7.5 -6.5 q5.5 -4.5 8 -8.5 q2.5 -4 2.5 -9 q0 -2 -2 -10 q-10 -29 -23 -52.5 q-13 -23.5 -25 -23.5 q-8 0 -15 14 Z" /><glyph glyph-name="uni4F1A" unicode="&#x4f1a;" d="M889 413 q91 -44 91 -57 q0 -6 -16 -8.5 q-16 -2.5 -50 -2.5 l-122 0 q-26 0 -43 14 q-17 14 -42 44 q-130 155 -195 220 q-10 10 -28 18 q-111 -145 -206 -224 q84 6 139.5 17.5 q55.5 11.5 129.5 34.5 q11 3 21 3 q21 0 40.5 -10.5 q19.5 -10.5 31.5 -25 q12 -14.5 12 -25.5 q0 -14 -17 -15 q-23 -3 -75 -7 q-93 -8 -145.5 -16 q-52.5 -8 -89.5 -28 q-20 -3 -35.5 17.5 q-15.5 20.5 -24.5 44.5 q-84 -65 -177 -102 q-8 -3 -18 -7.5 q-10 -4.5 -16.5 -6.5 q-6.5 -2 -6.5 0 q0 4 32 32 q197 178 340 388 q16 23 24.5 49 q8.5 26 6.5 44 q38 -18 57 -36 q19 -18 19 -42 q0 -18 -12 -42 q38 -20 74.5 -47.5 q36.5 -27.5 86.5 -71.5 q63 -54 110.5 -89.5 q47.5 -35.5 103.5 -62.5 ZM745 307 q25 3 48 -9.5 q23 -12.5 37.5 -32.5 q14.5 -20 14.5 -36 q0 -20 -22 -20 q-40 16 -145 16 q-87 0 -232 -13 q4 -9 4 -21 q0 -16 -8 -31 q-18 -36 -31.5 -55.5 q-13.5 -19.5 -45.5 -59.5 q-1 -2 -3 -4 q-2 -2 -1 -2.5 q1 -0.5 4 -0.5 q80 10 238 33 q-16 32 -27.5 57.5 q-11.5 25.5 -11.5 34.5 q0 7 5 7 q9 0 31 -16 l146 -103 q24 -16 24 -32 q0 -10 -9 -24 l-12 -19 q-19 -30 -31 -44.5 q-12 -14.5 -25 -14.5 q-15 0 -29 29 l-28 60 l-10 20 q-280 -83 -332 -95 q-12 -2 -18 -2 q-36 0 -54.5 32 q-18.5 32 -18.5 64 q0 8 2 14 l1 2 q4 -1 12 -1 q60 0 103 74 q4 6 7 11.5 q3 5.5 6 9.5 q11 17 25 47 q3 6 9 22 q-88 -10 -168 -22 q-25 -4 -45 26.5 q-20 30.5 -26 51.5 q64 3 289 23 q27 2 149 12.5 q122 10.5 178 11.5 Z" /><glyph glyph-name="uni4F20" unicode="&#x4f20;" d="M881 444 q26 1 49 -13 q23 -14 37 -35 q14 -21 14 -38 q0 -10 -6 -15 q-6 -5 -18 -4 q-44 10 -143 10 q-117 0 -236 -12 l-34 -90 q-3 -6 -3 -9 q53 5 120.5 15 q67.5 10 77.5 14 q7 2 14 6 q7 4 10 5 l115 -68 q-59 -65 -205 -183 l45 -13 q17 -5 24.5 -12 q7.5 -7 7.5 -20 q0 -9 -1 -14 q-2 -7 -7 -28 q-8 -32 -15 -46.5 q-7 -14.5 -20 -14.5 q-13 0 -33 17 q-39 33 -138 110 q-46 35 -68 53.5 q-22 18.5 -22 24.5 q0 3 6 3 q8 0 21 -4 l159 -45 l90 156 q4 8 4 10 q0 3 -3 3 q-3 0 -9 -3 q-11 -5 -64 -15 q-14 -3 -63 -14 q-49 -11 -84 -22 q-9 -3 -18 -3 q-28 0 -44.5 28 q-16.5 28 -16.5 53 q0 7 1 9 q32 2 46.5 16 q14.5 14 22.5 39 q2 7 4.5 15.5 q2.5 8.5 5.5 18.5 q-125 -16 -166 -36 q-19 -2 -34.5 16 q-15.5 18 -26.5 44 q-8 -82 -8 -122 l0 -317 q0 -13 -9 -13 q-9 0 -22 11 q-5 4 -24 19 q-19 15 -32 31 q-13 16 -13 27 q1 30 5 66 q4 36 5 46 q10 94 10 138 l0 173 l0 2 q-61 -68 -127 -118 q-27 -21 -33 -21 q-7 0 14 31 q64 97 105 174.5 q41 77.5 105 229.5 q12 29 12 65 q0 20 -5 33 q43 -8 69.5 -28.5 q26.5 -20.5 26.5 -53.5 q0 -11 -5 -28 q-37 -118 -116 -227 q37 -16 50 -37 q-1 -19 -5 -57 q61 5 242 23 q15 62 27 129 q-76 -14 -113 -25 q-21 -2 -34.5 22.5 q-13.5 24.5 -18.5 43.5 q90 7 176 18 q10 61 18 128 q1 6 1 18 q0 22 -5 43.5 q-5 21.5 -13 31.5 q7 1 21 1 q41 0 66.5 -17.5 q25.5 -17.5 25.5 -55.5 q0 -47 -18 -135 q87 14 140 28 q20 1 38 -10 q18 -11 28.5 -27.5 q10.5 -16.5 10.5 -29.5 q0 -8 -5 -12 q-5 -4 -14 -3 q-25 7 -71 7 q-64 0 -141 -11 q-12 -50 -39 -136 q188 19 279 36 Z" /><glyph glyph-name="uni4F24" unicode="&#x4f24;" d="M235 471 q37 -16 50 -37 q-4 -48 -7 -72 q-1 -12 -5 -53.5 q-4 -41.5 -4 -77.5 l0 -317 q0 -13 -9 -13 q-9 0 -22 11 q-5 4 -24 19 q-19 15 -32 31 q-13 16 -13 27 q1 30 5 66 q4 36 5 46 q10 94 10 138 l0 173 l0 2 q-61 -68 -127 -118 q-27 -21 -33 -21 q-7 0 14 31 q59 88 94 156.5 q35 68.5 116 247.5 q12 27 12 63 q0 25 -5 35 q43 -8 69.5 -28.5 q26.5 -20.5 26.5 -53.5 q0 -11 -5 -28 q-37 -118 -116 -227 ZM814 652 q21 2 39.5 -9 q18.5 -11 30 -27 q11.5 -16 11.5 -29 q0 -7 -5 -11.5 q-5 -4.5 -14 -3.5 q-13 2 -42 2 q-68 0 -150 -16 q-82 -16 -124 -35 q-21 -3 -39 27 q-87 -102 -176 -147 q-16 -8 -23 -8 q-7 0 -2 7.5 q5 7.5 20 25.5 q43 49 93.5 127 q50.5 78 83.5 153 q7 15 11.5 35.5 q4.5 20.5 4.5 38.5 q0 10 -2 20 q38 -9 62 -29 q24 -20 24 -50 q0 -15 -7 -32 q-18 -42 -57 -98 q148 18 261 59 ZM751 419 q6 2 11 5.5 q5 3.5 8 4.5 l106 -63 q-7 -9 -11 -21 q-4 -12 -7 -23.5 q-3 -11.5 -4 -16.5 q-8 -36 -20 -140 q-13 -103 -20 -141 q-11 -58 -34.5 -87.5 q-23.5 -29.5 -48.5 -29.5 q-11 0 -20 6 q-9 6 -14 17 q-10 22 -44 55.5 q-34 33.5 -51 40.5 q-14 6 -14 9 q0 6 23 6 l41 -1 q32 0 48.5 12 q16.5 12 27.5 52 q8 29 18 115 q10 86 10 124 q0 5 -4.5 8.5 q-4.5 3.5 -10.5 2.5 q-51 -7 -125 -29 q-31 -91 -62 -155 q-31 -64 -79 -120.5 q-48 -56.5 -120 -102.5 q-28 -17 -35 -17 q-11 0 17 35 q66 84 99.5 152.5 q33.5 68.5 65.5 171.5 l-21 -6 l-26 -6 q-4 -1 -12 -1 q-21 0 -36.5 14.5 q-15.5 14.5 -23 33.5 q-7.5 19 -5.5 27 q14 -5 35 -5 q17 0 32 3 q38 7 80 17 q0 -1 14 45 q10 32 10 65 q0 25 -7 38 q45 -7 74.5 -29 q29.5 -22 29.5 -57 q0 -11 -5 -28 l-3 -8 q101 22 113 27 Z" /><glyph glyph-name="uni4F26" unicode="&#x4f26;" d="M235 471 q37 -16 50 -37 q-4 -48 -7 -72 q-1 -12 -5 -53.5 q-4 -41.5 -4 -77.5 l0 -317 q0 -13 -9 -13 q-9 0 -22 11 q-5 4 -24 19 q-19 15 -32 31 q-13 16 -13 27 q1 30 5 66 q4 36 5 46 q10 94 10 138 l0 173 l0 2 q-61 -68 -127 -118 q-27 -21 -33 -21 q-7 0 14 31 q59 88 94 156.5 q35 68.5 116 247.5 q12 27 12 63 q0 25 -5 35 q43 -8 69.5 -28.5 q26.5 -20.5 26.5 -53.5 q0 -11 -5 -28 q-37 -118 -116 -227 ZM915 405 q59 -36 59 -46 q0 -5 -8 -6 q-8 -1 -26 -1 l-98 0 q-27 0 -47 16.5 q-20 16.5 -38 41.5 q-34 50 -105 172 l-38 64 q-26 -59 -72 -125.5 q-46 -66.5 -99 -119.5 q27 -5 60 -19 q33 -14 43 -30 q-4 -13 -7.5 -44.5 q-3.5 -31.5 -3.5 -65.5 l0 -52 q44 40 73.5 68 q29.5 28 62.5 66 q10 8 19 20.5 q9 12.5 12 25.5 q3 13 12 13 q10 0 33 -18 q4 -2 15.5 -10.5 q11.5 -8.5 21.5 -11.5 q17 -6 17 -16 q0 -9 -10 -20 q-30 -36 -79.5 -64 q-49.5 -28 -155.5 -73 l-21 -9 l0 -48 q0 -41 5 -63 q5 -22 19 -31.5 q14 -9.5 42 -9.5 q102 0 151 12.5 q49 12.5 68.5 49 q19.5 36.5 19.5 114.5 q0 13 4.5 20 q4.5 7 10.5 7 q10 0 11 -12 q2 -50 11.5 -90 q9.5 -40 33.5 -82 q12 -21 12 -38 q0 -31 -43.5 -45.5 q-43.5 -14.5 -109.5 -18 q-66 -3.5 -185 -3.5 q-72 0 -100.5 44.5 q-28.5 44.5 -29.5 101.5 l-5 261 q0 15 -4.5 33 q-4.5 18 -10.5 30 q-62 -60 -117 -87 q-13 -6 -18 -6 q-3 0 -3 2 q0 5 12 18 q143 166 231 389 q10 26 16.5 52 q6.5 26 5.5 43 q39 -20 56 -37.5 q17 -17.5 17 -43.5 q0 -11 -3 -26 q91 -111 159.5 -184.5 q68.5 -73.5 123.5 -107.5 Z" /><glyph glyph-name="uni4F2A" unicode="&#x4f2a;" d="M235 471 q37 -16 50 -37 q-4 -48 -7 -72 q-1 -12 -5 -53.5 q-4 -41.5 -4 -77.5 l0 -317 q0 -13 -9 -13 q-9 0 -22 11 q-5 4 -24 19 q-19 15 -32 31 q-13 16 -13 27 q1 30 5 66 q4 36 5 46 q10 94 10 138 l0 173 l0 2 q-61 -68 -127 -118 q-27 -21 -33 -21 q-7 0 14 31 q59 88 94 156.5 q35 68.5 116 247.5 q12 27 12 63 q0 25 -5 35 q43 -8 69.5 -28.5 q26.5 -20.5 26.5 -53.5 q0 -11 -5 -28 q-37 -118 -116 -227 ZM916 477 q-7 -9 -11 -21 q-4 -12 -7 -23.5 q-3 -11.5 -4 -16.5 q-11 -43 -36 -220 q-24 -157 -29 -183 q-11 -58 -34.5 -87.5 q-23.5 -29.5 -48.5 -29.5 q-11 0 -20 6 q-9 6 -14 17 q-10 22 -44 55.5 q-34 33.5 -51 40.5 q-14 6 -14 9 q0 6 23 6 l41 -1 q32 0 48.5 12 q16.5 12 27.5 52 q9 32 31 179 q22 147 22 182 q0 5 -4.5 8.5 q-4.5 3.5 -10.5 2.5 q-56 -6 -164 -26 q-11 -35 -37 -105 q18 -4 38 -14 l67 -30 q14 -6 20 -12 q6 -6 6 -17 q0 -6 -1 -9 q-9 -37 -17 -58.5 q-8 -21.5 -20 -21.5 q-10 0 -21 18 q-24 40 -49 73 q-23 34 -32 50 q-104 -255 -251 -351 q-17 -12 -24 -12 q-3 0 -3 3 q0 6 13 22 q61 78 114 194 q53 116 95 250 q-100 -20 -128 -27 q-4 -1 -12 -1 q-21 0 -36.5 14.5 q-15.5 14.5 -23 33.5 q-7.5 19 -5.5 27 q14 -5 35 -5 q17 0 32 3 l159 25 q35 123 52 216 q4 24 4 40 q0 40 -12 58 q46 -2 76.5 -21.5 q30.5 -19.5 30.5 -56.5 q0 -6 -2 -18 q-24 -118 -48 -202 q146 22 154 25 q6 2 11 5.5 q5 3.5 8 4.5 l106 -63 ZM521 575 q-10 -41 -18.5 -62.5 q-8.5 -21.5 -20.5 -21.5 q-11 0 -22 19 l-33 53 q-33 52 -41.5 71.5 q-8.5 19.5 5.5 19.5 q15 0 52 -17 l51 -23 q15 -7 21.5 -12.5 q6.5 -5.5 6.5 -16.5 q0 -6 -1 -10 Z" /><glyph glyph-name="uni4F2F" unicode="&#x4f2f;" d="M302 798 q43 -8 68.5 -29 q25.5 -21 25.5 -55 q0 -14 -4 -27 q-39 -119 -120 -224 q23 -13 33 -29 q-4 -48 -7 -72 q-1 -12 -5 -53.5 q-4 -41.5 -4 -77.5 l0 -282 q0 -13 -9 -13 q-9 0 -22 11 q-5 4 -24 19 q-19 15 -32 31 q-13 16 -13 27 q1 30 5 66 q4 36 5 46 q10 94 10 138 l0 117 q-75 -75 -149 -112 q-30 -16 -36 -16 q-7 0 17 27 q57 65 88.5 104.5 q31.5 39.5 60.5 87.5 l0 0 q48 78 104 218 q13 26 13 65 q0 20 -5 33 ZM900 542 q-7 -12 -11.5 -27 q-4.5 -15 -4.5 -29 l-11 -413 q-1 -38 -11 -68.5 q-10 -30.5 -24.5 -48 q-14.5 -17.5 -28.5 -17.5 q-12 0 -19 13 q-8 12 -15 26 q-18 34 -33 48 q-57 1 -117.5 -8 q-60.5 -9 -102.5 -24 l0 -38 q0 -12 -8 -12 q-5 0 -12.5 4.5 q-7.5 4.5 -9.5 5.5 q-30 18 -51 36.5 q-21 18.5 -18 40.5 q25 128 22 250 l-5 196 q-1 20 -7.5 43 q-6.5 23 -14.5 29 q4 1 11 1 q20 0 43 -7.5 q23 -7.5 40 -19.5 q5 12 11.5 29.5 q6.5 17.5 15.5 40.5 q27 67 33 83 q10 24 10 46 q0 8 -1 12 q-5 23 20 23 q14 0 34 -5 q33 -5 39 -5 q13 0 20.5 -2.5 q7.5 -2.5 7.5 -15.5 l-2 -13 q-21 -78 -95 -176 q7 1 36.5 6.5 q29.5 5.5 62.5 15.5 q33 10 69 26 q5 2 10.5 6 q5.5 4 6.5 5 l110 -57 ZM521 69 q53 8 89 16 q88 18 145 19 l8 0 q11 0 17 -1 l0 15 l3 401 q0 5 -1 6.5 q-1 1.5 -6 -0.5 q-48 -20 -83 -32.5 q-35 -12.5 -87 -20.5 q-24 -4 -43 17 q-9 -11 -27 -31 l-4 -5 q-10 -85 -12 -130 q46 4 88 12 l34 6 q27 3 50 -9 q23 -12 37 -30 q14 -18 14 -33 q0 -17 -20 -17 q-72 18 -102 18 q-20 0 -38.5 -5 q-18.5 -5 -49.5 -18 l-4 0 q-6 0 -9 1 l1 -179 Z" /><glyph glyph-name="uni4F30" unicode="&#x4f30;" d="M869 541 q25 3 48 -9.5 q23 -12.5 37.5 -32.5 q14.5 -20 14.5 -36 q0 -20 -22 -20 q-39 13 -114 13 q-63 0 -173 -11 l0 -166 l98 14 q10 1 17 11 l138 -55 q-16 -7 -35 -47 l-72 -157 q27 -1 48 -21 q21 -20 21 -37 q0 -14 -17 -15 q-36 4 -87 4 q-67 0 -135.5 -7.5 q-68.5 -7.5 -108.5 -17.5 q-2 -1 -6 -1 q-6 0 -14 4 q1 -9 2.5 -22.5 q1.5 -13.5 1.5 -23.5 q0 -10 -9 -10 q-7 0 -21 7 q-3 2 -24.5 12.5 q-21.5 10.5 -37 26.5 q-15.5 16 -15.5 31 q1 23 1 93 q0 109 -6 134 q-5 22 -14 43 q-9 21 -17 25 q16 4 27 4 q19 0 39.5 -6 q20.5 -6 36.5 -16 q-1 4 -1 10 q36 -3 39 -3 q11 0 16 1 l84 11 q-44 35 -39 64 q0 32 4 100 q-59 -7 -198 -29 q-25 -4 -45 26.5 q-20 30.5 -26 51.5 q97 0 272 18 q3 42 3 83 l0 156 q0 19 -7 42 q-7 23 -15 30 q4 1 12 1 q29 0 61 -15.5 q32 -15.5 45 -35.5 q-4 -48 -7 -72 q-1 -12 -5 -53.5 q-4 -41.5 -4 -77.5 l0 -49 q122 14 209 30 ZM267 466 q27 -15 38 -32 q-4 -48 -7 -72 q-1 -12 -5 -53.5 q-4 -41.5 -4 -77.5 l0 -309 q0 -13 -9 -13 q-9 0 -22 11 q-5 4 -24 19 q-19 15 -32 31 q-13 16 -13 27 q1 30 5 66 q4 36 5 46 q10 94 10 138 l0 143 q-68 -79 -142 -125 q-31 -19 -35 -19 q-7 0 16 29 q53 66 86 119 q33 53 62 118.5 q29 65.5 76 188.5 q9 24 9 53 q0 29 -8 45 q44 -5 72.5 -25 q28.5 -20 28.5 -55 q0 -12 -3 -24 q-32 -120 -104 -229 ZM768 224 q0 4 -4.5 6 q-4.5 2 -9.5 1 q-100 -15 -220 -36 q-24 -4 -41 15 q3 -106 10 -201 q92 3 217 23 l48 190 l0 2 Z" /><glyph glyph-name="uni4F34" unicode="&#x4f34;" d="M857 295 q25 3 48 -9.5 q23 -12.5 37.5 -32.5 q14.5 -20 14.5 -36 q0 -20 -22 -20 q-39 16 -124 16 q-58 0 -153 -9 l0 -307 q0 -12 -8 -12 q-4 0 -12 4 q-8 4 -11 6 q-26 14 -49 34.5 q-23 20.5 -20 42.5 q18 95 20 224 q-91 -11 -186 -26 l-41 -6 q-25 -4 -45 26.5 q-20 30.5 -26 51.5 q99 1 298 21 l0 128 q-8 -1 -109 -18 l-39 -7 q-25 -4 -45 26.5 q-20 30.5 -26 51.5 q92 1 219 15 l0 290 q0 19 -7 42 q-7 23 -15 30 q4 1 12 1 q29 0 61 -15.5 q32 -15.5 45 -35.5 q-4 -48 -7 -72 q-1 -12 -5 -53.5 q-4 -41.5 -4 -77.5 l0 -43 q10 13 15 19 q26 31 53 68 l34 44 q14 18 23.5 41 q9.5 23 8.5 38 q28 -15 45 -34.5 q17 -19.5 17 -41.5 q0 -20 -17 -40 q-22 -26 -67.5 -54.5 q-45.5 -28.5 -82.5 -41.5 q-24 -8 -29 -8 l0 -47 q87 11 137 22 q25 3 48 -9.5 q23 -12.5 37.5 -32.5 q14.5 -20 14.5 -36 q0 -20 -22 -20 q-39 16 -112 16 q-51 0 -103 -6 l0 -131 q157 17 199 24 ZM235 471 q37 -16 50 -37 q-4 -48 -7 -72 q-1 -12 -5 -53.5 q-4 -41.5 -4 -77.5 l0 -317 q0 -13 -9 -13 q-9 0 -22 11 q-5 4 -24 19 q-19 15 -32 31 q-13 16 -13 27 q1 30 5 66 q4 36 5 46 q10 94 10 138 l0 173 l0 2 q-61 -68 -127 -118 q-27 -21 -33 -21 q-7 0 14 31 q59 88 94 156.5 q35 68.5 116 247.5 q12 27 12 63 q0 25 -5 35 q43 -8 69.5 -28.5 q26.5 -20.5 26.5 -53.5 q0 -11 -5 -28 q-37 -118 -116 -227 ZM535 576 q-3 -9 -10.5 -28.5 q-7.5 -19.5 -14.5 -30 q-7 -10.5 -15 -10.5 q-11 0 -23 18 q-34 49 -50 76 q-16 27 -16 39 q0 10 11 10 q10 0 31 -9 l67 -27 q12 -6 17.5 -11 q5.5 -5 5.5 -13 q0 -6 -3 -14 Z" /><glyph glyph-name="uni4F38" unicode="&#x4f38;" d="M235 471 q37 -16 50 -37 q-4 -48 -7 -72 q-1 -12 -5 -53.5 q-4 -41.5 -4 -77.5 l0 -317 q0 -13 -9 -13 q-9 0 -22 11 q-5 4 -24 19 q-19 15 -32 31 q-13 16 -13 27 q1 30 5 66 q4 36 5 46 q10 94 10 138 l0 173 l0 2 q-61 -68 -127 -118 q-27 -21 -33 -21 q-7 0 14 31 q59 88 94 156.5 q35 68.5 116 247.5 q12 27 12 63 q0 25 -5 35 q43 -8 69.5 -28.5 q26.5 -20.5 26.5 -53.5 q0 -11 -5 -28 q-37 -118 -116 -227 ZM924 543 q-16 -22 -20 -55 l-33 -256 q-6 -51 -25 -79.5 q-19 -28.5 -40 -28.5 q-16 0 -26 19 q-6 12 -23 50 q-51 8 -99 8 l0 -321 q0 -12 -8 -12 q-4 0 -12 4 q-8 4 -11 6 q-26 14 -49 34.5 q-23 20.5 -20 42.5 q20 100 20 243 q-48 -4 -92 -16 q2 -14 4 -23 q3 -13 -8 -13 q-8 0 -22 6 q-79 32 -79 67 q-3 37 -5 105 q-3 60 -6 91 q-3 31 -12 77 q-4 20 -13 41.5 q-9 21.5 -18 27.5 q11 3 26 3 q24 0 48.5 -7.5 q24.5 -7.5 40.5 -20.5 q-3 11 -1 17 q25 -6 55 -6 q14 0 82 9 l0 174 q0 19 -7 42 q-7 23 -15 30 q4 1 12 1 q29 0 61 -15.5 q32 -15.5 45 -35.5 q-4 -43 -7 -68 q-8 -78 -9 -117 q135 19 143 24 q5 3 9.5 5.5 q4.5 2.5 7.5 3.5 l106 -57 ZM658 267 q70 4 106 4 l1 0 q11 10 16 48 l24 203 q0 5 -4 8 q-4 3 -9 2 q-51 -7 -134 -20 l0 -89 l39 6 q21 2 41 -8.5 q20 -10.5 32 -26.5 q12 -16 12 -29 q0 -16 -18 -16 q-39 12 -75 12 q-11 0 -31 -2 l0 -92 ZM491 485 q-23 0 -40 26 q4 -58 5 -70 l3 -49 q60 1 119 14 l0 93 l-79 -13 l-8 -1 ZM460 375 q3 -57 14 -123 l104 9 l0 82 q-45 -12 -64 -15 q-16 -3 -30 12 q-14 15 -24 35 Z" /><glyph glyph-name="uni4F3C" unicode="&#x4f3c;" d="M220 465 q25 -12 38 -31 q-4 -48 -7 -72 q-1 -12 -5 -53.5 q-4 -41.5 -4 -77.5 l0 -317 q0 -13 -9 -13 q-9 0 -22 11 q-5 4 -24 19 q-19 15 -32 31 q-13 16 -13 27 q1 30 5 66 q4 36 5 46 q10 94 10 138 l0 142 q-50 -63 -105 -113 q-26 -24 -32 -24 q-7 0 12 32 q41 72 65 127.5 q24 55.5 68 172.5 l46 119 q8 20 8 51 q0 31 -8 47 q45 -5 73.5 -25 q28.5 -20 28.5 -55 q0 -11 -3 -23 q-28 -117 -95 -225 ZM920 123 q20 -12 27 -18.5 q7 -6.5 7 -18.5 q0 -9 -2 -15 l-8 -22 q-13 -38 -23.5 -58.5 q-10.5 -20.5 -23.5 -20.5 q-14 0 -31 24 q-62 91 -92 138.5 q-30 47.5 -38 67.5 q-64 -148 -197 -236 q-21 -13 -27 -13 q-3 0 -3 3 q0 7 14 25 q104 136 154 291 q50 155 71 389 q1 8 1 28 q0 37 -8 52 q38 -1 63 -17.5 q25 -16.5 25 -49.5 q0 -7 -1 -11 q-6 -48 -8 -73 q-16 -132 -30.5 -212.5 q-14.5 -80.5 -45.5 -157.5 q11 -2 54 -26 l122 -69 ZM615 593 q-2 -9 -7.5 -33 q-5.5 -24 -12 -36.5 q-6.5 -12.5 -16.5 -12.5 q-10 0 -25 16 q-70 77 -95.5 107.5 q-25.5 30.5 -25.5 39.5 q0 5 9.5 3 q9.5 -2 32.5 -10 l19 -6 l93 -30 q15 -5 22 -11.5 q7 -6.5 7 -17.5 q0 -6 -1 -9 ZM451 227 q60 60 103 95.5 q43 35.5 43 19.5 q0 -32 -181 -275 q-12 -18 -31 -18 q-17 0 -33.5 13 q-16.5 13 -28 30 q-11.5 17 -12.5 25 q22 13 36.5 29.5 q14.5 16.5 14.5 44.5 l0 268 q0 19 -7 42 q-7 23 -15 30 q4 1 12 1 q29 0 61 -15.5 q32 -15.5 45 -35.5 q-4 -48 -7 -72 q-1 -12 -5 -53.5 q-4 -41.5 -4 -77.5 l0 -47 q0 -3 3 -5 q3 -2 6 1 Z" /><glyph glyph-name="uni4F46" unicode="&#x4f46;" d="M259 464 q25 -12 36 -30 q-4 -48 -7 -72 q-1 -12 -5 -53.5 q-4 -41.5 -4 -77.5 l0 -322 q0 -13 -9 -13 q-9 0 -22 11 q-5 4 -24 19 q-19 15 -32 31 q-13 16 -13 27 q1 30 5 66 q4 36 5 46 q10 94 10 138 l0 160 q-67 -67 -141 -105 q-30 -16 -36 -16 q-7 0 17 27 q54 60 86.5 107 q32.5 47 60 100.5 q27.5 53.5 82.5 172.5 l9 19 q13 26 13 65 q0 20 -5 33 q42 -8 68.5 -28.5 q26.5 -20.5 26.5 -53.5 q0 -12 -5 -29 q-39 -119 -116 -222 ZM412 541 q-3 21 -11.5 42.5 q-8.5 21.5 -16.5 26.5 q7 2 21 2 q22 0 45 -7 q23 -7 39 -20 l0 7 q18 -2 30 -2 q9 0 25 2 l28 4 q60 10 101 19.5 q41 9.5 85 28.5 q5 2 10.5 6 q5.5 4 6.5 5 l110 -57 q-14 -23 -16 -56 l-11 -220 q-2 -38 -12 -68.5 q-10 -30.5 -24.5 -48 q-14.5 -17.5 -27.5 -17.5 q-12 0 -19 13 q-20 32 -33 43 q-104 1 -219 -8 l0 -35 q0 -12 -8 -12 q-5 0 -12 3.5 q-7 3.5 -10 4.5 q-32 17 -54 33.5 q-22 16.5 -21 38.5 q9 66 9 125 q0 40 -3.5 70.5 q-3.5 30.5 -11.5 76.5 ZM553 525 q-27 -4 -47 22 l3 -67 l3 -47 q9 2 40 12 q25 9 47 13.5 q22 4.5 62 4.5 q20 2 37 -7 q17 -9 27.5 -22 q10.5 -13 10.5 -24 q0 -13 -15 -13 q-34 9 -64 9 q-30 0 -55.5 -7.5 q-25.5 -7.5 -58.5 -21.5 q-14 -1 -28 16 l6 -99 q60 3 129.5 8.5 q69.5 5.5 99.5 9.5 q7 2 13 0 q2 14 2 25 l3 232 q0 4 -4.5 7 q-4.5 3 -9.5 2 q-20 -3 -43.5 -9.5 q-23.5 -6.5 -46.5 -14.5 q-67 -22 -111 -29 ZM886 129 q25 3 48 -9.5 q23 -12.5 37.5 -32.5 q14.5 -20 14.5 -36 q0 -20 -22 -20 q-55 16 -183 16 q-107 0 -233 -9 q-126 -9 -179 -17 q-25 -4 -45 26.5 q-20 30.5 -26 51.5 q104 1 300 11 q196 10 288 19 Z" /><glyph glyph-name="uni4F4D" unicode="&#x4f4d;" d="M235 471 q37 -16 50 -37 q-4 -48 -7 -72 q-1 -12 -5 -53.5 q-4 -41.5 -4 -77.5 l0 -317 q0 -13 -9 -13 q-9 0 -22 11 q-5 4 -24 19 q-19 15 -32 31 q-13 16 -13 27 q1 30 5 66 q4 36 5 46 q10 94 10 138 l0 173 l0 2 q-61 -68 -127 -118 q-27 -21 -33 -21 q-7 0 14 31 q59 88 94 156.5 q35 68.5 116 247.5 q12 27 12 63 q0 25 -5 35 q43 -8 69.5 -28.5 q26.5 -20.5 26.5 -53.5 q0 -11 -5 -28 q-37 -118 -116 -227 ZM698 679 q-1 -7 -4 -35.5 q-3 -28.5 -10 -44.5 q-7 -16 -18 -16 q-11 0 -27 16 q-74 74 -103.5 107 q-29.5 33 -29.5 44 q0 7 10 7 q11 0 37 -8 l111 -32 q20 -6 27.5 -13 q7.5 -7 6.5 -25 ZM439 425 q-22 -4 -40 23.5 q-18 27.5 -25 47.5 q147 3 428 66 q23 3 44 -8.5 q21 -11.5 34 -29.5 q13 -18 13 -33 q0 -18 -20 -18 q-29 10 -77 10 q-59 0 -130.5 -12.5 q-71.5 -12.5 -162.5 -32.5 q-9 -2 -64 -13 ZM859 103 q25 3 48 -9.5 q23 -12.5 37.5 -32.5 q14.5 -20 14.5 -36 q0 -20 -22 -20 q-50 17 -164 17 q-100 0 -220.5 -11 q-120.5 -11 -179.5 -20 q-25 -4 -45 26.5 q-20 30.5 -26 51.5 q75 2 276 14 l42 3 q18 40 33 83.5 q15 43.5 39 120.5 l11 36 q10 33 10 68 q0 25 -5 36 q45 -8 74 -29.5 q29 -21.5 29 -56.5 q0 -12 -5 -29 q-23 -69 -52.5 -118.5 q-29.5 -49.5 -82.5 -106.5 l188 13 ZM547 285 q19 -14 19 -27 q0 -8 -5 -17 q-5 -8 -16 -27.5 q-11 -19.5 -20.5 -30 q-9.5 -10.5 -17.5 -10.5 q-12 0 -23 24 q-66 145 -66 171 q0 8 5 8 q5 0 16.5 -7.5 q11.5 -7.5 25.5 -18.5 l82 -65 Z" /><glyph glyph-name="uni4F4E" unicode="&#x4f4e;" d="M235 471 q37 -16 50 -37 q-4 -48 -7 -72 q-1 -12 -5 -53.5 q-4 -41.5 -4 -77.5 l0 -317 q0 -13 -9 -13 q-9 0 -22 11 q-5 4 -24 19 q-19 15 -32 31 q-13 16 -13 27 q1 30 5 66 q4 36 5 46 q10 94 10 138 l0 173 l0 2 q-61 -68 -127 -118 q-27 -21 -33 -21 q-7 0 14 31 q64 97 105 174.5 q41 77.5 105 229.5 q12 29 12 65 q0 20 -5 33 q43 -8 69.5 -28.5 q26.5 -20.5 26.5 -53.5 q0 -11 -5 -28 q-37 -118 -116 -227 ZM970 -18 q1 -12 1 -32 q0 -60 -27 -60 q-24 0 -87 55 q-84 73 -130 179.5 q-46 106.5 -71 228.5 q-99 -20 -129 -37 q-21 -5 -42 24 l0 -208 q0 -3 3 -4.5 q3 -1.5 6 0.5 q140 105 140 87 q0 -10 -46 -62 q-46 -52 -142 -153 q-16 -16 -33 -16 q-17 0 -33.5 12.5 q-16.5 12.5 -27 29 q-10.5 16.5 -11.5 24.5 q23 13 43.5 33.5 q20.5 20.5 20.5 48.5 l0 421 q-5 1 -5 2.5 q0 1.5 5 4.5 q-1 19 -7.5 40.5 q-6.5 21.5 -14.5 28.5 q4 1 13 1 q20 0 43.5 -8.5 q23.5 -8.5 41.5 -21.5 q117 60 213 119 q31 19 39 39 q4 11 12 11 q10 0 34 -26 q22 -21 29 -26 q1 -1 7 -5 q6 -4 6 -11 q0 -10 -13 -20 q-23 -19 -79 -44.5 q-56 -25.5 -122 -45.5 q32 -1 62 -8.5 q30 -7.5 42 -19.5 q8 -77 17 -128 q77 22 122 40 q13 5 24 5 q27 0 50 -17.5 q23 -17.5 23 -33.5 q0 -11 -13 -15 q-43 -13 -154 -35 q-11 -2 -41 -8 q23 -123 57.5 -216.5 q34.5 -93.5 81.5 -133.5 q25 -22 36 -22 q12 0 15.5 24.5 q3.5 24.5 3.5 89.5 q0 22 3 43.5 q3 21.5 7 21.5 q5 0 12 -46 q7 -46 15 -150 ZM485 379 q51 7 159 33 q-6 37 -12 67 q-6 30 -11 41 q-9 17 -23 34 q-14 17 -31 25 q-36 -9 -67 -15 l-6 -62 q-9 -74 -9 -123 ZM684 64 q12 -5 17.5 -10.5 q5.5 -5.5 5.5 -14.5 q0 -3 -2 -13 q-3 -8 -10.5 -27.5 q-7.5 -19.5 -15 -30.5 q-7.5 -11 -15.5 -11 q-11 0 -23 18 q-5 6 -13 18 q-37 52 -52 74.5 q-15 22.5 -15 32.5 q0 7 8 7 q8 0 27 -8 l88 -35 Z" /><glyph glyph-name="uni4F4F" unicode="&#x4f4f;" d="M274 462 q20 -12 31 -28 q-4 -48 -7 -72 q-1 -12 -5 -53.5 q-4 -41.5 -4 -77.5 l0 -319 q0 -13 -9 -13 q-9 0 -22 11 q-5 4 -24 19 q-19 15 -32 31 q-13 16 -13 27 q1 30 5 66 q4 36 5 46 q10 94 10 138 l0 149 q-74 -75 -154 -117 q-30 -16 -36 -16 q-7 0 17 27 q58 64 94 115 q36 51 70.5 115 q34.5 64 88.5 180 q13 26 13 65 q0 20 -5 33 q42 -8 68.5 -28.5 q26.5 -20.5 26.5 -53.5 q0 -12 -5 -29 q-37 -114 -113 -215 ZM647 615 q-134 108 -134 135 q0 9 14 9 q9 0 21 -3 l113 -26 q18 -4 23 -7.5 q5 -3.5 5 -16.5 l-2 -22 q-3 -37 -8 -56.5 q-5 -19.5 -17 -19.5 q-7 0 -15 7 ZM882 86 q25 3 48 -9.5 q23 -12.5 37.5 -32.5 q14.5 -20 14.5 -36 q0 -20 -22 -20 q-50 15 -176 15 q-104 0 -228.5 -9 q-124.5 -9 -178.5 -17 q-25 -4 -45 26.5 q-20 30.5 -26 51.5 q80 0 253 9 q10 50 13 77.5 q3 27.5 3 80.5 l0 30 q-27 -4 -59 -11 l-49 -8 q-25 -4 -45 26.5 q-20 30.5 -26 51.5 q76 0 179 15 l0 115 q0 9 -4 31 l-47 -11 q-64 -15 -92 -19 q-25 -4 -45 26.5 q-20 30.5 -26 51.5 q57 1 116.5 11 q59.5 10 147.5 30 q109 25 163 31 q25 3 48 -9.5 q23 -12.5 37.5 -32.5 q14.5 -20 14.5 -36 q0 -20 -22 -20 q-27 9 -74 9 q-57 0 -146 -16 q19 -13 25 -24 q-2 -28 -8 -84 l-4 -40 q59 10 104 14 q25 3 48 -9.5 q23 -12.5 37.5 -32.5 q14.5 -20 14.5 -36 q0 -20 -22 -20 q-45 13 -104 13 q-37 0 -82 -5 l0 -3 l0 -190 q148 8 227 16 Z" /><glyph glyph-name="uni4F50" unicode="&#x4f50;" d="M880 79 q25 3 48 -9.5 q23 -12.5 37.5 -32.5 q14.5 -20 14.5 -36 q0 -20 -22 -20 q-46 14 -151 14 q-106 0 -240 -11.5 q-134 -11.5 -196 -21.5 q-25 -4 -45 26.5 q-20 30.5 -26 51.5 q101 0 298 16 q7 36 9 66 q2 30 2 79 l0 37 q0 11 -3 24 q-44 -10 -72 -14 q-22 -4 -47 29 q-85 -132 -196 -203 q-12 -8 -22 -13 l0 -162 q0 -13 -9 -13 q-9 0 -22 11 q-5 4 -24 19 q-19 15 -32 31 q-13 16 -13 27 q1 30 5 66 q4 36 5 46 q10 94 10 138 l0 158 l0 4 q-62 -66 -140 -115 q-16 -10 -27.5 -15.5 q-11.5 -5.5 -11.5 -1.5 q0 5 19 27 q137 159 214 392 q8 20 8 51 q0 32 -7 47 q45 -6 72.5 -26.5 q27.5 -20.5 27.5 -56.5 q0 -7 -2 -21 q-28 -121 -107 -226 q37 -15 50 -37 q-4 -48 -7 -72 q-1 -12 -5 -53.5 q-4 -41.5 -4 -77.5 l0 -123 l10 12 q62 75 113 171.5 q51 96.5 97 214.5 q-64 -13 -81 -16 q-18 -3 -34 12 q-16 15 -26.5 35 q-10.5 20 -13.5 29 q71 3 186 22 l48 140 q12 36 12 71 q0 22 -5 32 q45 -9 72 -31 q27 -22 27 -58 q0 -15 -4 -28 l-39 -106 q122 23 169 29 q4 1 11 1 q24 0 45 -13 q21 -13 34 -31.5 q13 -18.5 13 -32.5 q0 -19 -22 -20 q-28 8 -78 8 q-77 0 -204 -22 q-38 -93 -81 -169 q38 2 68 6.5 q30 4.5 71 12.5 q9 2 43.5 8 q34.5 6 72.5 9 q25 3 48 -9.5 q23 -12.5 37.5 -32.5 q14.5 -20 14.5 -36 q0 -20 -22 -20 q-46 14 -100 14 q-22 0 -60 -4 q8 -6 14 -16 q-4 -45 -7 -71 q-8 -84 -9 -126 q104 8 191 16 Z" /><glyph glyph-name="uni4F53" unicode="&#x4f53;" d="M930 159 q53 -37 53 -51 q0 -11 -35 -11 l-74 0 q-29 0 -53 13 q-24 13 -39 34 q-35 49 -88 145 q-51 87 -62 105 l0 -194 l36 6 q25 3 48 -9.5 q23 -12.5 37.5 -32.5 q14.5 -20 14.5 -36 q0 -20 -22 -20 q-64 24 -114 24 l0 -245 q0 -12 -8 -12 q-4 0 -12 4 q-8 4 -11 6 q-26 14 -49 34.5 q-23 20.5 -20 42.5 q13 66 18 159 q-15 -4 -20 -5 q-32 -9 -62 -15 q-22 -3 -40.5 21.5 q-18.5 24.5 -28.5 50.5 q-50 -39 -106 -67 q-15 -7 -24 -9 l0 -183 q0 -13 -9 -13 q-9 0 -22 11 q-5 4 -24 19 q-19 15 -32 31 q-13 16 -13 27 q1 30 5 66 q4 36 5 46 q10 94 10 138 l0 160 q-67 -84 -125 -129 q-27 -21 -33 -21 q-7 0 14 31 q52 78 83.5 138.5 q31.5 60.5 97.5 202.5 l29 63 q12 27 12 63 q0 25 -5 35 q43 -8 69.5 -28 q26.5 -20 26.5 -53 q0 -16 -5 -29 q-28 -83 -112 -203 q29 -14 44 -35 q-4 -48 -7 -72 q-1 -12 -5 -53.5 q-4 -41.5 -4 -77.5 l0 -105 l11 12 q146 135 251 334 q-43 -6 -73.5 -11.5 q-30.5 -5.5 -49.5 -8.5 q-20 -5 -32 -6 q-25 -4 -45 26.5 q-20 30.5 -26 51.5 q96 1 247 15 l0 173 q0 19 -7 42 q-7 23 -15 30 q4 1 12 1 q29 0 61 -15.5 q32 -15.5 45 -35.5 q-4 -46 -7 -69 q-8 -80 -9 -119 q110 11 178 23 q25 3 48 -9.5 q23 -12.5 37.5 -32.5 q14.5 -20 14.5 -36 q0 -20 -22 -20 q-52 20 -144 20 q-47 0 -105 -5 q237 -288 291 -327 ZM407 179 q96 3 145 8 l0 25 l0 128 q-72 -101 -145 -161 Z" /><glyph glyph-name="uni4F55" unicode="&#x4f55;" d="M895 692 q25 3 48 -9.5 q23 -12.5 37.5 -32.5 q14.5 -20 14.5 -36 q0 -20 -22 -20 q-39 10 -121 10 q-35 0 -54 -1 q17 -7 31 -17.5 q14 -10.5 22 -21.5 q-5 -22 -10.5 -67.5 q-5.5 -45.5 -5.5 -89.5 l0 -406 q0 -57 -18 -92 q-18 -35 -41 -35 q-11 0 -22 12 q-12 13 -24 30 q-23 30 -40.5 47.5 q-17.5 17.5 -42.5 27.5 q-13 4 -13 8 q0 3 22 2 q12 -1 33 -1 q33 0 49.5 11 q16.5 11 16.5 41 l0 490 q0 13 -4 30 q-4 17 -9 29 q-112 -7 -221 -22 q-109 -15 -144 -29 q-21 -3 -39 19.5 q-18 22.5 -28 48.5 q-33 -79 -77 -146 q37 -15 52 -38 q-4 -48 -7 -72 q-1 -12 -5 -53.5 q-4 -41.5 -4 -77.5 l0 -322 q0 -13 -9 -13 q-9 0 -22 11 q-5 4 -24 19 q-19 15 -32 31 q-13 16 -13 27 q1 30 5 66 q4 36 5 46 q10 94 10 138 l0 178 l0 2 q-67 -78 -139 -108 q-28 -13 -34 -13 q-10 0 15 32 q64 85 97 146.5 q33 61.5 96 203.5 l22 49 q12 27 12 62 q0 21 -5 36 q43 -7 69 -28 q26 -21 26 -55 q0 -14 -4 -27 q-13 -43 -30 -84 q109 2 415 44 q100 13 166 20 ZM626 283 q17 -10 28 -25 q11 -15 11 -26 q0 -15 -19 -15 q-61 10 -101 10 q-45 0 -82 -16 l-4 0 l3 -30 q1 -15 -8 -15 q-6 0 -13.5 4.5 q-7.5 4.5 -9.5 5.5 q-25 19 -40.5 36 q-15.5 17 -15.5 41 q0 4 0.5 10 q0.5 6 0.5 20 q0 23 -1 43 l-4 75 q-1 19 -10.5 41 q-9.5 22 -18.5 29 q12 2 19 2 q26 0 52.5 -12 q26.5 -12 40.5 -29 q1 -27 -1 -73 l-1 -42 q0 -20 1 -30 q41 4 108 6 q1 6 10 44.5 q9 38.5 9 65.5 l-1 12 q0 5 -4 8 q-4 3 -9 2 q-7 -2 -29 -6 q-15 -1 -27 -5 q-8 -2 -13 -2 q-14 0 -24 10 q-10 10 -14.5 22.5 q-4.5 12.5 -2.5 19.5 q18 -2 30 -2 q9 0 25 2 q36 5 48.5 9 q12.5 4 25.5 11 q5 3 9.5 5.5 q4.5 2.5 7.5 3.5 l79 -64 l-55 -146 Z" /><glyph glyph-name="uni4F59" unicode="&#x4f59;" d="M895 396 q91 -44 91 -57 q0 -6 -16 -8.5 q-16 -2.5 -50 -2.5 l-108 0 q-26 0 -43 14 q-17 14 -42 44 l-47 57 q-123 151 -179 207 q-9 9 -31 20 q-54 -83 -84 -125.5 q-30 -42.5 -67 -82.5 q60 3 133 18 q81 13 104 15 q22 3 42 -8 q20 -11 32.5 -28 q12.5 -17 12.5 -31 q0 -17 -19 -17 q-60 15 -136 12 q32 -14 46 -36 q-9 -35 -13 -92 l100 11 q71 8 104 11 q25 3 48 -9.5 q23 -12.5 37.5 -32.5 q14.5 -20 14.5 -36 q0 -20 -22 -20 q-46 12 -151 12 q-42 0 -134 -4 l0 -228 q0 -57 -18 -92 q-18 -35 -41 -35 q-11 0 -22 12 q-12 13 -24 30 q-23 30 -40.5 47.5 q-17.5 17.5 -42.5 27.5 q-13 4 -13 8 q0 3 22 2 q12 -1 33 -1 q33 0 49.5 11 q16.5 11 16.5 41 l0 171 q-84 -7 -151 -16.5 q-67 -9.5 -91 -19.5 q-25 -4 -45 26.5 q-20 30.5 -26 51.5 q100 1 313 23 l0 79 q0 25 -10 52 q-56 -9 -91 -24 q-25 -4 -48 39 q-91 -85 -232 -141 q-34 -13 -40 -13 q-10 0 31 31 q92 70 187.5 185.5 q95.5 115.5 167.5 247.5 q35 64 31 93 q39 -18 57.5 -35.5 q18.5 -17.5 18.5 -41.5 q0 -20 -13 -45 q40 -20 79 -53 q39 -33 95 -88 q71 -68 119.5 -108.5 q48.5 -40.5 104.5 -67.5 ZM249 190 q19 -10 36.5 -23 q17.5 -13 24.5 -24 q4 -7 4 -16 q0 -10 -4 -20 q-4 -10 -5 -12 q-15 -33 -36 -58.5 q-21 -25.5 -60 -63.5 q-13 -16 -23 -16 q-5 0 -8 9 q-4 15 -7 25 q-3 10 -5 17 q-7 19 -7 24 l0 7 q0 11 8 21 q40 34 60.5 62 q20.5 28 21.5 68 ZM775 118 q4 -2 16.5 -6.5 q12.5 -4.5 16.5 -11.5 q4 -7 4 -19 q-1 -10 -4.5 -42.5 q-3.5 -32.5 -10.5 -52 q-7 -19.5 -18 -19.5 q-10 0 -23 14 q-150 160 -150 189 q0 8 11 8 q13 0 45 -13 l113 -47 Z" /><glyph glyph-name="uni4F5B" unicode="&#x4f5b;" d="M941 299 q-16 -22 -20 -55 q-3 -24 -7.5 -53.5 q-4.5 -29.5 -7.5 -51.5 l-5 -29 q-7 -46 -22.5 -71.5 q-15.5 -25.5 -35.5 -25.5 q-17 0 -35 21 q-16 21 -22 30 q-25 38 -43 53 q-3 3 -11 9.5 q-8 6.5 -8 8.5 q0 2 5 2 q7 0 23 -3 q14 -2 21 -2 q40 0 49 39 q6 26 8 49 q2 23 2 58 q0 5 -4 8 q-4 3 -9 2 q-33 -5 -85 -12 l-32 -4 l0 -388 q0 -12 -8 -12 q-4 0 -12 4 q-8 4 -11 6 q-26 14 -49 34.5 q-23 20.5 -20 42.5 q20 103 20 250 l0 52 l-111 -19 q-22 -98 -65.5 -175.5 q-43.5 -77.5 -114.5 -133.5 q-18 -15 -28 -15 q-3 0 -3 4 q0 8 12 23 q50 65 80 132.5 q30 67.5 46 149.5 q-61 -14 -107 -28 q-8 -2 -12 -2 q-16 0 -28.5 12 q-12.5 12 -19 27.5 q-6.5 15.5 -4.5 22.5 l19 -2 l-19 2 q34 1 47.5 23 q13.5 22 13.5 53 l0 60 q0 19 -7 42 q-7 23 -15 30 q4 1 11 1 q19 0 42 -7.5 q23 -7.5 40 -19.5 q-4 10 -4 11 q34 0 69 4 l3 97 q-32 -6 -49 -10 q-16 -2 -23 -4 q-20 -4 -35 9 q-15 13 -23 31.5 q-8 18.5 -6 26.5 q24 -2 41 -2 q33 0 96 7 l0 91 q0 20 -7 43.5 q-7 23.5 -17 33.5 q15 3 29 3 q32 0 52.5 -15 q20.5 -15 20.5 -45 l-1 -101 l77 13 l0 102 q0 19 -7 42 q-7 23 -15 30 q4 1 12 1 q29 0 61 -15.5 q32 -15.5 45 -35.5 l-10 -104 q28 6 57 15 q11 3 17 11 l120 -55 q-8 -3 -14 -12 q-6 -9 -12 -19.5 q-6 -10.5 -9 -15.5 l-46 -78 q19 -8 32 -24 q13 -16 13 -29 q0 -14 -16 -15 q-17 2 -56 2 q-49 0 -92 -4 l0 -110 q110 19 126 27 q5 3 9.5 5.5 q4.5 2.5 7.5 3.5 l96 -57 ZM230 466 q26 -14 38 -32 q-4 -48 -7 -72 q-1 -12 -5 -53.5 q-4 -41.5 -4 -77.5 l0 -317 q0 -13 -9 -13 q-9 0 -22 11 q-5 4 -24 19 q-19 15 -32 31 q-13 16 -13 27 q1 30 5 66 q4 36 5 46 q10 94 10 138 l0 157 q-49 -53 -110 -100 q-27 -21 -33 -21 q-7 0 14 31 q64 97 105 174.5 q41 77.5 105 229.5 q12 29 12 65 q0 20 -5 33 q43 -8 69.5 -28.5 q26.5 -20.5 26.5 -53.5 q0 -11 -5 -28 q-39 -123 -121 -232 ZM703 598 l-1 -43 l0 -65 l45 8 l28 100 l0 2 q0 4 -4.5 6 q-4.5 2 -9.5 1 l-58 -9 ZM544 569 q-2 -70 -4 -104 l82 12 l0 107 l-78 -15 ZM622 306 l0 116 q-22 -2 -86 -12 q-4 -62 -15 -120 l101 16 ZM448 279 q8 55 12 116 l-6 -1 q-2 -1 -6 -1 q-13 0 -25 12 q-6 -69 -23 -119 q-5 -13 -3 -15 l51 8 Z" /><glyph glyph-name="uni4F5C" unicode="&#x4f5c;" d="M876 227 q21 1 38.5 -10 q17.5 -11 28.5 -27.5 q11 -16.5 11 -29.5 q0 -16 -18 -15 q-65 10 -130 10 q-109 0 -162 -23 l-3 0 q-7 0 -17 6 l0 -245 q0 -12 -8 -12 q-4 0 -12 4 q-8 4 -11 6 q-26 14 -49 34.5 q-23 20.5 -20 42.5 q20 103 20 250 l0 275 q0 7 -1 11 q-1 0 -5 -2 l-3 0 q-4 0 -10 2 q-71 -87 -158 -134 q-15 -8 -25 -13 q-10 -5 -10 -2 q0 5 18 27 q47 56 87 122.5 q40 66.5 119 219.5 q8 16 13 35.5 q5 19.5 5 36.5 q0 13 -3 20 q37 -10 61 -30.5 q24 -20.5 24 -48.5 q0 -15 -8 -34 q-28 -63 -64 -120 q178 30 271 66 q21 2 39.5 -9.5 q18.5 -11.5 30 -28.5 q11.5 -17 11.5 -30 q0 -17 -19 -16 q-20 2 -35 2 q-49 0 -120 -10.5 q-71 -10.5 -135 -26.5 q10 -10 13 -15 q-2 -25 -8 -83 l-4 -36 q72 8 104 15 q32 7 74 22 q21 2 39.5 -9 q18.5 -11 30 -27 q11.5 -16 11.5 -29 q0 -7 -5 -11.5 q-5 -4.5 -14 -3.5 q-45 5 -73 5 q-77 0 -143 -30 l-3 0 q-14 0 -24 12 q-1 -10 -1 -28 l0 -111 l29 2 q15 1 60.5 5 q45.5 4 83.5 8 q38 4 79 11 ZM274 469 q32 -13 46 -35 q-4 -48 -7 -72 q-1 -12 -5 -53.5 q-4 -41.5 -4 -77.5 l0 -317 q0 -13 -9 -13 q-9 0 -22 11 q-5 4 -24 19 q-19 15 -32 31 q-13 16 -13 27 q1 30 5 66 q4 36 5 46 q10 94 10 138 l0 168 q-81 -93 -164 -141 q-8 -5 -20 -12 q-12 -7 -14 -7 q-3 0 1.5 8 q4.5 8 14.5 21 q75 106 125 188.5 q50 82.5 125 233.5 q15 33 15 70 q0 18 -4 27 q41 -10 66.5 -30.5 q25.5 -20.5 25.5 -51.5 q0 -14 -6 -31 q-39 -109 -115 -213 Z" /><glyph glyph-name="uni4F60" unicode="&#x4f60;" d="M786 419 q-36 -19 -45 -19 q-14 0 9 33 l56 83 q2 4 2 6 q0 3 -2 5 q-2 2 -6 1 q-10 -1 -42 -5.5 q-32 -4.5 -77.5 -15 q-45.5 -10.5 -115.5 -31.5 q-9 -3 -17 -3 q-20 0 -37 17 q-65 -77 -134 -116 q-27 -16 -31 -16 q-4 0 0 7.5 q4 7.5 18 26.5 q97 133 177 320 q7 17 12 37.5 q5 20.5 5 36.5 q0 15 -4 23 q41 -11 66.5 -31.5 q25.5 -20.5 25.5 -50.5 q0 -18 -8 -34 q-33 -73 -76 -135 q48 1 154 17 q106 16 123 21 q7 2 14 6 q7 4 10 5 l92 -95 q-43 -30 -102 -59 q-23 -11 -67 -34 ZM235 471 q37 -16 50 -37 q-4 -48 -7 -72 q-1 -12 -5 -53.5 q-4 -41.5 -4 -77.5 l0 -317 q0 -13 -9 -13 q-9 0 -22 11 q-5 4 -24 19 q-19 15 -32 31 q-13 16 -13 27 q1 30 5 66 q4 36 5 46 q10 94 10 138 l0 173 l0 2 q-61 -68 -127 -118 q-27 -21 -33 -21 q-7 0 14 31 q59 88 94 156.5 q35 68.5 116 247.5 q12 27 12 63 q0 25 -5 35 q43 -8 69.5 -28.5 q26.5 -20.5 26.5 -53.5 q0 -11 -5 -28 q-37 -118 -116 -227 ZM570 452 q4 1 12 1 q29 0 61 -15.5 q32 -15.5 45 -35.5 q-5 -22 -10.5 -67.5 q-5.5 -45.5 -5.5 -89.5 l0 -214 q0 -57 -18 -92 q-18 -35 -41 -35 q-11 0 -22 12 q-12 13 -24 30 q-23 30 -40.5 47.5 q-17.5 17.5 -42.5 27.5 q-13 4 -13 8 q0 3 22 2 q12 -1 33 -1 q33 0 49.5 11 q16.5 11 16.5 41 l0 298 q0 19 -7 42 q-7 23 -15 30 ZM925 228 q25 -13 25 -31 q0 -9 -4 -17 l-9 -18 q-14 -30 -24 -45.5 q-10 -15.5 -21 -15.5 q-13 0 -28 22 l-41 62 q-59 87 -74.5 113 q-15.5 26 -7.5 26 q7 0 30.5 -13 q23.5 -13 30.5 -17 l123 -66 ZM418 329 q34 -18 49 -32.5 q15 -14.5 15 -35.5 q0 -13 -6 -31 q-12 -31 -26 -53 q-14 -22 -43 -59 l-17 -23 q-15 -17 -23 -17 q-6 0 -9 10 q-4 16 -13 40 q-7 20 -8 28 q-1 3 -1 9 q0 10 9 20 q20 17 31.5 32.5 q11.5 15.5 21.5 35.5 q8 13 13.5 36 q5.5 23 6.5 40 Z" /><glyph glyph-name="uni4F7F" unicode="&#x4f7f;" d="M235 471 q37 -16 50 -37 q-4 -48 -7 -72 q-1 -12 -5 -53.5 q-4 -41.5 -4 -77.5 l0 -317 q0 -13 -9 -13 q-9 0 -22 11 q-5 4 -24 19 q-19 15 -32 31 q-13 16 -13 27 q1 30 5 66 q4 36 5 46 q10 94 10 138 l0 173 l0 2 q-61 -68 -127 -118 q-27 -21 -33 -21 q-7 0 14 31 q64 97 105 174.5 q41 77.5 105 229.5 q12 29 12 65 q0 20 -5 33 q43 -8 69.5 -28.5 q26.5 -20.5 26.5 -53.5 q0 -11 -5 -28 q-37 -118 -116 -227 ZM934 -50 q62 -30 62 -39 q0 -6 -16 -8 q-16 -2 -52 -2 l-117 0 q-19 0 -33 5.5 q-14 5.5 -34 21.5 l-184 142 q-9 8 -27 22 q-76 -118 -210 -156 q-21 -6 -34 -6 q-6 0 -6 2 q0 5 21 16 q115 62 173 186 q-20 16 -48 34 q-19 12 -38.5 17 q-19.5 5 -33.5 5 q-16 0 -24 -1 l-9 -1 q-14 0 -14 7 q0 8 19 20 q32 19 60 19 q12 0 22 -3 q22 -6 88 -43 q9 23 21 71 q-32 -4 -45 -7 l1 -12 q1 -13 -9 -13 q-7 0 -21 7 q-3 2 -24.5 12.5 q-21.5 10.5 -37 26.5 q-15.5 16 -15.5 31 q1 23 1 55 q0 32 -6 57 q-5 22 -14 43 q-9 21 -17 25 q11 4 27 4 q35 0 71 -19 q-6 13 -4 21 q36 -3 39 -3 q11 0 16 1 l67 9 q1 22 1 65 q-104 -19 -139 -35 q-23 -3 -39.5 25.5 q-16.5 28.5 -20.5 47.5 q71 1 200 23 l0 90 q0 23 -8.5 50 q-8.5 27 -19.5 39 q17 3 33 3 q38 0 61.5 -17 q23.5 -17 23.5 -54 l0 -93 q73 14 153 36 q6 2 18 2 q20 0 39.5 -10.5 q19.5 -10.5 31.5 -26 q12 -15.5 12 -27.5 q0 -14 -17 -15 q-143 -12 -238 -25 l-1 -22 q0 -13 -2 -43 q42 7 74 11 l39 6 q10 1 17 11 l138 -55 q-9 -4 -16.5 -15 q-7.5 -11 -18.5 -32 l-47 -87 q20 -7 34 -27 q14 -20 14 -36 q0 -17 -15 -18 q-43 6 -110 6 q-72 0 -141 -6 q-19 -70 -41 -117 q104 -61 187.5 -107.5 q83.5 -46.5 182.5 -93.5 ZM633 448 q-5 -65 -16 -121 q77 8 114 13 l29 116 l0 1 q0 4 -4.5 6.5 q-4.5 2.5 -9.5 1.5 l-113 -17 ZM466 316 q47 2 66 4 q8 51 13 113 l-54 -10 l-8 -1 q-14 0 -26 9 q2 -59 4 -79 q2 -20 5 -36 Z" /><glyph glyph-name="uni4F8B" unicode="&#x4f8b;" d="M736 812 q4 1 12 1 q29 0 61 -15.5 q32 -15.5 45 -35.5 q-5 -22 -10.5 -67.5 q-5.5 -45.5 -5.5 -89.5 l0 -587 q0 -57 -18 -92 q-18 -35 -41 -35 q-11 0 -22 12 q-12 13 -24 30 q-23 30 -40.5 47.5 q-17.5 17.5 -42.5 27.5 q-13 4 -13 8 q0 3 22 2 q12 -1 33 -1 q33 0 49.5 11 q16.5 11 16.5 41 l0 671 q0 19 -7 42 q-7 23 -15 30 ZM201 458 q23 -11 34 -28 l-6 -65 q-9 -77 -9 -129 l0 -302 q0 -13 -8 -13 q-9 0 -22 11 q-4 3 -22 18 q-18 15 -31 30 q-13 15 -13 26 q1 34 9 106 q10 88 10 132 l0 133 q-39 -46 -87 -89 q-14 -13 -23 -19 q-9 -6 -9 -1 q0 6 13 28 q51 91 76 152 q25 61 78 221 q7 21 7 50 q0 31 -8 44 q44 -5 70.5 -24 q26.5 -19 26.5 -53 q0 -14 -2 -21 q-27 -115 -84 -207 ZM511 460 q7 2 14 6 q7 4 10 5 l63 -66 q-34 -98 -70 -164.5 q-36 -66.5 -88.5 -116.5 q-52.5 -50 -130.5 -88 q-45 -21 -58 -21 q-3 0 -3 2 q0 5 18 19 q80 61 143.5 151 q63.5 90 89.5 205 q1 3 1 7 q0 2 -2.5 2.5 q-2.5 0.5 -6.5 -0.5 q-34 -6 -42.5 -8.5 q-8.5 -2.5 -18.5 -5.5 q-12 -3 -23 -3 q-7 0 -10 1 q-20 -32 -48 -58 l53 -29 q15 -9 15 -18 l-2 -9 q-3 -6 -11 -22.5 q-8 -16.5 -15.5 -26.5 q-7.5 -10 -13.5 -10 q-6 0 -12 12 l-37 83 q-28 -21 -59 -34 q-20 -9 -23 -9 q-1 0 4 6.5 q5 6.5 10 12.5 q29 35 51.5 79.5 q22.5 44.5 48.5 105.5 l18 40 q9 18 12 36 q-30 -7 -46 -14 q-14 -3 -27 10 q-13 13 -21.5 30 q-8.5 17 -10.5 24 q83 7 128.5 17 q45.5 10 113.5 34 q9 4 22 4 q27 0 50 -18 q23 -18 23 -35 q0 -12 -14 -15 q-50 -11 -133 -23 l-24 -3 q13 -16 13 -37 q0 -13 -4 -25 l-30 -57 l3 0 q35 5 54.5 13.5 q19.5 8.5 25.5 10.5 ZM683 167 q0 -12 -8 -12 q-8 0 -20 10 q-19 14 -36 34.5 q-17 20.5 -17 35.5 l4 88 q5 62 5 116 l0 17 q0 21 -5.5 55 q-5.5 34 -12.5 40 q4 1 12 1 q26 0 53.5 -13 q27.5 -13 39.5 -31 q-1 -11 -5 -52 q-1 -18 -5.5 -71 q-4.5 -53 -4.5 -89 l0 -129 Z" /><glyph glyph-name="uni4F9B" unicode="&#x4f9b;" d="M232 468 q31 -15 43 -34 q-4 -48 -7 -72 q-1 -12 -5 -53.5 q-4 -41.5 -4 -77.5 l0 -317 q0 -13 -9 -13 q-9 0 -22 11 q-5 4 -24 19 q-19 15 -32 31 q-13 16 -13 27 q1 30 5 66 q4 36 5 46 q10 94 10 138 l0 164 q-57 -63 -117 -107 q-27 -21 -33 -21 q-7 0 14 31 q59 88 94 156.5 q35 68.5 116 247.5 q12 27 12 63 q0 25 -5 35 q43 -8 69.5 -28.5 q26.5 -20.5 26.5 -53.5 q0 -11 -5 -28 q-40 -125 -119 -230 ZM867 335 q25 3 48 -9.5 q23 -12.5 37.5 -32.5 q14.5 -20 14.5 -36 q0 -20 -22 -20 q-33 13 -105 13 q-89 0 -203 -15.5 q-114 -15.5 -243 -37.5 l-50 -8 q-25 -4 -45 26.5 q-20 30.5 -26 51.5 q56 1 173 15 l0 147 l-50 -9 q-25 -4 -45 26.5 q-20 30.5 -26 51.5 q57 2 121 6 l0 123 q0 19 -7 42 q-7 23 -15 30 q4 1 12 1 q29 0 61 -15.5 q32 -15.5 45 -35.5 q-2 -24 -8 -82 q-1 -16 -5 -55 q82 10 153 21 l19 183 l1 13 q0 17 -4.5 35 q-4.5 18 -10.5 25 q29 2 64.5 -17.5 q35.5 -19.5 47.5 -44.5 q-6 -37 -15 -71 q-3 -13 -9.5 -47 q-6.5 -34 -10.5 -62 l49 10 q25 3 48 -9.5 q23 -12.5 37.5 -32.5 q14.5 -20 14.5 -36 q0 -20 -22 -20 q-43 17 -135 14 l-16 -151 q94 11 127 13 ZM526 293 q64 8 96 13 l36 5 l17 155 q-70 -8 -149 -22 l0 -151 ZM857 104 q20 -9 27.5 -16 q7.5 -7 7.5 -20 q0 -4 -2 -14 q-2 -9 -10.5 -40 q-8.5 -31 -18.5 -47.5 q-10 -16.5 -22 -16.5 q-14 0 -31 23 q-69 90 -101.5 135 q-32.5 45 -42.5 64.5 q-10 19.5 0 19.5 q7 0 23 -7 q16 -7 36 -17 l134 -64 ZM538 176 q21 -3 21 -16 q0 -6 -5 -18 q-18 -41 -74 -94 q-56 -53 -130 -100 q-38 -23 -48 -23 q-7 0 -1 11.5 q6 11.5 24 32.5 q56 66 104 159 q19 33 19 54 q0 17 14 17 q8 0 34 -10 q28 -12 42 -13 Z" /><glyph glyph-name="uni4F9D" unicode="&#x4f9d;" d="M927 78 q60 -36 60 -48 q0 -6 -15.5 -8.5 q-15.5 -2.5 -50.5 -2.5 l-113 0 q-27 0 -47 16 q-20 16 -38 42 q-37 56 -79 135 q-43 80 -68 115 q-12 18 -40 46 q-15 -21 -51 -66 q25 -15 37 -33 q-2 -15 -9 -105 q-7 -90 -7 -108 q0 -3 2.5 -4.5 q2.5 -1.5 6.5 0.5 q114 68 135 68 q22 0 -32.5 -53 q-54.5 -53 -129.5 -114 q-17 -13 -34 -13 q-18 0 -34 12 q-16 12 -26 27.5 q-10 15.5 -11 23.5 q23 5 38 15 q15 10 15 38 l0 191 l0 3 q-76 -73 -155 -124 q-4 -3 -12 -7 l0 -210 q0 -13 -9 -13 q-9 0 -22 11 q-5 4 -24 19 q-19 15 -32 31 q-13 16 -13 27 q1 30 5 66 q4 36 5 46 q10 94 10 138 l0 173 l0 2 q-61 -68 -127 -118 q-27 -21 -33 -21 q-7 0 14 31 q64 97 105 174.5 q41 77.5 105 229.5 q12 29 12 65 q0 20 -5 33 q43 -8 69.5 -28.5 q26.5 -20.5 26.5 -53.5 q0 -11 -5 -28 q-37 -118 -116 -227 q37 -16 50 -37 q-4 -48 -7 -72 q-1 -12 -5 -53.5 q-4 -41.5 -4 -77.5 l0 -88 q71 73 126.5 149.5 q55.5 76.5 117.5 191.5 q11 21 16 46 q-52 -10 -94 -21 q-42 -11 -60 -19 q-21 -3 -36.5 22 q-15.5 25 -19.5 42 q103 11 251 39.5 q148 28.5 210 50.5 q21 2 39.5 -9 q18.5 -11 30 -27 q11.5 -16 11.5 -29 q0 -7 -5 -11.5 q-5 -4.5 -14 -3.5 q-8 1 -30 1 q-87 0 -236 -26 q22 -19 22 -45 q0 -16 -8 -31 q-11 -22 -26 -47 q13 -7 24 -16 q22 -22 68 -74 l43 55 q9 12 17.5 23 q8.5 11 16.5 21 q13 17 22 39.5 q9 22.5 8 36.5 q26 -14 42.5 -33 q16.5 -19 16.5 -40 q0 -17 -15 -37 q-19 -24 -52 -51.5 q-33 -27.5 -68 -49.5 q57 -66 112 -116.5 q55 -50.5 128 -95.5 ZM595 650 q-66 63 -94 91.5 q-28 28.5 -28 39.5 q0 7 11 7 q10 0 23 -4 l121 -31 q15 -4 22 -10 q7 -6 7 -17 q0 -7 -1 -11 l-5 -22 q-6 -29 -12 -43.5 q-6 -14.5 -17 -14.5 q-12 0 -27 15 Z" /><glyph glyph-name="uni4FA0" unicode="&#x4fa0;" d="M925 -42 q27 -18 38 -27 q11 -9 11 -14 q0 -6 -16 -7.5 q-16 -1.5 -59 -1.5 l-110 0 q-19 0 -29.5 4.5 q-10.5 4.5 -16 11.5 q-5.5 7 -18.5 29 q-71 114 -149 233 q-29 -84 -85 -147 q-56 -63 -148 -108 q-30 -15 -38 -15 q-10 0 20 30 q61 61 100 124 q39 63 65 167 q-106 -12 -138 -25 q-25 -4 -45 26.5 q-20 30.5 -26 51.5 q71 0 223 13 q17 92 25 227 q-78 -15 -122 -33 q-23 -3 -40.5 23.5 q-17.5 26.5 -24.5 47.5 q72 0 189 26 q2 74 2 119 q1 20 -5 48.5 q-6 28.5 -14 44.5 q57 2 85.5 -16 q28.5 -18 28.5 -63 l-3 -112 q79 17 113 20 q23 3 44 -8.5 q21 -11.5 34 -29.5 q13 -18 13 -33 q0 -18 -20 -18 q-28 8 -77 8 q-49 0 -108 -8 q-5 -153 -18 -234 l207 21 q25 3 48 -9.5 q23 -12.5 37.5 -32.5 q14.5 -20 14.5 -36 q0 -20 -22 -20 q-53 14 -171 14 q-55 0 -112 -3 q60 -71 153 -155.5 q93 -84.5 164 -132.5 ZM250 451 q21 -14 29 -27 q-4 -48 -7 -72 q-1 -12 -5 -53.5 q-4 -41.5 -4 -77.5 l0 -312 q0 -13 -9 -13 q-9 0 -22 11 q-5 4 -24 19 q-19 15 -32 31 q-13 16 -13 27 q1 30 5 66 q4 36 5 46 q10 94 10 138 l0 129 q-66 -74 -135 -110 q-12 -6 -20 -10.5 q-8 -4.5 -12.5 -6.5 q-4.5 -2 -4.5 0 q0 6 17 27 q48 62 78.5 107 q30.5 45 58.5 101 l-1 1 l2 0 q43 90 87 209 q10 24 10 60 q0 28 -5 39 q43 -7 69.5 -28 q26.5 -21 26.5 -56 q0 -10 -3 -24 q-36 -121 -101 -221 ZM661 359 q24 44 48 100 q12 24 12 52 q0 15 -4 23 q73 -19 73 -67 q0 -13 -4 -24 q-22 -71 -113 -99 q-17 -5 -19 -5 q-2 0 -2 2 q0 3 9 18 ZM475 401 q-6 -27 -17 -52 q-11 -25 -23 -25 q-7 0 -13 11 q-38 67 -51.5 94 q-13.5 27 -13.5 35 q0 4 4 4 q6 0 25 -8 l73 -31 q10 -4 14 -10.5 q4 -6.5 2 -17.5 Z" /><glyph glyph-name="uni4FA7" unicode="&#x4fa7;" d="M776 790 q4 1 12 1 q27 0 57.5 -15 q30.5 -15 42.5 -34 q-5 -22 -10 -65 q-5 -43 -5 -84 l0 -559 q0 -54 -17 -87.5 q-17 -33.5 -39 -33.5 q-12 0 -21 11 l-20 25 q-22 29 -39.5 46.5 q-17.5 17.5 -42.5 28.5 q-12 5 -12 8 q0 4 21 2 q11 -1 32 -1 q31 0 46.5 10.5 q15.5 10.5 15.5 38.5 l0 640 q0 17 -7 39 q-7 22 -14 29 ZM201 458 q23 -11 34 -28 l-6 -65 q-9 -77 -9 -129 l0 -302 q0 -13 -8 -13 q-9 0 -22 11 q-4 3 -22 18 q-18 15 -31 30 q-13 15 -13 26 q1 34 9 106 q10 88 10 132 l0 133 q-39 -46 -87 -89 q-14 -13 -23 -19 q-9 -6 -9 -1 q0 6 13 28 q51 91 76 152 q25 61 78 221 q7 21 7 50 q0 31 -8 44 q44 -5 70.5 -24 q26.5 -19 26.5 -53 q0 -14 -2 -21 q-27 -115 -84 -207 ZM529 663 q14 7 16 9 l97 -49 q-9 -12 -14.5 -27 q-5.5 -15 -5.5 -28 l0 -265 q0 -36 -8.5 -65.5 q-8.5 -29.5 -21.5 -45.5 q-13 -16 -25 -16 q-11 0 -17 15 q-4 9 -6.5 17 q-2.5 8 -5.5 14 q-17 43 -25 59 q-6 11 -6 13 q0 0 0.5 0.5 q0.5 0.5 0.5 0.5 q-1 0 15 -4 q11 -2 16.5 11.5 q5.5 13.5 5.5 52.5 l0 33 l1 214 q0 11 -12 11 q-20 0 -41 -5.5 q-21 -5.5 -56 -18.5 q-7 -3 -14 -3 q-12 0 -21 9 l-6 -81 q-8 -88 -8 -133 l0 -193 q0 -13 -7 -13 q-6 0 -13.5 5 q-7.5 5 -9.5 6 q-20 12 -41 36 q-21 24 -18 48 q8 48 10.5 91.5 q2.5 43.5 2.5 102.5 l0 55 l0 62 q0 20 -7 45 q-7 25 -15 34 q3 1 11 1 q23 0 49 -12 q26 -12 42 -30 q-2 11 0 17 q13 -3 29 -3 q14 0 26 3 q56 12 82 27 ZM659 267 q1 30 5 84 q1 15 3 54.5 q2 39.5 2 76.5 l0 18 q0 21 -5.5 57 q-5.5 36 -12.5 43 l10 1 q27 0 57 -14 q30 -14 42 -33 q-1 -22 -3 -41 q-2 -19 -3 -35 q-9 -112 -9 -146 l0 -136 q0 -13 -8 -13 q-8 0 -21 11 q-19 13 -38 35 q-19 22 -19 38 ZM587 136 q3 -2 11.5 -5.5 q8.5 -3.5 12 -8.5 q3.5 -5 2.5 -14 q-6 -106 -28 -106 q-7 0 -15 11 l-12 16 q-82 107 -99 135 q-31 -81 -83.5 -131 q-52.5 -50 -128.5 -79 q-15 -6 -21 -6 q-3 0 -3 2 q0 4 13 12 q91 56 142.5 174 q51.5 118 51.5 306 q0 18 -3.5 42.5 q-3.5 24.5 -8.5 37.5 q48 2 67.5 -13 q19.5 -15 19.5 -55 q-3 -163 -37 -265 l119 -53 Z" /><glyph glyph-name="uni4FB5" unicode="&#x4fb5;" d="M235 471 q37 -16 50 -37 q-4 -48 -7 -72 q-1 -12 -5 -53.5 q-4 -41.5 -4 -77.5 l0 -317 q0 -13 -9 -13 q-9 0 -22 11 q-5 4 -24 19 q-19 15 -32 31 q-13 16 -13 27 q1 30 5 66 q4 36 5 46 q10 94 10 138 l0 173 l0 2 q-61 -68 -127 -118 q-27 -21 -33 -21 q-7 0 14 31 q64 97 105 174.5 q41 77.5 105 229.5 q12 29 12 65 q0 20 -5 33 q43 -8 69.5 -28.5 q26.5 -20.5 26.5 -53.5 q0 -11 -5 -28 q-37 -118 -116 -227 ZM378 507 q55 0 130.5 10 q75.5 10 185.5 28 l14 50 q-56 2 -116.5 -6.5 q-60.5 -8.5 -107.5 -20.5 q-11 -3 -21.5 6.5 q-10.5 9.5 -17 22 q-6.5 12.5 -7.5 17.5 q35 0 70.5 5.5 q35.5 5.5 94.5 16.5 q47 9 78 14 q19 3 39 -10 l15 52 l0 2 q0 4 -4.5 6 q-4.5 2 -9.5 1 q-66 -10 -205 -36 l-57 -10 q-20 -4 -35 9 q-15 13 -23 31.5 q-8 18.5 -6 26.5 q36 -3 39 -3 q11 0 16 1 q138 16 275 43 q10 1 17 11 l138 -55 q-9 -4 -16.5 -15 q-7.5 -11 -18.5 -32 l-62 -121 q21 -7 35.5 -23.5 q14.5 -16.5 14.5 -30.5 q0 -14 -17 -15 q-29 3 -63 3 q-78 0 -172.5 -12 q-94.5 -12 -143.5 -24 q-14 -4 -27 8 q-13 12 -21.5 27.5 q-8.5 15.5 -10.5 22.5 ZM353 247 q-12 -17 -18 -17 q-4 0 -7 7 l-14 31 q-9 19 -9 21 q-2 8 -2 11 q0 8 6 15 q26 32 37 60 q6 12 8.5 31 q2.5 19 0.5 32 q16 -5 33 -15 q17 -10 24 -19 q3 -3 3 -6 l3 11 q15 -5 26.5 -7.5 q11.5 -2.5 29.5 -2.5 q40 0 200 30 q160 30 188 38 l21 6 l80 -77 q-22 -12 -84 -53 q-36 -24 -61 -39 q-19 -12 -28 -12 q-11 0 8 37 l34 63 l4 8 q0 4 -9 2 q-48 -4 -213 -31 l-142 -23 q-4 -1 -10 -1 q-19 0 -30 10.5 q-11 10.5 -15 25.5 q-1 -11 -5 -20 q-11 -33 -23 -56 q-12 -23 -36 -60 ZM948 -75 q37 -19 37 -24 q0 -4 -13 -4.5 q-13 -0.5 -26 -0.5 q-13 0 -20 0 l-105 0 q-24 0 -38 7 q-14 7 -36 25 q-54 45 -119 103 q1 -1 -19 16 q-115 -102 -264 -121 l-21 -2 q-15 0 -15 4 q0 4 23 15 q60 24 117 64.5 q57 40.5 105 88.5 q-50 44 -81.5 66.5 q-31.5 22.5 -49.5 24.5 q-21 3 -21 8 q0 6 24 12 q17 4 33 4 q14 0 24.5 -3.5 q10.5 -3.5 24.5 -11.5 q26 -15 86 -55 q32 37 52 71.5 q20 34.5 24 60.5 l1 8 q0 2 -2 2 q-4 0 -8 -2 q-24 -9 -68 -19 l-95 -27 q-9 -3 -16 -3 q-17 0 -29 11 q-12 11 -18 26 q-6 15 -4 23 q28 -2 53 3 q46 9 106.5 23.5 q60.5 14.5 69.5 19.5 q5 3 11 6.5 q6 3.5 8 4.5 l100 -50 q-16 -48 -46.5 -101 q-30.5 -53 -72.5 -101 q171 -112 288 -172 Z" /><glyph glyph-name="uni4FBF" unicode="&#x4fbf;" d="M232 468 q31 -15 43 -34 q-4 -48 -7 -72 q-1 -12 -5 -53.5 q-4 -41.5 -4 -77.5 l0 -317 q0 -13 -9 -13 q-9 0 -22 11 q-5 4 -24 19 q-19 15 -32 31 q-13 16 -13 27 q1 30 5 66 q4 36 5 46 q10 94 10 138 l0 164 q-57 -63 -117 -107 q-27 -21 -33 -21 q-7 0 14 31 q64 97 105 174.5 q41 77.5 105 229.5 q12 29 12 65 q0 20 -5 33 q43 -8 69.5 -28.5 q26.5 -20.5 26.5 -53.5 q0 -11 -5 -28 q-40 -125 -119 -230 ZM918 -46 q29 -13 47 -22 q18 -9 18 -13 q0 -4 -19 -5 q-19 -1 -48 -1 l-144 0 q-20 0 -34.5 4.5 q-14.5 4.5 -34.5 18.5 q-91 62 -166 116 q-75 -82 -214 -113 q-23 -5 -34 -5 q-6 0 -6 2 q0 5 22 16 q114 60 173 142 l-66 46 q-31 21 -73 17 q-4 0 -10 -0.5 q-6 -0.5 -14 -2.5 q-10 -2 -13 -2 q-11 0 -11 7 q0 9 18 21 q33 23 63 23 q6 0 18 -2 q28 -5 122 -50 q22 44 35 101 q-51 -4 -71 -8 q2 -14 2 -24 q0 -10 -9 -10 q-7 0 -21 7 q-68 36 -67 70 q2 60 2 98 q0 58 -5 79 q-5 22 -14 43 q-9 21 -17 25 q12 3 26 3 q38 0 69 -17 q-4 12 -2 17 q36 -3 39 -3 q11 0 16 1 q25 3 77 11 q1 6 1 18 q1 17 -3 37 q-4 20 -10 36 q-113 -20 -154 -39 q-23 -3 -39.5 25.5 q-16.5 28.5 -20.5 47.5 q87 2 212 28 q125 26 229 55 q6 2 18 2 q20 0 39.5 -10.5 q19.5 -10.5 31.5 -26 q12 -15.5 12 -27.5 q0 -14 -17 -15 q-115 -9 -250 -30 q44 -17 43 -67 l0 -19 q56 9 97 18 q10 1 17 11 l138 -55 q-10 -4 -20.5 -18.5 q-10.5 -14.5 -14.5 -28.5 l-35 -129 q-26 -104 -38 -142 q-3 -11 -10 -11 q-7 0 -20 11 q-29 23 -42 41 q-22 1 -70 1 l-30 0 q-18 -85 -52 -141 l34 -17 q186 -93 300 -145 ZM757 515 q-31 -7 -95 -19 l-3 -63 l27 5 q21 4 38.5 -13.5 q17.5 -17.5 19.5 -35.5 l27 117 l0 1 q0 5 -4.5 7.5 q-4.5 2.5 -9.5 0.5 ZM496 467 q-12 0 -25 8 q1 -27 1 -67 q39 1 95 10 l3 62 q-10 -2 -38 -7 l-28 -5 l-8 -1 ZM679 317 l49 5 l13 56 q-4 -4 -9 -4 q-32 4 -78 4 q-4 -44 -7 -64 l32 3 ZM523 302 l34 3 q3 21 7 65 q-39 -6 -66 -14 l-4 -1 q-11 0 -22 18 q0 -49 1 -74 l50 3 Z" /><glyph glyph-name="uni4FC3" unicode="&#x4fc3;" d="M235 471 q37 -16 50 -37 q-4 -48 -7 -72 q-1 -12 -5 -53.5 q-4 -41.5 -4 -77.5 l0 -317 q0 -13 -9 -13 q-9 0 -22 11 q-5 4 -24 19 q-19 15 -32 31 q-13 16 -13 27 q1 30 5 66 q4 36 5 46 q10 94 10 138 l0 173 l0 2 q-61 -68 -127 -118 q-27 -21 -33 -21 q-7 0 14 31 q59 88 94 156.5 q35 68.5 116 247.5 q12 27 12 63 q0 25 -5 35 q43 -8 69.5 -28.5 q26.5 -20.5 26.5 -53.5 q0 -11 -5 -28 q-37 -118 -116 -227 ZM956 51 q16 0 16 -5 q0 -5 -9 -10 l-48 -33 q-39 -29 -76 -49 q-26 -13 -51 -13 q-32 0 -66 18 l-34 18 q-95 50 -138.5 70.5 q-43.5 20.5 -73.5 25.5 q-31 6 -50 6 q-13 0 -26 -3.5 q-13 -3.5 -27 -8.5 q-30 -33 -67 -61 q-22 -17 -30 -17 q-9 0 8 35 q36 71 74 167 l24 60 q15 38 15 70 q0 13 -3 20 q37 -10 60 -29 q23 -19 23 -46 q0 -14 -8 -32 l-18 -38 q-19 -43 -28 -58 l24 -4 q72 -15 126 -31 l0 293 q0 13 -4 29 q-4 16 -9 29 q-26 -4 -39 -7 q1 -7 2.5 -20.5 q1.5 -13.5 1.5 -23.5 q0 -10 -9 -10 q-7 0 -21 7 q-3 2 -24.5 12.5 q-21.5 10.5 -37 26.5 q-15.5 16 -15.5 31 q1 23 1 77 q0 77 -6 102 q-5 22 -14 43 q-9 21 -17 25 q12 3 26 3 q22 0 45.5 -7.5 q23.5 -7.5 39.5 -19.5 q-4 12 -2 17 q36 -3 39 -3 q11 0 16 1 q46 5 79 11.5 q33 6.5 102 26.5 q11 3 17 11 l138 -55 q-9 -4 -16.5 -15 q-7.5 -11 -18.5 -32 l-64 -124 q19 -8 32 -24 q13 -16 13 -29 q0 -14 -16 -15 q-36 4 -82 4 q-56 0 -123 -7 q20 -7 37 -18.5 q17 -11.5 25 -23.5 q-2 -28 -8 -82 l-4 -43 q24 3 46 8 q9 2 26 5.5 q17 3.5 51 8.5 q3 1 10 1 q18 0 35 -9.5 q17 -9.5 27 -23.5 q10 -14 10 -25 q0 -14 -17 -15 q-59 7 -93 7 q-25 0 -43.5 -3.5 q-18.5 -3.5 -55.5 -12.5 l0 -19 l0 -137 q60 -19 142 -32 q23 -3 45 -3 q32 0 69 5 q8 1 18.5 2 q10.5 1 22.5 1 l6 0 ZM507 667 q2 -70 9 -164 q63 5 180 24 l41 148 l0 2 q0 4 -4.5 6 q-4.5 2 -9.5 1 q-39 -6 -86 -20 q-39 -13 -82 -21 q-3 -1 -8 -1 q-24 0 -40 25 Z" /><glyph glyph-name="uni4FD7" unicode="&#x4fd7;" d="M235 471 q37 -16 50 -37 q-4 -48 -7 -72 q-1 -12 -5 -53.5 q-4 -41.5 -4 -77.5 l0 -317 q0 -13 -9 -13 q-9 0 -22 11 q-5 4 -24 19 q-19 15 -32 31 q-13 16 -13 27 q1 30 5 66 q4 36 5 46 q10 94 10 138 l0 173 l0 2 q-61 -68 -127 -118 q-27 -21 -33 -21 q-7 0 14 31 q59 88 94 156.5 q35 68.5 116 247.5 q12 27 12 63 q0 25 -5 35 q43 -8 69.5 -28.5 q26.5 -20.5 26.5 -53.5 q0 -11 -5 -28 q-37 -118 -116 -227 ZM733 648 q-26 25 -43.5 43.5 q-17.5 18.5 -21 25.5 q-3.5 7 4.5 7 q9 0 38 -8 l120 -34 q20 -6 28 -12.5 q8 -6.5 7 -23.5 q-1 -7 -3.5 -34.5 q-2.5 -27.5 -8.5 -43 q-6 -15.5 -16 -15.5 q-10 0 -25 15 l-80 80 ZM370 507 q-2 17 -6.5 36.5 q-4.5 19.5 -4.5 23.5 l0 7 q0 10 8 17 q18 13 35.5 32.5 q17.5 19.5 27.5 36.5 q13 15 24 64 q27 -17 38.5 -29 q11.5 -12 11.5 -28 q0 -12 -8 -31 q-14 -31 -34 -55 q-20 -24 -64 -70 q-13 -13 -21 -13 q-5 0 -7 9 ZM918 272 q61 -35 61 -46 q0 -5 -8.5 -6 q-8.5 -1 -27.5 -1 l-82 0 q-34 0 -49 4.5 q-15 4.5 -32 23.5 q-35 41 -88.5 104.5 q-53.5 63.5 -87.5 107.5 q-36 -62 -96.5 -126.5 q-60.5 -64.5 -126.5 -111.5 q5 1 16 1 q22 0 45 -7.5 q23 -7.5 39 -19.5 q-4 12 -2 17 q36 -3 39 -3 q11 0 16 1 l22 3 q111 16 145 30 q13 6 17 11 l138 -55 q-11 -5 -23.5 -18.5 q-12.5 -13.5 -18.5 -28.5 l-41 -107 q24 -5 41.5 -23.5 q17.5 -18.5 17.5 -33.5 q0 -14 -17 -15 q-62 7 -139 7 q-107 0 -175 -13 l3 -30 q1 -13 -9 -13 q-7 0 -21 7 q-68 36 -67 70 q1 20 1 58 q0 60 -7 92 q-4 19 -11.5 38.5 q-7.5 19.5 -15.5 26.5 q-39 -27 -76 -44 q-12 -6 -17 -6 q-3 0 -3 2 q0 4 14 18 q68 68 138.5 156 q70.5 88 117.5 179 q28 53 29 80 q28 -19 41 -35 q13 -16 13 -35 q0 -11 -4 -23 q72 -71 154 -137.5 q82 -66.5 137 -98.5 ZM543 145 q-3 -1 -8 -1 q-23 0 -41 25 q2 -68 2 -80 q0 -42 2 -67 q101 2 190 14 l23 136 l0 4 q0 9 -7 7 q-31 -9 -79 -20.5 q-48 -11.5 -82 -17.5 Z" /><glyph glyph-name="uni4FDD" unicode="&#x4fdd;" d="M911 83 q67 -45 67 -56 q0 -5 -10 -6 q-10 -1 -34 -1 l-76 0 q-29 0 -44 5.5 q-15 5.5 -33 21.5 q-19 17 -39 42.5 q-20 25.5 -57 77.5 q-16 23 -52 71 l0 -355 q0 -12 -8 -12 q-4 0 -12 4 q-8 4 -11 6 q-26 14 -49 34.5 q-23 20.5 -20 42.5 q20 103 20 250 l0 25 q-130 -155 -262 -199 q-18 -7 -27 -7 q-10 0 18 24 q35 31 106 106.5 q71 75.5 130 152.5 q-93 -14 -154 -31 q-25 -7 -44.5 24 q-19.5 31 -26.5 54 q92 3 260 20 l0 53 q0 28 -11 52 l-27 -6 q-2 -1 -6 -1 q-6 0 -14 4 q1 -8 2.5 -22 q1.5 -14 1.5 -24 q0 -10 -9 -10 q-7 0 -21 7 q-3 2 -24.5 12.5 q-21.5 10.5 -37 26.5 q-15.5 16 -15.5 31 q1 23 1 80 q0 82 -6 107 q-5 22 -14 43 q-9 21 -17 25 q16 4 27 4 q19 0 39.5 -6 q20.5 -6 36.5 -16 q-1 4 -1 10 q36 -3 39 -3 q11 0 16 1 q45 5 79 11 q34 6 99 22 q11 3 17 11 l138 -55 q-8 -3 -14 -12 q-6 -9 -12 -19.5 q-6 -10.5 -9 -15.5 l-68 -118 q20 3 38 -6.5 q18 -9.5 29.5 -24 q11.5 -14.5 11.5 -26.5 q0 -14 -17 -15 q-37 4 -83 4 q-71 0 -128 -9 q41 -17 55 -40 l-6 -64 l185 22 q25 3 48 -9.5 q23 -12.5 37.5 -32.5 q14.5 -20 14.5 -36 q0 -20 -22 -20 q-50 17 -148 17 q-48 0 -113 -5 q67 -73 144.5 -142 q77.5 -69 121.5 -99 ZM216 469 q32 -15 45 -35 q-4 -48 -7 -72 q-1 -12 -5 -53.5 q-4 -41.5 -4 -77.5 l0 -317 q0 -13 -9 -13 q-9 0 -22 11 q-5 4 -24 19 q-19 15 -32 31 q-13 16 -13 27 q1 30 5 66 q4 36 5 46 q10 94 10 138 l0 169 q-44 -48 -116 -103 q-14 -11 -24 -17.5 q-10 -6.5 -10 -2.5 q0 7 15 30 q54 91 82.5 146.5 q28.5 55.5 105.5 221.5 q12 27 12 63 q0 25 -5 35 q43 -8 69.5 -28.5 q26.5 -20.5 26.5 -53.5 q0 -11 -5 -28 q-36 -114 -100 -202 ZM490 535 q64 2 163 20 l48 152 l0 2 q0 4 -4.5 6 q-4.5 2 -9.5 1 q-40 -6 -86 -18 q-48 -12 -79 -18 q-24 -4 -41 15 q2 -70 9 -160 Z" /><glyph glyph-name="uni4FE1" unicode="&#x4fe1;" d="M864 640 q25 3 48 -9.5 q23 -12.5 37.5 -32.5 q14.5 -20 14.5 -36 q0 -20 -22 -20 q-41 14 -125 14 q-99 0 -219 -14.5 q-120 -14.5 -212 -29.5 q-22 -3 -40 21 q-18 24 -28 49 q-25 -59 -64 -117 q20 -12 31 -28 q-4 -48 -7 -72 q-1 -12 -5 -53.5 q-4 -41.5 -4 -77.5 l0 -329 q0 -13 -9 -13 q-9 0 -22 11 q-5 4 -24 19 q-19 15 -32 31 q-13 16 -13 27 q1 30 5 66 q4 36 5 46 q10 94 10 138 l0 151 q-63 -68 -127 -107 q-31 -19 -36 -19 q-7 0 16 29 q49 62 79.5 113 q30.5 51 58.5 114.5 q28 63.5 76 187.5 q8 20 8 52 q0 32 -7 46 q45 -5 73 -25.5 q28 -20.5 28 -55.5 q0 -11 -3 -23 q-14 -56 -34 -103 q115 2 222 12.5 q107 10.5 252 28.5 l69 9 ZM707 730 q-6 -51 -11.5 -74 q-5.5 -23 -20.5 -23 q-12 0 -28 17 q-40 42 -55 56 q-28 29 -46.5 49 q-18.5 20 -21 27 q-2.5 7 8.5 7 q14 0 47 -6 l91 -15 q20 -3 28.5 -11.5 q8.5 -8.5 7.5 -26.5 ZM736 496 q25 3 48 -9.5 q23 -12.5 37.5 -32.5 q14.5 -20 14.5 -36 q0 -20 -22 -20 q-54 18 -123 18 q-44 0 -84.5 -5.5 q-40.5 -5.5 -98.5 -15.5 l-30 -5 q-25 -4 -45 26.5 q-20 30.5 -26 51.5 q46 -2 62 -2 q45 0 79 4 q34 4 79 12 q57 10 109 14 ZM730 362 q25 3 48 -9.5 q23 -12.5 37.5 -32.5 q14.5 -20 14.5 -36 q0 -20 -22 -20 q-54 18 -118 18 q-60 0 -159 -19 q-10 -2 -38 -7 q-25 -4 -45 26.5 q-20 30.5 -26 51.5 q46 -2 61 -2 q43 0 70.5 3.5 q27.5 3.5 71.5 11.5 q63 12 105 15 ZM758 242 q10 1 17 11 l138 -55 q-9 -4 -16.5 -15 q-7.5 -11 -18.5 -32 l-57 -108 q21 -6 36 -23.5 q15 -17.5 15 -31.5 q0 -14 -17 -15 q-55 6 -118 6 q-59 0 -114 -5.5 q-55 -5.5 -90 -13.5 q2 -31 4 -44 q1 -13 -9 -13 q-7 0 -21 7 q-3 2 -24.5 12.5 q-21.5 10.5 -37 26.5 q-15.5 16 -15.5 31 q1 20 1 61 q0 69 -7 101 q-5 22 -14 43 q-9 21 -17 25 q12 3 26 3 q24 0 48.5 -8 q24.5 -8 39.5 -21 q-4 8 -6 16.5 q-2 8.5 -1 12.5 q36 -3 39 -3 q11 0 16 1 q46 6 92 14 l111 17 ZM527 18 q93 1 199 17 l42 136 l0 2 q0 4 -4.5 6 q-4.5 2 -9.5 1 q-70 -10 -190 -34 q-3 -1 -8 -1 q-22 0 -39 22 q3 -70 10 -149 Z" /><glyph glyph-name="uni4FEE" unicode="&#x4fee;" d="M930 362 q56 -24 56 -37 q0 -11 -45 -11 l-101 0 q-27 0 -40.5 7 q-13.5 7 -35.5 26 q-79 70 -123 106 q-114 -84 -265 -124 l-4 -1 l0 -21 l0 -174 q0 -12 -8 -12 q-9 0 -19 10 q-6 6 -22.5 19 q-16.5 13 -27 25.5 q-10.5 12.5 -10.5 22.5 q1 30 9 96 q1 10 5 48.5 q4 38.5 4 71.5 l0 50 q0 17 -5 35.5 q-5 18.5 -12 24.5 q3 1 11 1 q24 0 51 -12.5 q27 -12.5 37 -29.5 q-1 -23 -3 -39.5 q-2 -16.5 -3 -27.5 l-6 -68 q66 37 115 71.5 q49 34.5 94 79.5 q-4 4 -12 10 q-27 20 -48.5 28.5 q-21.5 8.5 -23.5 9.5 q-7 3 -23 5 q-24 3 -21 13 q-27 -14 -59 -27 q-22 -9 -30 -9 q-4 0 -4 2 q0 3 19 22 q43 39 77.5 83 q34.5 44 75.5 113 q7 12 11.5 30 q4.5 18 4.5 34 q0 6 -2 16 q32 -11 52.5 -29 q20.5 -18 20.5 -42 q0 -15 -8 -30 q-19 -33 -20 -34 l5 1 q86 21 127 35 q6 2 10 5.5 q4 3.5 6 4.5 l78 -68 q-36 -94 -123 -175 q80 -52 127 -80.5 q47 -28.5 108 -54.5 ZM216 465 q25 -12 37 -31 q-4 -48 -7 -72 q-1 -12 -5 -53.5 q-4 -41.5 -4 -77.5 l0 -317 q0 -13 -9 -13 q-9 0 -22 11 q-5 4 -24 19 q-19 15 -32 31 q-13 16 -13 27 q1 30 5 66 q4 36 5 46 q10 94 10 138 l0 145 q-47 -58 -105 -109 q-26 -23 -31 -23 q-7 0 12 32 q59 102 94.5 182 q35.5 80 89.5 234 q8 21 8 55 q0 30 -7 44 q45 -6 72.5 -26 q27.5 -20 27.5 -55 q0 -11 -3 -23 q-28 -117 -99 -230 ZM560 577 q40 -22 62 -35 q42 48 84 114 q3 5 3 8 q0 3 -3 4 q-3 1 -8 -1 l-25 -9 q-33 -10 -62 -23 q-9 -3 -16 -3 q-18 0 -34 19 q-36 -43 -81 -71 q23 6 41 6 q21 0 39 -9 ZM420 220 q-21 -3 -31 -3 q-8 0 -8 2 q0 3 28 17 q41 19 82.5 46.5 q41.5 27.5 101.5 76.5 q2 3 13.5 14.5 q11.5 11.5 14.5 24.5 q3 11 9 11 q5 0 11.5 -4.5 q6.5 -4.5 13.5 -10.5 q22 -18 35 -21 q14 -2 14 -13 q0 -6 -8 -17 q-18 -22 -59.5 -48 q-41.5 -26 -98.5 -46.5 q-57 -20.5 -118 -28.5 ZM403 70 q-21 -3 -31 -3 q-8 0 -8 2 q0 3 28 17 q148 71 266 168 q2 3 13.5 14.5 q11.5 11.5 14.5 24.5 q3 11 9 11 q5 0 11.5 -4.5 q6.5 -4.5 13.5 -10.5 q22 -18 35 -21 q14 -2 14 -13 q0 -6 -8 -17 q-22 -27 -70 -62 q-48 -35 -122.5 -65.5 q-74.5 -30.5 -165.5 -40.5 ZM833 157 q14 -2 14 -13 q0 -6 -8 -17 q-29 -35 -87.5 -81.5 q-58.5 -46.5 -162.5 -92 q-104 -45.5 -243 -63.5 l-26 -2 q-15 0 -15 4 q0 5 30 14 q32 9 100.5 39.5 q68.5 30.5 152 82 q83.5 51.5 148.5 115.5 q2 3 13.5 14.5 q11.5 11.5 14.5 24.5 q3 11 9 11 q5 0 11.5 -4.5 q6.5 -4.5 13.5 -10.5 q22 -18 35 -21 Z" /><glyph glyph-name="uni4FEF" unicode="&#x4fef;" d="M676 747 q-3 -88 -24 -88 q-7 0 -16 9 q-62 62 -89 92.5 q-27 30.5 -27 40.5 q0 5 7 5 q7 0 13 -2 l111 -31 q13 -4 19 -9 q6 -5 6 -17 ZM230 465 q27 -13 37 -31 q-4 -48 -7 -72 q-1 -12 -5 -53.5 q-4 -41.5 -4 -77.5 l0 -317 q0 -13 -9 -13 q-9 0 -22 11 q-5 4 -24 19 q-19 15 -32 31 q-13 16 -13 27 q1 30 5 66 q4 36 5 46 q10 94 10 138 l0 156 q-49 -54 -109 -99 q-27 -21 -33 -21 q-7 0 14 31 q59 88 94 156.5 q35 68.5 116 247.5 q12 27 12 63 q0 25 -5 35 q43 -8 69.5 -28.5 q26.5 -20.5 26.5 -53.5 q0 -11 -5 -28 q-38 -122 -121 -233 ZM876 424 q25 3 48 -9 q23 -12 37.5 -30 q14.5 -18 14.5 -33 q0 -18 -22 -18 q-41 16 -97 16 q-14 0 -40 -2 l0 -330 q0 -57 -18 -92 q-18 -35 -41 -35 q-11 0 -22 12 q-12 13 -24 30 q-23 30 -40.5 47.5 q-17.5 17.5 -42.5 27.5 q-13 4 -13 8 q0 3 22 2 q12 -1 33 -1 q33 0 49.5 11 q16.5 11 16.5 41 l0 267 q-17 -3 -30.5 -5.5 q-13.5 -2.5 -23.5 -4.5 q-35 -8 -59 -11 q-32 -5 -63 52 q-18 -30 -31 -47 q15 -9 25 -23 l-6 -62 q-9 -74 -9 -122 l0 -179 q0 -12 -8 -12 q-8 0 -20 10 q-62 48 -62 70 q1 34 9 106 q10 82 9 121 l0 27 q-25 -22 -57 -45 l-8 -6 q-38 -169 -115 -246 q-21 -21 -27 -21 q-7 0 8 35 q37 82 56 173 q19 91 26 180 q7 89 12 232 l1 14 q0 20 -5 39.5 q-5 19.5 -13 29.5 q54 3 79 -18 q95 7 192.5 26 q97.5 19 170.5 42 q10 3 22 3 q20 0 39 -9.5 q19 -9.5 31 -23.5 q12 -14 12 -26 q0 -13 -16 -17 q-47 -11 -182 -29 q-84 -11 -133.5 -19 q-49.5 -8 -74.5 -18 q-20 -3 -38 21 l0 -5 l-8 -80 q-15 -159 -27 -232 q28 42 44 74 q-3 9 -7 11 q4 1 13 1 l42 88 q18 40 25 55 q14 33 14 64 q0 12 -2 17 q33 -10 53 -27.5 q20 -17.5 20 -42.5 q0 -13 -6 -28 q-22 -51 -37 -81 q45 1 78 5.5 q33 4.5 87 13.5 l0 84 q0 19 -7 42 q-7 23 -15 30 q4 1 12 1 q29 0 61 -15.5 q32 -15.5 45 -35.5 q-9 -35 -13 -93 q33 4 56 5 ZM693 212 q-2 -7 -8.5 -25 q-6.5 -18 -13 -27.5 q-6.5 -9.5 -13.5 -9.5 q-9 0 -21 16 q-28 39 -36 49 q-19 25 -32 44.5 q-13 19.5 -13 25.5 q0 5 6 5 q4 0 23 -7 l90 -37 q11 -5 16 -9.5 q5 -4.5 5 -11.5 q0 -5 -3 -13 Z" /><glyph glyph-name="uni500D" unicode="&#x500d;" d="M613 665 q-104 97 -104 118 q0 9 14 9 q11 0 39 -7 l68 -17 q18 -4 25.5 -10.5 q7.5 -6.5 6.5 -22.5 q-4 -40 -7.5 -59 q-3.5 -19 -14.5 -23 q90 16 134 22 q25 3 48 -9.5 q23 -12.5 37.5 -32.5 q14.5 -20 14.5 -36 q0 -20 -22 -20 q-41 14 -103 14 q-110 0 -302 -46 l-23 -5 q-25 -6 -44.5 25 q-19.5 31 -26.5 53 q65 1 129 9.5 q64 8.5 154 24.5 q-9 0 -23 13 ZM868 395 q25 3 48 -9.5 q23 -12.5 37.5 -32.5 q14.5 -20 14.5 -36 q0 -20 -22 -20 q-45 16 -157 16 q-106 0 -234.5 -13.5 q-128.5 -13.5 -187.5 -26.5 q-24 -5 -43.5 23.5 q-19.5 28.5 -26.5 52.5 q-8 -80 -8 -118 l0 -282 q0 -13 -9 -13 q-9 0 -22 11 q-5 4 -24 19 q-19 15 -32 31 q-13 16 -13 27 q1 30 5 66 q4 36 5 46 q10 94 10 138 l0 123 q-69 -85 -152 -136 q-8 -5 -22 -13 q-14 -8 -14 -5 q0 4 16 27 q50 73 79.5 122 q29.5 49 60 114.5 q30.5 65.5 75.5 177.5 q9 24 9 55 q0 29 -7 43 q44 -7 72.5 -27 q28.5 -20 28.5 -54 q0 -7 -4 -25 q-31 -114 -91 -207 q32 -14 45 -35 q-2 -25 -8 -83 q133 3 342 20 q30 50 62 112 l10 20 q8 14 12.5 32.5 q4.5 18.5 4.5 34.5 q0 9 -1 13 q31 -10 50 -28 q19 -18 19 -43 q0 -15 -7 -30 q-23 -52 -80 -105 q106 10 159 18 ZM535 470 q20 -11 20 -25 q0 -8 -5 -16 q-4 -6 -14.5 -24.5 q-10.5 -18.5 -19.5 -28.5 q-9 -10 -16 -10 q-11 0 -19 22 l-21 59 q-19 51 -23.5 66 q-4.5 15 1.5 15 q3 0 15.5 -8.5 q12.5 -8.5 27.5 -17.5 l54 -32 ZM724 263 q12 3 19 12 l152 -61 q-11 -5 -19 -16.5 q-8 -11.5 -20 -35.5 l-63 -120 q17 -10 28 -25 q11 -15 11 -27 q0 -16 -18 -16 q-70 6 -131 6 q-82 0 -146 -11 q1 -5 3 -20.5 q2 -15.5 2 -30.5 q0 -11 -10 -11 q-7 0 -23 7 q-86 39 -85 77 q1 45 -4.5 94.5 q-5.5 49.5 -12.5 83.5 q-5 24 -15 47.5 q-10 23.5 -19 27.5 q12 4 29 4 q27 0 55 -10 q28 -10 45 -26 q-7 18 -5 26 q17 -3 36 -3 q17 0 25 1 q102 11 166 27 ZM510 196 q2 -67 15 -142 l4 -26 q76 3 166 17 l40 139 l0 2 q0 4 -5 6.5 q-5 2.5 -11 1.5 q-45 -6 -88 -16 l-63 -14 q-3 -1 -9 -1 q-29 0 -49 33 Z" /><glyph glyph-name="uni5012" unicode="&#x5012;" d="M772 812 q4 1 12 1 q29 0 61 -15.5 q32 -15.5 45 -35.5 q-5 -22 -10.5 -67.5 q-5.5 -45.5 -5.5 -89.5 l0 -587 q0 -57 -18 -92 q-18 -35 -41 -35 q-11 0 -22 12 q-12 13 -24 30 q-23 30 -40.5 47.5 q-17.5 17.5 -42.5 27.5 q-13 4 -13 8 q0 3 22 2 q12 -1 33 -1 q33 0 49.5 11 q16.5 11 16.5 41 l0 671 q0 19 -7 42 q-7 23 -15 30 ZM640 176 q16 0 16 -7 q0 -5 -15 -14 q-32 -17 -147 -61.5 q-115 -44.5 -162 -59.5 q-10 -3 -20 -3 q-21 0 -36 14 q-15 14 -22 33 q-7 19 -7 34 q0 8 1 10 q4 -2 14.5 -5 q10.5 -3 26.5 -3 q20 0 33 3 l93 18 l0 88 q-7 -2 -14.5 -4 q-7.5 -2 -15.5 -4 l-48 -12 q-18 -4 -33.5 15.5 q-15.5 19.5 -24.5 37.5 q73 7 136 21 l0 36 q0 28 -12 54 q-21 -7 -40 -12.5 q-19 -5.5 -30 -5.5 q-24 0 -37.5 23 q-13.5 23 -13.5 46 q0 7 2 11 q12 -4 21 -4 q9 0 15 4 q6 4 15 14 q44 51 65 103 q7 15 11 31 l-19 -6 q-36 -11 -52 -14 q-23 -6 -51 38 q-30 -68 -71 -131 q24 -13 35 -30 q-4 -48 -7 -72 q-1 -12 -5 -53.5 q-4 -41.5 -4 -77.5 l0 -317 q0 -13 -9 -13 q-9 0 -22 11 q-5 4 -24 19 q-19 15 -32 31 q-13 16 -13 27 q1 30 5 66 q4 36 5 46 q10 94 10 138 l0 145 q-46 -51 -85 -82 q-14 -11 -23.5 -18 q-9.5 -7 -9.5 -3 q0 6 14 30 q47 76 87 169 l-2 2 l3 0 q39 96 80 210 q10 30 10 61 q0 25 -6 38 q44 -7 71 -27.5 q27 -20.5 27 -54.5 q0 -7 -4 -25 q-6 -22 -20 -64 q71 7 124 19 q53 12 134 36 q4 1 11 1 q19 0 36.5 -10.5 q17.5 -10.5 28 -25 q10.5 -14.5 10.5 -26.5 q0 -15 -17 -16 q-25 7 -57 7 q-39 0 -102 -13 q17 -17 17 -39 q0 -15 -8 -28 q-13 -23 -27 -39 q-14 -16 -39 -40 l-22 -21 l-1 -1 q67 8 141 20 q-4 8 -16 35 q-12 27 -12 33 q0 4 3 4 q4 0 24 -13 l81 -53 q15 -11 15 -21 q0 -5 -5 -15 q-25 -48 -43 -48 q-12 0 -20 19 q-3 7 -6 14 q-3 7 -6 13 q-27 -8 -61 -20 l-45 -15 q22 -6 41.5 -18 q19.5 -12 28.5 -25 l-3 -35 q14 3 24.5 6.5 q10.5 3.5 17.5 5.5 q3 1 10 1 q17 0 33 -9.5 q16 -9.5 25.5 -22.5 q9.5 -13 9.5 -24 q0 -14 -15 -15 q-17 5 -48 5 q-28 0 -63 -5 q-6 -62 -6 -91 l140 26 l8 0 ZM656 450 q0 23 -6 60.5 q-6 37.5 -13 44.5 q4 1 12 1 q29 0 59.5 -14.5 q30.5 -14.5 43.5 -34.5 q-4 -47 -7 -72 q-9 -74 -9 -125 l0 -143 q0 -13 -9 -13 q-9 0 -22 11 q-59 50 -59 77 q1 38 5 83 q5 52 5 106 l0 19 Z" /><glyph glyph-name="uni5019" unicode="&#x5019;" d="M199 466 q19 -7 34.5 -18 q15.5 -11 23.5 -23 q-4 -48 -7 -72 q-1 -12 -5 -53.5 q-4 -41.5 -4 -77.5 l0 -343 q0 -13 -9 -13 q-9 0 -22 11 q-5 4 -24 19 q-19 15 -32 31 q-13 16 -13 27 q1 30 5 66 q4 36 5 46 q10 94 10 138 l0 199 q0 10 -1 15 q-48 -53 -108 -102 q-29 -25 -38 -25 q-9 0 20 42 q80 114 194 381 q15 29 15 65 q0 19 -4 28 q40 -10 63.5 -29.5 q23.5 -19.5 23.5 -50.5 q0 -11 -5 -28 q-34 -81 -60.5 -133.5 q-26.5 -52.5 -61.5 -99.5 ZM929 -42 q47 -28 47 -37 q0 -5 -9 -6.5 q-9 -1.5 -28 -1.5 l-115 0 q-33 0 -48 7 q-15 7 -30 29 q-32 46 -101 139 l-28 38 q-39 -79 -105 -131 q-66 -52 -140 -74 q-22 -7 -29 -7 q-2 0 -2 1 q0 3 16 14 q61 42 114 105 q53 63 78 140 q-103 -12 -131 -26 q-23 -6 -49 39 l0 -91 q0 -14 -7 -14 q-7 0 -19 12 q-4 4 -20 19 q-16 15 -27 31 q-11 16 -11 27 q1 27 4 61.5 q3 34.5 4 47.5 q9 86 9 141 l0 6 q0 20 -4.5 41.5 q-4.5 21.5 -11.5 28.5 q3 1 11 1 q24 0 50 -14.5 q26 -14.5 36 -34.5 l-6 -76 q-8 -86 -8 -127 l0 -28 q133 8 195 13 q4 32 4 50 q1 5 1 14 q0 20 -5 42 q-13 -5 -20 -9 q-18 -5 -39 25 q-24 -28 -49 -44.5 q-25 -16.5 -57 -29.5 q-12 -5 -16 -5 q-3 0 -3 2 q0 2 5 10 q4 6 18.5 28.5 q14.5 22.5 31.5 55 q17 32.5 36 75.5 q5 11 10 25.5 q5 14.5 6 28.5 q-55 -9 -77 -21 q-21 -5 -38.5 23 q-17.5 28 -24.5 50 q58 3 147.5 11.5 q89.5 8.5 169.5 19.5 l32 115 q0 5 -4 8.5 q-4 3.5 -10 2.5 l-191 -61 q-8 -2 -12 -2 q-16 0 -28.5 12 q-12.5 12 -19 27.5 q-6.5 15.5 -4.5 22.5 q18 -2 30 -2 q9 0 25 2 q31 6 110.5 29 q79.5 23 88.5 28 q17 10 19 10 l98 -70 q-5 -15 -28 -54 q-23 -41 -30 -57 q67 12 98 22 q4 1 11 1 q19 0 36.5 -12.5 q17.5 -12.5 28 -30.5 q10.5 -18 10.5 -32 q0 -18 -17 -19 q-32 5 -84 5 q-67 0 -152 -6.5 q-85 -6.5 -152 -16.5 q37 -22 37 -55 q0 -15 -9 -33 q-2 -4 -4.5 -9 q-2.5 -5 -6.5 -11 q74 8 131.5 19.5 q57.5 11.5 107.5 30.5 q4 1 10 1 q18 0 34.5 -11 q16.5 -11 26.5 -27 q10 -16 10 -29 q0 -14 -15 -16 q-25 4 -65 4 q-78 0 -150 -14 q31 -20 31 -62 q-1 -20 -5 -53 q131 14 185 30 q4 1 11 1 q19 0 36.5 -12 q17.5 -12 28 -29 q10.5 -17 10.5 -30 q0 -17 -17 -18 q-34 6 -109 6 q-65 0 -153 -5 q67 -68 143.5 -127 q76.5 -59 141.5 -97 Z" /><glyph glyph-name="uni501F" unicode="&#x501f;" d="M868 441 q25 3 48 -9.5 q23 -12.5 37.5 -32.5 q14.5 -20 14.5 -36 q0 -20 -22 -20 q-34 10 -101 10 q-102 0 -223.5 -15.5 q-121.5 -15.5 -259.5 -37.5 q-25 -4 -45 26.5 q-20 30.5 -26 51.5 q68 2 169 14 q2 38 2 57 l-1 40 q-18 -4 -30 -6 q-16 -3 -30 11.5 q-14 14.5 -23 32.5 q-9 18 -11 26 q42 2 91 9 q-1 2 -1 8 l-6 86 q-2 20 -10 42 q-8 22 -18 29 q10 2 17 2 q29 0 60.5 -13.5 q31.5 -13.5 44.5 -31.5 q0 -24 -2 -72 l-1 -36 l135 27 l3 52 l5 86 q1 19 -5.5 42 q-6.5 23 -15.5 31 q29 3 66.5 -15 q37.5 -18 50.5 -41 q-7 -50 -10 -70 l-10 -70 q27 5 56 7 q23 3 44 -8.5 q21 -11.5 34 -29.5 q13 -18 13 -32 q0 -18 -20 -18 q-25 7 -69 7 q-30 0 -65 -3 l-4 -112 q69 9 118 12 ZM231 463 q23 -13 33 -29 q-4 -48 -7 -72 q-1 -12 -5 -53.5 q-4 -41.5 -4 -77.5 l0 -306 q0 -13 -9 -13 q-9 0 -22 11 q-5 4 -24 19 q-19 15 -32 31 q-13 16 -13 27 q1 30 5 66 q4 36 5 46 q10 94 10 138 l0 137 q-58 -60 -122 -90 q-12 -6 -24 -13 q-12 -7 -12 -4 q0 3 18 27 q61 86 89 138 q28 52 99 203 l17 38 q12 27 12 62 q0 21 -5 36 q43 -7 69.5 -28.5 q26.5 -21.5 26.5 -54.5 q0 -14 -4 -27 q-37 -119 -101 -211 ZM548 403 l103 13 q9 38 19 114 q-46 -7 -128 -24 q0 -17 1 -26 l5 -77 ZM705 327 q5 1 10.5 5.5 q5.5 4.5 6.5 5.5 l110 -57 q-14 -23 -16 -56 l-11 -193 q-2 -38 -12.5 -68.5 q-10.5 -30.5 -24.5 -48 q-14 -17.5 -27 -17.5 q-12 0 -19 13 q-15 24 -25 35 q-10 11 -25 19 q-65 1 -158 -6 q1 -15 1 -45 q0 -12 -8 -12 q-5 0 -12 3.5 q-7 3.5 -10 4.5 q-32 17 -54 33.5 q-22 16.5 -21 38.5 q7 52 7 101 q0 57 -13 144 q-3 21 -11.5 42.5 q-8.5 21.5 -16.5 26.5 q6 2 21 2 q23 0 48 -8.5 q25 -8.5 41 -21.5 q-7 17 -5 24 q9 -1 27 -1 q19 0 28 1 q76 8 169 35 ZM508 80 q2 -22 4 -64 q51 2 104 6.5 q53 4.5 81 9.5 q8 2 14 0 q1 4 1 15 l3 205 q0 4 -4.5 7 q-4.5 3 -9.5 2 q-52 -8 -117 -26 q-46 -11 -39 -10 q-3 -1 -10 -1 q-21 0 -37 21 q0 -24 1 -42.5 q1 -18.5 2 -32.5 l2 -29 q19 5 39.5 8.5 q20.5 3.5 77.5 10.5 q20 2 37 -7 q17 -9 27.5 -22 q10.5 -13 10.5 -24 q0 -13 -15 -13 q-39 10 -71 10 q-26 0 -48.5 -6 q-22.5 -6 -50.5 -18 l-2 0 Z" /><glyph glyph-name="uni5021" unicode="&#x5021;" d="M272 463 q23 -13 33 -29 q-4 -48 -7 -72 q-1 -12 -5 -53.5 q-4 -41.5 -4 -77.5 l0 -282 q0 -13 -9 -13 q-9 0 -22 11 q-5 4 -24 19 q-19 15 -32 31 q-13 16 -13 27 q1 30 5 66 q4 36 5 46 q10 94 10 138 l0 117 q-75 -75 -149 -112 q-30 -16 -36 -16 q-7 0 17 27 q57 65 88.5 104.5 q31.5 39.5 60.5 87.5 l0 0 q48 78 104 218 q13 26 13 65 q0 20 -5 33 q43 -8 68.5 -29 q25.5 -21 25.5 -55 q0 -14 -4 -27 q-39 -119 -120 -224 ZM930 324 q-20 -45 -40 -220 l-20 -172 q-1 -13 -10 -13 q-8 0 -21 11 q-5 4 -24 19 q-19 15 -32 31 q-13 16 -13 27 l6 19 q-24 2 -36 2 q-43 0 -85.5 -7 q-42.5 -7 -96.5 -19 l-52 -11 l0 -4 l4 -38 q1 -14 -9 -14 q-9 0 -21 8 q-65 43 -68 70 q-2 24 -2 39 l1 61 q0 20 -1 30 l-8 137 q-1 18 -11 40.5 q-10 22.5 -19 29.5 q11 3 23 3 q27 0 55.5 -11 q28.5 -11 42.5 -27 q-7 17 -5 23 q18 -2 30 -2 q9 0 25 2 l102 15 q145 19 173 25 q-9 6 -10 7 q-31 25 -44 37 q-27 4 -57 4 q-81 0 -164 -30 l-5 0 l1 -11 q1 -14 -9 -14 q-9 0 -21 8 q-65 43 -68 70 q-1 8 -1 26 q0 20 1 30 l1 34 q0 21 -3 40 l-8 53 q-3 20 -12 42 q-9 22 -18 28 q10 3 23 3 q27 0 55.5 -11 q28.5 -11 42.5 -27 q-7 17 -5 23 q18 -2 30 -2 q9 0 25 2 q52 10 133 27 q81 17 88 20 q5 3 9.5 5.5 q4.5 2.5 7.5 3.5 l89 -64 q-3 -8 -12.5 -25.5 q-9.5 -17.5 -16.5 -40.5 q-7 -23 -11 -53 l-20 -176 l2 1 l89 -64 ZM532 456 q47 4 105 19 q57 14 98 18 q8 2 15 0 q18 53 29 123 l8 52 l0 1 q0 5 -4 8 q-4 3 -9 1 q-14 -5 -95 -24 q-71 -16 -98 -24 q-8 -2 -12 -2 q-26 0 -45 35 l3 -99 l21 5 q57 16 117 21 q20 2 38 -7.5 q18 -9.5 29 -24 q11 -14.5 11 -25.5 q0 -14 -17 -14 q-41 10 -88 10 q-53 0 -109 -14 l3 -59 ZM788 108 q4 0 14 -2 q7 30 8 51 l8 153 q0 5 -4 8 q-4 3 -9 2 q-11 -4 -148 -23 q-56 -8 -98 -14.5 q-42 -6.5 -19 -6.5 q-26 0 -45 35 l3 -106 q39 2 66 6.5 q27 4.5 59 12.5 q41 10 63 13 q4 1 11 1 q22 0 40.5 -10.5 q18.5 -10.5 29.5 -26 q11 -15.5 11 -27.5 q0 -8 -5.5 -13 q-5.5 -5 -16.5 -5 q-56 14 -96 14 q-29 0 -53.5 -6.5 q-24.5 -6.5 -64.5 -20.5 q-21 -3 -43 18 q0 -34 2 -90 q68 3 124 11 q56 8 152 25 l11 1 Z" /><glyph glyph-name="uni5029" unicode="&#x5029;" d="M865 497 q23 3 44 -8.5 q21 -11.5 34 -29.5 q13 -18 13 -32 q0 -18 -20 -18 q-47 16 -140 16 q-148 0 -435 -42 l-23 -3 q-26 -3 -54 47 l-6 -66 q-9 -77 -9 -130 l0 -317 q0 -13 -9 -13 q-9 0 -22 11 q-5 4 -24 19 q-19 15 -32 31 q-13 16 -13 27 q1 30 5 66 q4 36 5 46 q10 94 10 138 l0 173 l0 2 q-61 -68 -127 -118 q-27 -21 -33 -21 q-7 0 14 31 q64 97 105 174.5 q41 77.5 105 229.5 q12 29 12 65 q0 20 -5 33 q43 -8 69.5 -28.5 q26.5 -20.5 26.5 -53.5 q0 -11 -5 -28 q-37 -118 -116 -227 q24 -9 41 -26 l-2 6 q130 4 291 14 l0 62 q-81 -13 -112 -28 q-19 -3 -32.5 19 q-13.5 22 -18.5 39 l44 5 q23 3 52.5 6.5 q29.5 3.5 66.5 8.5 l0 56 q-113 -16 -141 -30 q-19 -3 -32.5 19 q-13.5 22 -18.5 39 l192 21 l0 79 q0 17 -6.5 37.5 q-6.5 20.5 -13.5 27.5 q4 1 12 1 q26 0 55 -14 q29 -14 40 -32 q-2 -27 -8 -89 q102 16 137 29 q19 2 35.5 -8 q16.5 -10 26.5 -24.5 q10 -14.5 10 -26.5 q0 -15 -16 -14 q-13 2 -51 2 q-61 0 -146 -8 q-2 -30 -2 -45 l0 -9 q73 13 113 27 q19 2 35.5 -8 q16.5 -10 27 -25 q10.5 -15 10.5 -26 q0 -15 -17 -14 q-13 2 -48 2 q-61 0 -121 -7 l0 -66 q154 12 227 26 ZM721 391 q7 3 10.5 5 q3.5 2 5.5 3 l87 -52 q-8 -10 -13 -24 q-5 -14 -5 -26 l0 -302 q0 -51 -16.5 -83 q-16.5 -32 -36.5 -32 q-13 0 -21 11 l-19 24 q-20 28 -36.5 45 q-16.5 17 -41.5 26 q-12 4 -12 7 q0 4 20 2 q24 -2 32 -2 q29 0 43.5 10.5 q14.5 10.5 14.5 37.5 l0 104 l-8 189 q0 4 -3.5 7 q-3.5 3 -8.5 2 q-51 -14 -134 -32 l-37 -8 q-3 -1 -8 -1 q-19 0 -34 19 q-2 -27 -8 -83 q37 4 60.5 9.5 q23.5 5.5 66.5 18.5 q15 2 29.5 -6 q14.5 -8 23 -20.5 q8.5 -12.5 8.5 -21.5 q0 -5 -3.5 -8.5 q-3.5 -3.5 -10.5 -2.5 q-22 3 -42 3 q-29 0 -52.5 -5 q-23.5 -5 -65.5 -17 l-3 0 q-7 0 -15 6 q-2 -34 -2 -51 l0 -10 q46 3 76 9 q30 6 70 18 q15 2 29.5 -6 q14.5 -8 23 -20.5 q8.5 -12.5 8.5 -21.5 q0 -5 -3.5 -8.5 q-3.5 -3.5 -10.5 -2.5 q-24 4 -51 4 q-53 0 -113 -21 q-17 -1 -29 20 l0 -165 q0 -11 -8 -11 q-5 0 -21 9 q-67 38 -62 70 q18 95 18 226 l0 74 q0 17 -6 37.5 q-6 20.5 -14 28.5 l10 1 q20 0 44.5 -9.5 q24.5 -9.5 40.5 -23.5 q-5 12 -4 17 q18 -2 27 -2 q9 0 23 2 q16 3 82 14 q94 15 105 19 Z" /><glyph glyph-name="uni503C" unicode="&#x503c;" d="M884 37 q25 3 48 -9.5 q23 -12.5 37.5 -32.5 q14.5 -20 14.5 -36 q0 -20 -22 -20 q-71 18 -216 18 q-111 0 -234 -9 q-123 -9 -172 -17 q-25 -4 -45 26.5 q-20 30.5 -26 51.5 l142 4 q2 48 2 83 q0 88 -5.5 185 q-5.5 97 -12.5 138 q-3 21 -11.5 42.5 q-8.5 21.5 -16.5 26.5 q7 2 21 2 q22 0 46 -7.5 q24 -7.5 40 -20.5 q-8 17 -6 26 q15 -5 37 -5 q14 0 21 1 l9 1 q6 33 15 79 l-70 -14 q-48 -11 -63 -13 q-25 -4 -45 26.5 q-20 30.5 -26 51.5 q48 1 97 7 q49 6 119 17 q4 25 10 79 l1 15 q0 23 -5.5 46.5 q-5.5 23.5 -14.5 34.5 q52 3 84 -16 q32 -19 32 -66 q-2 -27 -13 -77 q83 15 158 23 q25 3 48 -9.5 q23 -12.5 37.5 -32.5 q14.5 -20 14.5 -36 q0 -20 -22 -20 q-48 12 -107 12 q-59 0 -150 -13 q-15 -48 -32 -84 q52 10 101 24 q5 1 10.5 5.5 q5.5 4.5 6.5 5.5 l110 -57 q-7 -12 -11.5 -27 q-4.5 -15 -4.5 -29 l-1 -384 l70 4 ZM229 469 q32 -15 45 -35 q-4 -48 -7 -72 q-1 -12 -5 -53.5 q-4 -41.5 -4 -77.5 l0 -345 q0 -13 -9 -13 q-9 0 -22 11 q-5 4 -24 19 q-19 15 -32 31 q-13 16 -13 27 q1 30 5 66 q4 36 5 46 q10 94 10 138 l0 194 q-57 -64 -125 -107 q-4 -2 -15 -9.5 q-11 -7.5 -15.5 -9 q-4.5 -1.5 -4.5 0.5 q0 5 16 28 q50 70 76 112.5 q26 42.5 53.5 101 q27.5 58.5 75.5 173.5 q10 24 10 60 q0 27 -5 38 q43 -7 70.5 -27 q27.5 -20 27.5 -53 q0 -11 -5 -28 q-36 -115 -108 -216 ZM502 17 q75 3 219 11 l-7 416 q0 4 -4.5 7 q-4.5 3 -9.5 2 q-37 -5 -95 -20 l-70 -16 q-3 -1 -8 -1 q-22 0 -38 21 q0 -20 2 -82 q36 3 60 8 q24 5 59 16 q21 2 39.5 -7.5 q18.5 -9.5 30 -24.5 q11.5 -15 11.5 -26 q0 -6 -5 -10 q-5 -4 -14 -3 q-36 4 -65 4 q-22 0 -38 -2.5 q-16 -2.5 -32.5 -7 q-16.5 -4.5 -25.5 -6.5 l-4 0 q-6 0 -14 4 l2 -57 q34 3 57.5 8 q23.5 5 57.5 16 q21 2 39.5 -7.5 q18.5 -9.5 30 -24.5 q11.5 -15 11.5 -26 q0 -6 -5 -10 q-5 -4 -14 -3 q-36 4 -65 4 q-22 0 -38 -2.5 q-16 -2.5 -32.5 -7 q-16.5 -4.5 -25.5 -6.5 l-4 0 q-4 0 -10 2 l2 -50 q32 4 55 9 q23 5 56 15 q21 2 39.5 -7.5 q18.5 -9.5 30 -24.5 q11.5 -15 11.5 -26 q0 -6 -5 -10 q-5 -4 -14 -3 q-36 4 -65 4 q-22 0 -38 -2.5 q-16 -2.5 -32.5 -7 q-16.5 -4.5 -25.5 -6.5 q-7 0 -10 1 l1 -61 Z" /><glyph glyph-name="uni503E" unicode="&#x503e;" d="M210 473 q41 -16 55 -39 q-4 -48 -7 -72 q-1 -12 -5 -53.5 q-4 -41.5 -4 -77.5 l0 -282 q0 -13 -9 -13 q-9 0 -22 11 q-5 4 -24 19 q-19 15 -32 31 q-13 16 -13 27 q1 30 5 66 q4 36 5 46 q10 94 10 138 l0 138 l0 10 q-56 -61 -117 -94 q-38 -21 -38 -16 q0 5 19 27 q53 64 92 134.5 q39 70.5 98 203.5 q12 26 12 60 q0 20 -4 29 q39 -8 62 -25 q23 -17 23 -48 q0 -15 -4 -28 q-44 -111 -102 -192 ZM928 643 q-41 9 -92 9 q-54 0 -119 -10 q9 -12 9 -30 q0 -13 -6 -28 q-19 -49 -66 -88 l5 1 q29 5 71.5 21 q42.5 16 57.5 23 q5 3 9.5 5.5 q4.5 2.5 7.5 3.5 l96 -65 q-8 -10 -14 -39.5 q-6 -29.5 -6 -45.5 l0 -177 q0 -54 -17 -86 q-17 -32 -39 -32 q-13 0 -25 13 q-18 21 -29 41 q-18 28 -40 52 l-2 2 q-6 -50 -19 -88 l4 -1 l190 -58 q16 -5 24.5 -12.5 q8.5 -7.5 8.5 -25.5 q-1 -47 -7.5 -79.5 q-6.5 -32.5 -25.5 -32.5 q-10 0 -24 13 q-82 76 -121.5 114.5 q-39.5 38.5 -55.5 60.5 q-28 -68 -87 -109.5 q-59 -41.5 -169 -60.5 q-15 -3 -26 -3 q-14 0 -14 4 q0 6 22 14 q83 32 128.5 73 q45.5 41 67.5 110.5 q22 69.5 26 189.5 q0 62 -8 89 q49 -3 74.5 -20.5 q25.5 -17.5 25.5 -53.5 l-1 -12 q-4 -46 -11 -104 l9 0 q27 0 36.5 2.5 q9.5 2.5 14 13 q4.5 10.5 4.5 37.5 l-3 190 q0 5 -4 8 q-4 3 -9 2 q-18 -5 -38 -14 q-20 -9 -26 -11 q-38 -17 -47 -20 q-4 -2 -12 -2 q-21 0 -37 25 q-15 -139 -15 -229 l0 -105 q0 -12 -8 -12 q-4 0 -12 4 q-8 4 -11 6 q-21 12 -41.5 33.5 q-20.5 21.5 -17.5 43.5 q5 31 7.5 103 q2.5 72 2.5 142 l0 1 q0 13 -3 28 l0 -5 q0 -12 -13 -11 q-21 3 -42 3 q-29 0 -59 -6 q-3 -37 -3 -73 l0 -119 q0 -3 3 -4.5 q3 -1.5 6 0.5 q20 15 34 27 q38 29 48 29 q16 0 -28 -60 q-44 -60 -87 -110 q-13 -16 -32 -16 q-17 0 -33.5 12.5 q-16.5 12.5 -27.5 29 q-11 16.5 -12 24.5 q23 13 36 26.5 q13 13.5 13 41.5 l0 300 q0 19 -7 42 q-7 23 -15 30 q4 1 12 1 q29 0 61 -15.5 q32 -15.5 45 -35.5 q-2 -27 -8 -79 q29 5 50 12 q20 2 37.5 -12.5 q17.5 -14.5 20.5 -30.5 q-7 32 -18 43 q4 1 12 1 q18 0 38.5 -6.5 q20.5 -6.5 37.5 -17.5 q6 13 13 30 l38 85 q4 8 10 26 q-67 -15 -107 -35 q-18 -4 -34 11 q-16 15 -27 34.5 q-11 19.5 -14 28.5 q58 4 111.5 14 q53.5 10 128.5 27 q95 21 135 27 q4 1 13 1 q24 0 45 -12.5 q21 -12.5 34 -30.5 q13 -18 13 -32 q0 -18 -21 -19 Z" /></font>
</defs>
</svg>
